<svg width="57" height="25" viewBox="0 0 57 25" fill="none" xmlns="http://www.w3.org/2000/svg">
<path d="M56.2147 17.8282C56.2147 16.4425 56.166 15.0567 56.2147 13.671C56.2147 12.9822 56.2147 12.2853 56.2147 11.5964C56.2147 10.705 56.2147 9.82172 56.1498 8.93841C56.1498 7.69044 56.1498 6.44246 56.1498 5.20259C56.1498 4.87034 56.1498 4.52998 56.1984 4.19773C56.2294 3.81569 56.2076 3.4312 56.1336 3.05511C56.0564 2.72326 56.0237 2.38261 56.0364 2.04214C56.0364 1.5316 56.0364 1.01297 56.0364 0.494327V0.226904C56.0364 0.0405186 56.0364 0.0162075 55.7933 0.0405186C55.5738 0.0421199 55.3545 0.0285816 55.1369 0L54.756 0L53.0299 0.113452C52.7057 0.113452 52.3816 0.113452 52.0493 0.0729336H46.3767C40.5502 0 34.756 0.0486224 28.9456 0H5.82568C5.45291 0 5.08014 0.0405186 4.69926 0.0567261C4.16442 0.0567261 3.63767 0.153971 3.07852 0.145867H2.1709C2.06841 0.153905 1.96545 0.153905 1.86296 0.145867C1.64022 0.109567 1.41308 0.109567 1.19035 0.145867C0.977568 0.156973 0.764351 0.135105 0.558257 0.0810373C0.266523 0.0405186 0.193589 0.089141 0.209797 0.380875C0.173525 0.66877 0.173525 0.960079 0.209797 1.24797C0.230057 1.325 0.230057 1.40596 0.209797 1.48298C0.17486 1.67831 0.155889 1.87615 0.15307 2.07455C0.15307 2.88493 0.15307 3.6953 0.15307 4.46515C0.15307 4.88655 0.15307 5.27553 0.15307 5.73744C0.15307 6.87196 0.15307 8.00648 0.15307 9.14911C0.147719 9.52541 0.166667 9.90167 0.209797 10.2755C0.262412 10.679 0.262412 11.0876 0.209797 11.4911C0.136863 12.0421 0.112552 12.5932 0.0801369 13.1118C0.0801369 13.8331 0.0234108 14.5624 0.00720331 15.2917C-0.00900414 16.0211 0.00720331 16.9125 0.00720331 17.6823C0.00720331 19.8136 0.00720331 21.9449 0.00720331 24.0762C0.00720331 24.3112 0.00720331 24.5381 0.0477219 24.7731C0.0882406 25.0081 0.047722 24.9271 0.209797 24.9271H2.31677C3.12714 24.9271 3.85647 24.8784 4.63443 24.8703C5.2098 24.8703 5.78516 24.8703 6.36053 24.8703C7.1709 24.8703 8.0542 24.8703 8.89699 24.8703C9.73978 24.8703 10.7203 24.8703 11.6279 24.9109C12.5356 24.9514 13.2487 24.9109 14.0591 24.9109C14.8694 24.9109 15.8338 24.9109 16.7252 24.9514C17.6166 24.9919 18.3459 24.9514 19.1563 24.9514C20.1207 24.9514 21.0769 24.9514 22.0574 25C25.6798 25 29.3508 25 32.957 25C34.6587 25 36.3605 25 38.0623 25C39.051 25 40.0477 25 41.0364 24.919C41.8467 24.8703 42.5761 24.846 43.3459 24.8136L46.5874 24.7002C47.2195 24.7002 47.8516 24.7002 48.4837 24.7002L50.9148 24.7812L52.8273 24.8298H52.9813C53.9213 24.8298 54.8613 24.8947 55.8014 24.8298C55.8797 24.8338 55.9581 24.8338 56.0364 24.8298C56.1822 24.8298 56.2147 24.765 56.2471 24.6191C56.2669 24.4739 56.2669 24.3267 56.2471 24.1815C56.239 24.1034 56.239 24.0246 56.2471 23.9465C56.2902 23.5103 56.3092 23.072 56.3038 22.6337C56.2309 21.0697 56.2309 19.4489 56.2147 17.8282ZM16.004 5.83468C16.004 5.74554 16.004 5.71313 16.1255 5.71313C16.2471 5.71313 16.4821 5.71313 16.6685 5.71313C16.8549 5.71313 16.8711 5.71313 16.8711 5.52674V4.28687C16.8711 4.28687 16.8711 4.20583 16.8711 4.16532C16.8711 4.1248 16.8711 4.04376 16.9845 4.04376H17.7544C17.9297 4.05579 18.1057 4.05579 18.2811 4.04376C18.4351 4.04376 18.4675 4.04376 18.4756 4.22204C18.5161 4.63533 18.4756 5.03241 18.4756 5.46191C18.4756 5.63209 18.4756 5.63209 18.662 5.64019L19.9586 5.67261C20.0963 5.67261 20.0963 5.67261 20.0963 5.81848C20.0963 6.23177 20.0963 6.62885 20.0963 7.05835C20.0963 7.20421 20.0963 7.21232 19.9343 7.20421C19.5534 7.20421 19.1725 7.20421 18.7835 7.20421C18.7431 7.20828 18.7024 7.20828 18.662 7.20421C18.5891 7.20421 18.5647 7.20421 18.5647 7.30146C18.5202 8.00308 18.5202 8.70681 18.5647 9.40843C18.5802 9.59618 18.6355 9.77849 18.7268 9.94327C18.7689 10.033 18.837 10.1081 18.9222 10.1587C19.0075 10.2092 19.106 10.233 19.2049 10.2269H19.8208C19.9505 10.2269 19.9748 10.2269 19.9748 10.3647C19.9546 10.7291 19.9546 11.0943 19.9748 11.4587C19.9829 11.5015 19.9829 11.5455 19.9748 11.5883C19.9759 11.6043 19.9738 11.6203 19.9687 11.6355C19.9636 11.6507 19.9555 11.6647 19.945 11.6767C19.9345 11.6888 19.9216 11.6986 19.9073 11.7057C19.8929 11.7128 19.8773 11.717 19.8613 11.718H19.8208C19.28 11.7634 18.7356 11.7416 18.2001 11.6532C17.8981 11.5887 17.619 11.4441 17.3923 11.2345C17.1655 11.0248 16.9995 10.7579 16.9116 10.4619C16.804 10.1329 16.76 9.78634 16.7819 9.44084C16.7819 8.97083 16.8467 8.50891 16.8305 8.0389V7.35008C16.8305 7.22042 16.8305 7.22042 16.7009 7.22042H16.0769C16.0592 7.22319 16.0412 7.22175 16.0242 7.21621C16.0072 7.21068 15.9917 7.2012 15.9791 7.18856C15.9665 7.17592 15.957 7.16048 15.9514 7.14348C15.9459 7.12648 15.9445 7.10842 15.9472 7.09076C16.004 6.66937 16.004 6.25608 16.004 5.83468ZM9.87754 5.71313H9.96668L11.2957 5.67261C11.4659 5.67261 11.4821 5.67261 11.474 5.8671C11.474 6.67747 11.474 7.53647 11.474 8.37925C11.474 8.72771 11.474 9.08428 11.474 9.43274C11.4914 9.60006 11.5542 9.75945 11.6556 9.89369C11.757 10.0279 11.8932 10.1319 12.0493 10.1945C12.156 10.2188 12.2668 10.2188 12.3735 10.1945C12.5474 10.186 12.7173 10.1396 12.8713 10.0584C13.0254 9.97718 13.1597 9.8632 13.2649 9.72447C13.3181 9.65197 13.3439 9.56298 13.3378 9.47326C13.3784 8.906 13.3378 8.34684 13.3378 7.77958V6.7342C13.354 6.52381 13.354 6.31249 13.3378 6.10211C13.3338 6.02923 13.3338 5.95618 13.3378 5.88331C13.3378 5.80227 13.3378 5.76985 13.4594 5.76175C13.9452 5.7334 14.4323 5.7334 14.9181 5.76175C15.0396 5.76175 15.0558 5.76175 15.0558 5.91572C15.0558 6.06969 15.0558 6.34522 15.0558 6.55592C15.0558 7.12318 15.0558 7.68233 15.0558 8.2496C15.0558 8.98703 15.0558 9.72447 15.0558 10.4538C15.0558 10.7618 15.0558 11.0616 15.0558 11.3695C15.0558 11.6775 15.0072 11.7099 14.6993 11.7018H14.0672C13.9699 11.7018 13.8727 11.7018 13.7754 11.7018C13.6782 11.7018 13.5972 11.7018 13.5891 11.5235C13.5809 11.3452 13.5891 11.1264 13.5891 10.9238C13.5891 10.9238 13.5891 10.8185 13.5485 10.8023C13.508 10.7861 13.4594 10.8023 13.4351 10.8752C13.2642 11.073 13.068 11.2473 12.8516 11.3938C12.6051 11.5471 12.3289 11.6466 12.0412 11.6856C11.6172 11.7776 11.1744 11.7234 10.7852 11.5316C10.5306 11.4119 10.3136 11.2248 10.1579 10.9905C10.0022 10.7562 9.91362 10.4837 9.90186 10.2026V10.0891C9.90186 8.79254 9.84513 7.49595 9.85323 6.19125C9.85323 6.0859 9.85323 5.97245 9.85323 5.8671C9.85323 5.76175 9.75599 5.71313 9.87754 5.71313V5.71313ZM3.17576 11.564C3.17576 11.3857 3.17576 11.2075 3.17576 11.0373V9.72447C3.17576 9.14911 3.17576 8.57374 3.17576 7.99838C3.17576 7.42301 3.17576 6.71799 3.17576 6.0859C3.17576 5.67261 3.17576 5.27553 3.17576 4.84603C3.17576 4.41653 3.17576 3.82496 3.17576 3.31442V3.24149C3.17576 3.09562 3.17576 3.10373 3.31352 3.08752C3.65388 3.08752 4.00234 3.08752 4.3508 3.08752C5.02611 3.08752 5.69872 3.08752 6.36863 3.08752C6.88849 3.102 7.39162 3.27442 7.81109 3.58185C7.97942 3.70463 8.1225 3.85871 8.23249 4.03566C8.39218 4.28915 8.5201 4.56131 8.61336 4.84603C8.65783 4.99014 8.67433 5.14142 8.66198 5.29173C8.66198 5.55916 8.66198 5.82658 8.59715 6.10211C8.57072 6.32232 8.49301 6.53326 8.37025 6.71799C8.26338 6.90181 8.11996 7.06177 7.94886 7.18801C7.88403 7.18801 7.89213 7.27715 7.94886 7.31767L8.20007 7.53647C8.44538 7.74836 8.6417 8.01104 8.77544 8.30632C8.91394 8.62789 8.97234 8.97828 8.94561 9.32739C8.92227 9.60087 8.87619 9.87193 8.80785 10.1378C8.74938 10.4002 8.63124 10.6456 8.4626 10.855C8.29396 11.0644 8.07934 11.2322 7.8354 11.3452C7.36233 11.5722 6.84472 11.6912 6.32001 11.6937L4.08338 11.7261H3.27301C3.19197 11.6937 3.17576 11.6775 3.17576 11.564ZM8.84837 20.543C8.73083 20.8442 8.53249 21.1073 8.27514 21.3032C8.01779 21.499 7.71142 21.6201 7.3897 21.6532C6.9748 21.7263 6.55484 21.7669 6.13362 21.7747C5.57446 21.7747 5.01531 21.7747 4.45615 21.7747C4.1239 21.7747 3.79164 21.7747 3.45939 21.7747C3.30542 21.7747 3.28921 21.7747 3.28921 21.6126C3.28921 20.8023 3.23249 19.9919 3.28921 19.2464C3.30176 19.0575 3.30176 18.868 3.28921 18.6791C3.28921 18.0713 3.28921 17.4716 3.28921 16.872C3.28921 16.2723 3.27301 15.9319 3.27301 15.3971C3.27301 14.8622 3.27301 14.2139 3.27301 13.6305C3.27301 13.2739 3.27301 13.282 3.62957 13.2739C4.65064 13.2739 5.67171 13.2334 6.69278 13.2739C7.08091 13.2698 7.46437 13.3588 7.81109 13.5332C8.02118 13.646 8.2038 13.8037 8.34594 13.9951C8.54 14.2538 8.68051 14.5486 8.75923 14.8622C8.88024 15.2758 8.89694 15.7129 8.80785 16.1345C8.72035 16.4229 8.58917 16.6962 8.41887 16.9449C8.34638 17.0351 8.25861 17.1119 8.15955 17.1718C8.01369 17.2771 8.01369 17.2771 8.15955 17.4149L8.30542 17.5527C8.71249 17.9444 8.97764 18.4604 9.05907 19.0194C9.13144 19.5378 9.05558 20.066 8.84027 20.543H8.84837ZM15.1126 19.7326C15.0659 20.0876 14.9414 20.428 14.7479 20.7293C14.7479 20.7942 14.6587 20.859 14.6182 20.9319C14.4543 21.1687 14.2383 21.3648 13.9869 21.5053C13.7355 21.6457 13.4552 21.7268 13.1677 21.7423C12.9083 21.7423 12.649 21.7828 12.3573 21.7909C12.0434 21.8163 11.7279 21.7729 11.4325 21.6637C11.1372 21.5546 10.8693 21.3823 10.6474 21.1588L10.3881 20.9076C10.2013 20.7217 10.067 20.4896 9.9991 20.235C9.80478 19.5698 9.72262 18.8769 9.75599 18.1848C9.7715 17.9051 9.83738 17.6306 9.95048 17.3744C10.0663 17.0808 10.2277 16.8074 10.4286 16.564C10.7194 16.1963 11.1291 15.9413 11.5874 15.8428C12.0491 15.7338 12.5258 15.7036 12.9975 15.7536C13.424 15.7972 13.8263 15.9728 14.1482 16.2561C14.3437 16.4366 14.5252 16.6316 14.6912 16.8395C14.8331 17.0366 14.935 17.2596 14.991 17.4959C15.1052 17.9789 15.1543 18.4749 15.1369 18.9708C15.1288 19.1977 15.1369 19.4489 15.1044 19.7083L15.1126 19.7326ZM21.0364 21.7909H20.4772C20.145 21.7909 19.8208 21.7909 19.4886 21.7909C19.4378 21.7954 19.387 21.7826 19.3444 21.7547C19.3017 21.7268 19.2697 21.6853 19.2536 21.637C18.9834 21.0589 18.7133 20.4835 18.4432 19.9109V19.8379C18.4432 19.7974 18.4432 19.7407 18.354 19.7326C18.2649 19.7245 18.2649 19.7974 18.2487 19.846C18.0542 20.2998 17.8516 20.7536 17.6814 21.2237L17.5032 21.6613C17.5032 21.7747 17.3897 21.8071 17.2681 21.8152C16.7657 21.8152 16.2633 21.8152 15.7527 21.8152C15.6844 21.8206 15.6161 21.8035 15.5583 21.7666L15.769 21.329L16.8873 19.0438L16.9602 18.8736C16.9838 18.8344 16.9962 18.7896 16.9962 18.7439C16.9962 18.6982 16.9838 18.6534 16.9602 18.6143C16.7738 18.282 16.6198 17.9335 16.4173 17.6094C16.1184 17.1202 15.8479 16.6142 15.6069 16.094C15.5881 16.0736 15.5746 16.0489 15.5675 16.022C15.5604 15.9952 15.56 15.9671 15.5664 15.94C15.6815 15.9035 15.8022 15.887 15.9229 15.8914C16.3686 15.8914 16.8143 15.8914 17.2519 15.8914C17.291 15.8883 17.33 15.8976 17.3635 15.918C17.3969 15.9384 17.4231 15.9688 17.4383 16.0049L18.0461 17.2123C18.1271 17.3663 18.2082 17.5203 18.2811 17.6742C18.3621 17.6742 18.3784 17.6175 18.4027 17.5851C18.662 17.1475 18.9213 16.7099 19.1401 16.248C19.143 16.2265 19.143 16.2047 19.1401 16.1831C19.1644 16.1018 19.217 16.0319 19.2883 15.9858C19.3596 15.9398 19.445 15.9207 19.5291 15.9319C19.9262 15.9319 20.3395 15.9319 20.7122 15.9319C20.7795 15.9239 20.8475 15.9239 20.9148 15.9319C21.004 15.9319 21.0202 16.013 20.9797 16.1021C20.944 16.1803 20.9034 16.256 20.8581 16.329L20.0477 18.0875C19.957 18.2792 19.8513 18.4634 19.7317 18.6386C19.71 18.6679 19.6982 18.7034 19.6982 18.7399C19.6982 18.7763 19.71 18.8119 19.7317 18.8412L20.4286 20.3241C20.5812 20.6336 20.7517 20.934 20.9391 21.2237C21.0161 21.3482 21.0839 21.4782 21.1417 21.6126C21.1822 21.7342 21.166 21.7666 21.0283 21.7666L21.0364 21.7909ZM16.6442 18.7277C16.6442 18.7277 16.6442 18.7277 16.6847 18.7277C16.6847 18.7277 16.6847 18.7682 16.6847 18.7277H16.6442ZM25.1531 7.1637C25.1531 7.29336 25.1531 7.29335 24.9748 7.29335C24.5615 7.29335 24.1644 7.29335 23.7511 7.29335C23.6134 7.29335 23.5972 7.29335 23.5972 7.42301C23.5972 8.0389 23.5323 8.64668 23.5485 9.26256C23.5409 9.3894 23.5409 9.51659 23.5485 9.64344C23.583 9.80971 23.6688 9.96096 23.7938 10.0758C23.9189 10.1907 24.0769 10.2634 24.2455 10.2836C24.448 10.2836 24.6506 10.2836 24.8451 10.2836C25.0396 10.2836 25.0234 10.2836 25.0153 10.4376C25.0153 10.778 25.0153 11.1102 25.0558 11.4425C25.0558 11.6288 25.0558 11.6451 24.8532 11.6694C24.4495 11.7179 24.0414 11.7179 23.6377 11.6694C23.1918 11.6378 22.7668 11.4678 22.4221 11.1831C22.1479 10.9534 21.9688 10.6299 21.9197 10.2755C21.8455 9.71358 21.8427 9.14448 21.9116 8.58185C21.9116 8.20097 21.9116 7.8201 21.9116 7.43922C21.9116 7.29336 21.9116 7.29335 21.7495 7.29335H21.1985C21.1012 7.29335 21.1012 7.29336 21.1012 7.13128C21.1012 6.71799 21.1012 6.32091 21.1012 5.90762C21.1012 5.76985 21.1012 5.76175 21.2471 5.76175H21.7738C21.9359 5.76175 21.9359 5.76175 21.9359 5.59968C21.9359 5.4376 21.9359 5.15397 21.9359 4.92707C21.9359 4.70016 21.9359 4.46515 21.9359 4.23825C21.9359 4.01135 21.9116 4.05186 22.1061 4.05186C22.5356 4.05186 22.9732 4.05186 23.4027 4.05186C23.5566 4.05186 23.5647 4.05186 23.5728 4.23015C23.5728 4.57861 23.5728 4.91896 23.5728 5.26742C23.5728 5.40519 23.4999 5.57536 23.5728 5.67261C23.6458 5.76985 23.8079 5.67261 23.9375 5.67261H24.9748C25.1207 5.67261 25.1288 5.67261 25.1288 5.82658C25.1531 6.36143 25.1531 6.75851 25.1531 7.1637ZM31.2633 9.29498H28.9942C28.6215 9.29498 28.2487 9.35981 27.884 9.29498C27.8412 9.28705 27.7972 9.28705 27.7544 9.29498C27.7434 9.29416 27.7323 9.29616 27.7223 9.30081C27.7123 9.30545 27.7036 9.31257 27.6971 9.3215C27.6906 9.33042 27.6865 9.34086 27.6852 9.35182C27.6839 9.36278 27.6854 9.3739 27.6895 9.38412C27.6889 9.56665 27.7311 9.74678 27.8127 9.91004C27.8944 10.0733 28.0131 10.2151 28.1596 10.3241C28.2761 10.4149 28.4173 10.4685 28.5647 10.4781C28.7575 10.4932 28.9514 10.4795 29.1401 10.4376C29.2814 10.4077 29.4111 10.3375 29.5132 10.2353C29.6153 10.1332 29.6856 10.0036 29.7155 9.86224C29.7155 9.76499 29.7803 9.73258 29.8694 9.74068C30.2908 9.7893 30.6798 9.74068 31.1255 9.74068C31.3767 9.74068 31.3929 9.7812 31.3119 10.0162C31.1918 10.3807 31.008 10.7209 30.769 11.0211C30.6172 11.1965 30.4254 11.3327 30.2098 11.4182C29.7434 11.6272 29.2379 11.7349 28.7268 11.7342C28.5126 11.7409 28.2983 11.7273 28.0866 11.6937C27.4859 11.5804 26.9471 11.2519 26.5712 10.7699C26.1749 10.2603 25.9609 9.63257 25.9634 8.98703V8.58995C25.9752 7.93827 26.136 7.29794 26.4335 6.71799C26.5723 6.43453 26.776 6.18778 27.0281 5.99771C27.2801 5.80765 27.5733 5.67961 27.884 5.62399C28.5858 5.44981 29.3267 5.53021 29.9748 5.85089C30.4149 6.0808 30.7741 6.43996 31.004 6.88006C31.0688 6.98541 31.1255 7.10697 31.1822 7.22042C31.2719 7.41181 31.3267 7.6176 31.3443 7.8282C31.4049 8.26303 31.4293 8.70214 31.4172 9.141C31.3929 9.28687 31.3929 9.29498 31.2309 9.29498H31.2633ZM35.4853 7.33387C35.243 7.31936 34.9999 7.34121 34.7641 7.3987C34.5818 7.45211 34.4168 7.55276 34.286 7.69044C34.1645 7.82758 34.0931 8.00183 34.0834 8.18477C34.0834 8.89789 34.132 9.60292 34.1482 10.316C34.1482 10.705 34.1482 11.1264 34.1482 11.483C34.1482 11.5721 34.1482 11.6045 34.0267 11.6045H33.7916H32.7382H32.5356C32.4302 11.6045 32.4059 11.5478 32.4059 11.4506C32.4099 11.3777 32.4099 11.3046 32.4059 11.2318C32.4059 10.1135 32.4059 8.98703 32.3573 7.86872C32.3573 7.23663 32.3573 6.60454 32.2925 5.97245V5.8671C32.2925 5.80227 32.2925 5.76175 32.3897 5.76175C32.8111 5.76175 33.2406 5.76175 33.662 5.76175C33.7754 5.76175 33.816 5.81848 33.8484 5.92382C33.8785 6.07521 33.9275 6.22222 33.9942 6.36143L34.1887 6.19125C34.5321 5.9096 34.9477 5.72992 35.3881 5.67261C35.4309 5.6645 35.4749 5.6645 35.5177 5.67261C35.6312 5.67261 35.6636 5.67261 35.6555 5.81037C35.6555 6.25608 35.6555 6.70178 35.6555 7.13938C35.6879 7.29336 35.6393 7.33387 35.4529 7.33387H35.4853ZM41.8954 11.6288C41.4335 11.6288 40.9634 11.6288 40.4934 11.6288C40.3962 11.6288 40.3638 11.5721 40.3719 11.4911V11.1426C40.3719 10.7861 40.3719 10.4295 40.3719 10.0648C40.3719 9.70016 40.3719 9.20583 40.3719 8.77634C40.3724 8.44273 40.348 8.10956 40.2989 7.77958C40.2873 7.67812 40.2549 7.58014 40.2039 7.49171C40.1528 7.40328 40.0841 7.32629 40.002 7.2655C39.92 7.20472 39.8263 7.16144 39.7268 7.13835C39.6273 7.11526 39.5242 7.11285 39.4237 7.13128H39.2617C39.0621 7.15763 38.8782 7.25319 38.742 7.40129C38.6057 7.5494 38.5258 7.74064 38.5161 7.94165C38.5161 8.42788 38.5161 8.9141 38.5161 9.40032C38.5161 9.88655 38.5161 10.5186 38.5161 11.0778C38.5161 11.2075 38.5161 11.3452 38.5161 11.4749C38.5161 11.6045 38.5161 11.6451 38.3459 11.6451H36.9683C36.7657 11.6451 36.7495 11.6451 36.7495 11.4182C36.7495 10.6078 36.7495 9.83793 36.7981 9.04376C36.8467 8.24959 36.7981 7.50405 36.7981 6.7342C36.7981 6.48298 36.7981 6.23177 36.7414 5.98865C36.7414 5.98865 36.7414 5.94003 36.7414 5.91572C36.7414 5.67261 36.7414 5.67261 36.9764 5.67261C37.2461 5.69384 37.5171 5.69384 37.7868 5.67261C37.8839 5.66449 37.9814 5.66449 38.0785 5.67261C38.2973 5.67261 38.2892 5.67261 38.3216 5.8752C38.3378 6.03146 38.3378 6.18896 38.3216 6.34522C38.3216 6.39384 38.3216 6.46677 38.3216 6.49109C38.3216 6.5154 38.4027 6.49109 38.4351 6.41815L38.5161 6.34522C38.8245 6.05379 39.2025 5.84637 39.614 5.7428C40.0254 5.63922 40.4566 5.64296 40.8662 5.75365C41.0522 5.80433 41.2231 5.89939 41.3642 6.03066C41.5054 6.16192 41.6125 6.32548 41.6766 6.50729C41.8019 6.83146 41.8757 7.17326 41.8954 7.52026C41.9237 7.98714 41.9237 8.45532 41.8954 8.9222C41.8711 9.32973 41.8711 9.73834 41.8954 10.1459C41.8954 10.5997 41.8954 11.0697 41.8954 11.5235C41.9764 11.5883 41.9602 11.637 41.863 11.6288H41.8954ZM48.2568 11.6288H47.9651C47.6557 11.6178 47.346 11.6396 47.0412 11.6937C46.8305 11.6937 46.7495 11.6937 46.7252 11.4425C46.7009 11.1912 46.7252 11.2237 46.7252 11.1183C46.7252 11.013 46.7252 10.9887 46.6685 10.94C46.576 10.9959 46.4915 11.0641 46.4173 11.1426C46.1022 11.4582 45.6863 11.6532 45.2422 11.6937C45.0428 11.7138 44.8419 11.7138 44.6425 11.6937C44.2616 11.6306 43.9125 11.4427 43.6499 11.1596C43.3874 10.8765 43.2263 10.5142 43.192 10.1297C43.1502 9.84248 43.1286 9.55275 43.1271 9.26256C43.1271 8.6872 43.0785 8.11183 43.1271 7.53647C43.1758 6.9611 43.1271 6.47488 43.1271 5.91572V5.85089C43.1271 5.73744 43.1677 5.69692 43.2811 5.69692C43.3971 5.68883 43.5136 5.68883 43.6296 5.69692C43.9213 5.69692 44.213 5.69692 44.5048 5.69692H44.6101C44.7884 5.69692 44.8208 5.69692 44.8208 5.91572C44.8208 6.32091 44.8208 6.72609 44.8208 7.12318C44.8208 7.52026 44.8208 7.93355 44.8856 8.37925C44.8856 8.57374 44.8856 8.76013 44.8856 8.95462C44.8569 9.28372 44.8983 9.61517 45.0072 9.92707C45.0342 9.9943 45.0758 10.0547 45.1291 10.1037C45.1824 10.1528 45.2459 10.1893 45.3151 10.2107C45.5111 10.2767 45.7233 10.2767 45.9194 10.2109C46.1154 10.1451 46.2846 10.0169 46.401 9.84603C46.6019 9.52348 46.7007 9.14785 46.6847 8.76823C46.6847 7.90113 46.6847 7.03404 46.6847 6.16694C46.6766 6.05633 46.6766 5.94529 46.6847 5.83468C46.6847 5.68882 46.6847 5.66451 46.8549 5.6564H47.3249C47.6409 5.6564 47.9407 5.72123 48.2568 5.71313C48.3784 5.71313 48.4108 5.71313 48.3946 5.84279C48.3662 6.31778 48.3662 6.79405 48.3946 7.26904C48.3946 7.90113 48.3946 8.54133 48.3946 9.18152C48.3875 9.72317 48.4173 10.2647 48.4837 10.8023C48.4918 10.8993 48.4918 10.9969 48.4837 11.094C48.468 11.2096 48.468 11.3268 48.4837 11.4425C48.3784 11.5802 48.354 11.6126 48.2244 11.6207L48.2568 11.6288ZM53.119 7.18801C52.7301 7.18801 52.3087 7.18801 51.9359 7.18801C51.7819 7.18801 51.7738 7.18801 51.7657 7.34198C51.7657 7.68233 51.7657 8.02269 51.7657 8.36305V8.4846C51.7657 8.77634 51.7657 9.06807 51.7657 9.35981C51.7574 9.50015 51.7574 9.64086 51.7657 9.7812C51.774 9.8664 51.809 9.94679 51.8658 10.0108C51.9226 10.0749 51.9982 10.1193 52.0818 10.1378C52.3865 10.2185 52.6988 10.2674 53.0137 10.2836H53.0704C53.1595 10.2836 53.2001 10.2836 53.192 10.4133C53.192 10.6402 53.192 10.8752 53.192 11.1021C53.192 11.329 53.192 11.4506 53.192 11.6288C53.192 11.8071 53.192 11.7828 53.0299 11.7828C52.5113 11.7828 51.9926 11.7828 51.4821 11.7828C51.2187 11.7785 50.9627 11.6951 50.7473 11.5433C50.532 11.3916 50.3673 11.1785 50.2746 10.9319C50.2157 10.7712 50.1882 10.6006 50.1936 10.4295C50.1936 9.7893 50.1936 9.141 50.1936 8.50081C50.1693 8.12032 50.1693 7.73867 50.1936 7.35818C50.1936 7.23663 50.1936 7.22042 50.0639 7.22042H49.4237C49.2617 7.22042 49.2617 7.22042 49.2617 7.05835C49.2617 6.66126 49.2617 6.24797 49.2617 5.8752V5.77796C49.2617 5.6483 49.2617 5.6483 49.3913 5.64019H50.0639C50.307 5.64019 50.3151 5.68882 50.3151 5.39708C50.3151 5.2269 50.3151 5.05673 50.3151 4.88655C50.3151 4.71637 50.3151 4.44895 50.3151 4.23015C50.3151 4.01135 50.3151 4.06807 50.4772 4.06807H51.7171C51.8792 4.06807 51.8873 4.06807 51.8873 4.23015C51.8873 4.61912 51.8873 5.04052 51.8873 5.39708V5.51053C51.8873 5.57536 51.8873 5.60778 51.9764 5.60778H52.3978C52.6733 5.60778 52.957 5.60778 53.2082 5.60778C53.354 5.60778 53.354 5.60778 53.354 5.75365C53.354 6.15883 53.354 6.56402 53.354 6.97731C53.2163 7.1718 53.2082 7.1799 53.0461 7.1799L53.119 7.18801ZM7.10607 18.5332C7.01814 18.4233 6.90739 18.3337 6.78147 18.2708C6.65555 18.2078 6.51745 18.1729 6.37673 18.1686C6.01505 18.1483 5.65252 18.1483 5.29083 18.1686C5.12066 18.1686 5.09634 18.1686 5.07203 18.3712C5.06775 18.4143 5.06775 18.4577 5.07203 18.5008V19.3112V20.1702C5.07203 20.3485 5.13686 20.4052 5.30704 20.3809C5.63119 20.3404 5.96344 20.3809 6.28759 20.3809C6.40361 20.3889 6.52004 20.3889 6.63605 20.3809C6.76012 20.3693 6.87862 20.3239 6.97865 20.2496C7.07867 20.1752 7.15639 20.0749 7.20331 19.9595C7.31124 19.7038 7.34222 19.4222 7.29245 19.1491C7.27053 18.9174 7.18027 18.6974 7.03314 18.517L7.10607 18.5332ZM5.18549 16.6937C5.37187 16.6937 5.55826 16.6937 5.74464 16.6532C5.93103 16.6126 6.20656 16.6532 6.43346 16.5883C6.56489 16.5722 6.68746 16.5136 6.78254 16.4215C6.87762 16.3293 6.94 16.2087 6.9602 16.0778C7.00023 15.8255 7.00023 15.5684 6.9602 15.316C6.9415 15.1855 6.87787 15.0655 6.78025 14.9767C6.68263 14.888 6.55714 14.836 6.42536 14.8298C5.97645 14.8013 5.52582 14.8176 5.08014 14.8784C5.06354 14.8756 5.04651 14.8768 5.03047 14.8819C5.01443 14.887 4.99984 14.8959 4.98794 14.9078C4.97603 14.9197 4.96716 14.9343 4.96205 14.9503C4.95694 14.9664 4.95575 14.9834 4.95858 15C4.95454 15.0621 4.95454 15.1243 4.95858 15.1864C4.95858 15.5348 4.95858 15.8833 4.95858 16.2237C4.95858 16.329 4.95858 16.4182 4.95858 16.5073C4.95858 16.5964 5.0072 16.718 5.18549 16.6937ZM4.96668 10.1378C5.34499 10.1921 5.72728 10.2138 6.10931 10.2026C6.30786 10.1958 6.50439 10.1603 6.69278 10.0972C6.82875 10.058 6.94644 9.97184 7.02503 9.85413C7.19014 9.60327 7.25654 9.30016 7.21142 9.00324C7.16705 8.79927 7.08753 8.60458 6.97641 8.42788C6.93439 8.33824 6.86965 8.26116 6.78862 8.20429C6.70759 8.14742 6.61308 8.11275 6.5145 8.10373H6.33621H5.74464H5.06393C4.93427 8.10373 4.92617 8.10373 4.92617 8.2496C4.92617 8.54943 4.92617 8.84927 4.92617 9.141C4.90051 9.44283 4.8897 9.74573 4.89375 10.0486C4.89263 10.0593 4.89364 10.07 4.8967 10.0803C4.89977 10.0906 4.90484 10.1001 4.91163 10.1084C4.91841 10.1167 4.92677 10.1236 4.93622 10.1286C4.94567 10.1336 4.95602 10.1368 4.96668 10.1378V10.1378ZM5.03962 6.58833C5.42808 6.61669 5.81809 6.61669 6.20655 6.58833C6.35854 6.57547 6.50381 6.51997 6.62567 6.42823C6.74752 6.33648 6.841 6.2122 6.89537 6.06969C6.9728 5.87249 7.00073 5.65932 6.97672 5.44882C6.9527 5.23833 6.87747 5.03693 6.75761 4.86224C6.71395 4.78492 6.65028 4.72079 6.57328 4.67659C6.49627 4.63238 6.40879 4.60974 6.32001 4.61102C5.92073 4.58268 5.51994 4.58268 5.12066 4.61102C4.95858 4.61102 4.95048 4.61102 4.95048 4.79741V5.60778C4.95048 5.88331 4.95048 6.16694 4.95048 6.41815C4.89375 6.55592 4.89375 6.58023 5.03962 6.58833V6.58833ZM28.7187 6.88817H28.5404C28.3462 6.88567 28.1575 6.95302 28.0088 7.07797C27.86 7.20291 27.7611 7.37713 27.7301 7.56888C27.7045 7.71339 27.691 7.85975 27.6895 8.00648C27.6895 8.10373 27.7301 8.12804 27.8192 8.12804H29.4399C29.5615 8.12804 29.5939 8.12804 29.5777 7.97407C29.5569 7.77889 29.5078 7.58779 29.4318 7.40681C29.3825 7.25643 29.287 7.1254 29.159 7.03231C29.031 6.93922 28.877 6.88879 28.7187 6.88817V6.88817ZM13.5242 18.128C13.5179 17.9188 13.4394 17.7181 13.302 17.5601C13.1647 17.402 12.9769 17.2964 12.7706 17.2609C12.5259 17.2011 12.2676 17.2354 12.047 17.357C11.8264 17.4785 11.6595 17.6785 11.5793 17.9173C11.3666 18.4333 11.3464 19.0085 11.5226 19.5381C11.5904 19.7904 11.7247 20.0199 11.9116 20.2026C12.0138 20.3096 12.1434 20.3865 12.2862 20.4251C12.4291 20.4637 12.5798 20.4624 12.722 20.4214C12.9349 20.3598 13.1251 20.2372 13.2691 20.0687C13.4131 19.9002 13.5046 19.6932 13.5323 19.4733C13.5692 19.1718 13.5692 18.8671 13.5323 18.5656C13.5242 18.4441 13.5323 18.2901 13.5242 18.128Z" fill="#212E44"/>
</svg>
