<svg width="140" height="31" viewBox="0 0 140 31" fill="none" xmlns="http://www.w3.org/2000/svg">
<path d="M61.3057 6.28544C60.1467 5.87596 58.9018 5.77221 57.691 5.98422C56.9551 6.0837 56.2468 6.3306 55.6084 6.71014C54.9701 7.08969 54.4149 7.59408 53.976 8.19316C53.1501 9.21725 52.7413 10.5154 52.8314 11.8279C52.8418 11.9749 52.8418 12.1226 52.8314 12.2697C52.8022 13.0761 52.9507 13.8792 53.2665 14.6218C53.5823 15.3645 54.0576 16.0286 54.6588 16.567C55.5835 17.4134 56.763 17.929 58.0123 18.033C59.4312 18.2407 60.8788 17.9723 62.129 17.2699C62.8641 16.8577 63.4935 16.2803 63.9674 15.5833C64.4413 14.8864 64.7469 14.0888 64.86 13.2536C64.9261 12.5859 64.9261 11.9133 64.86 11.2455C64.7982 10.167 64.4313 9.12822 63.802 8.25011C63.1728 7.372 62.3071 6.69068 61.3057 6.28544V6.28544ZM60.8639 15.4626C60.08 15.9745 59.1288 16.1641 58.2085 15.992C57.2882 15.82 56.4698 15.2994 55.9239 14.5388C55.4738 13.9351 55.1936 13.2219 55.1124 12.4732C55.0311 11.7246 55.1519 10.9678 55.462 10.2816C55.8314 9.42169 56.515 8.73511 57.3733 8.36194C58.2315 7.98877 59.1999 7.95713 60.0807 8.27348C60.8483 8.54072 61.5092 9.04857 61.9651 9.72153C62.421 10.3945 62.6475 11.1966 62.6109 12.0086C62.6586 12.6884 62.5213 13.3684 62.2137 13.9765C61.9061 14.5846 61.4397 15.0981 60.8639 15.4626V15.4626ZM31.746 4.45804H27.2478C27.0031 4.46062 26.7649 4.53767 26.5651 4.67894C26.3452 4.83434 26.1738 5.04884 26.0707 5.2976C25.9676 5.54637 25.9371 5.81924 25.9827 6.08462C25.9559 7.50273 25.554 8.88844 24.818 10.1009C24.1353 11.3247 23.276 12.4411 22.2677 13.4143C21.2034 14.5188 20.0587 15.5831 18.9944 16.7076C18.1136 17.5926 17.2887 18.5316 16.5244 19.519C16.2483 19.2593 15.9868 18.9844 15.7413 18.6957C15.1991 18.033 14.6769 17.4305 14.0745 16.8482C12.709 15.4425 11.243 14.0167 9.93777 12.591C8.99874 11.5739 8.22614 10.415 7.6485 9.15706C7.21296 8.10585 6.98126 6.98141 6.96574 5.84365C6.96574 5.02032 6.46371 4.45804 5.7207 4.45804C4.15436 4.45804 2.58802 4.45804 1.02168 4.45804C0.756782 4.47289 0.506977 4.58614 0.321237 4.77559C0.135497 4.96505 0.0272155 5.21704 0.0176192 5.48219C-0.0355864 6.51066 0.03181 7.54182 0.218432 8.55462C0.479488 9.4382 0.620057 10.3619 0.961439 11.2254C1.35627 12.2661 1.84703 13.2678 2.42737 14.2175C3.82726 16.3379 5.46442 18.2918 7.30712 20.0411C8.61411 21.2249 9.83544 22.4999 10.9619 23.8565C11.6633 24.7808 12.2125 25.8113 12.5885 26.9089C12.709 27.2671 12.7898 27.6375 12.8295 28.0134V30.2424C12.8268 30.3258 12.8409 30.4089 12.871 30.4868C12.901 30.5647 12.9465 30.6357 13.0045 30.6956C13.0626 30.7556 13.1322 30.8032 13.209 30.8358C13.2859 30.8683 13.3685 30.885 13.452 30.885H19.4764C19.5598 30.885 19.6425 30.8683 19.7193 30.8358C19.7962 30.8032 19.8657 30.7556 19.9238 30.6956C19.9819 30.6357 20.0273 30.5647 20.0574 30.4868C20.0875 30.4089 20.1016 30.3258 20.0989 30.2424V27.8126C20.0989 27.8126 20.0989 27.672 20.0989 27.6117C20.3943 26.2994 20.9697 25.0664 21.7857 23.9971C22.9926 22.4346 24.3367 20.9829 25.802 19.6596C27.05 18.5245 28.2238 17.3104 29.3162 16.0249C30.7139 14.3005 31.7518 12.3135 32.3685 10.1812C32.7697 8.7429 32.9724 7.25652 32.971 5.76332C32.9919 5.5938 32.9753 5.42174 32.9223 5.25936C32.8693 5.09697 32.7812 4.94823 32.6643 4.82368C32.5474 4.69912 32.4046 4.6018 32.2459 4.53862C32.0872 4.47543 31.9165 4.44792 31.746 4.45804V4.45804ZM63.2335 27.4109C62.7716 26.0856 62.2093 24.8004 61.7073 23.4951C61.6348 23.2897 61.5022 23.1109 61.3267 22.982C61.1512 22.853 60.9409 22.7799 60.7233 22.7722C60.4846 22.7271 60.2377 22.7719 60.0301 22.898C59.8225 23.024 59.6689 23.2224 59.5987 23.4549C59.3578 24.0975 59.1168 24.7401 58.8557 25.463C58.2332 26.9691 57.7714 28.5355 57.0886 30.0014C57.0099 30.1131 56.9677 30.2464 56.9677 30.383C56.9677 30.5196 57.0099 30.6528 57.0886 30.7645C57.2037 30.8752 57.3478 30.9509 57.5042 30.9829C57.6606 31.0149 57.8229 31.0018 57.9722 30.9452C58.0887 30.8998 58.1939 30.8295 58.2806 30.7394C58.3672 30.6492 58.4333 30.5413 58.4742 30.4231C58.6549 30.0014 58.8357 29.5797 58.9762 29.1379C59.0007 29.0049 59.074 28.8859 59.1818 28.8041C59.2895 28.7224 59.4239 28.6839 59.5586 28.6961H61.5667C61.7014 28.6839 61.8358 28.7224 61.9435 28.8041C62.0513 28.8859 62.1246 29.0049 62.1491 29.1379C62.3097 29.6199 62.5306 30.1018 62.7314 30.5637C62.8319 30.7356 62.9888 30.8676 63.1755 30.9371C63.3621 31.0066 63.567 31.0095 63.7556 30.9452C64.1371 30.8448 64.2375 30.6039 64.1572 30.0817C64.1262 29.9518 64.0859 29.8243 64.0367 29.7002C63.8158 28.8969 63.4945 28.0736 63.2335 27.4109ZM61.2253 27.4109C60.9781 27.4309 60.7296 27.4309 60.4823 27.4109C59.3779 27.4109 59.3176 27.4109 59.8196 26.2663C60.0004 25.8647 60.1209 25.443 60.2815 25.0213C60.4422 24.5996 60.4221 24.6799 60.643 24.6799C60.8639 24.6799 60.8438 24.9008 60.904 25.0413C61.145 25.6036 61.2655 26.2261 61.5265 26.8085C61.7876 27.3909 61.627 27.3708 61.2655 27.431L61.2253 27.4109ZM54.2973 29.5395H51.1847C50.6626 29.5395 50.6023 29.4191 50.5622 28.8969C50.5315 28.5227 50.5315 28.1466 50.5622 27.7724C50.5622 27.6819 50.5981 27.595 50.6622 27.531C50.7262 27.467 50.813 27.431 50.9036 27.431H53.3936C53.4861 27.4714 53.5872 27.4879 53.6877 27.479C53.7882 27.4701 53.8849 27.4361 53.9689 27.3802C54.0528 27.3242 54.1214 27.248 54.1682 27.1587C54.2151 27.0693 54.2388 26.9696 54.237 26.8687C54.2611 26.7123 54.2247 26.5525 54.1352 26.4219C54.0457 26.2913 53.9097 26.1998 53.7551 26.1659C53.5823 26.1363 53.4058 26.1363 53.233 26.1659H51.4859C50.8232 26.1659 50.7027 26.0253 50.7429 25.3827C50.7535 25.2491 50.7535 25.1148 50.7429 24.9811C50.7429 24.2983 50.7429 24.2783 51.4658 24.2783H54.4178C54.5024 24.2901 54.5887 24.2832 54.6703 24.258C54.752 24.2328 54.8272 24.19 54.8904 24.1325C54.9537 24.075 55.0035 24.0042 55.0363 23.9253C55.0692 23.8464 55.0842 23.7612 55.0805 23.6758C55.0805 23.2139 54.8395 22.9529 54.2571 22.9529H50.2409C49.4175 22.9529 49.1163 23.2742 49.1163 24.0975V26.8487C49.1163 27.7322 49.1163 28.6359 49.1163 29.5195C49.1087 29.771 49.1427 30.022 49.2167 30.2625C49.3774 30.8649 49.5179 30.9854 50.1405 30.9854H54.237C54.7993 30.9854 55.0805 30.7043 55.0604 30.2424C55.0403 29.7805 54.8997 29.5797 54.3375 29.5596L54.2973 29.5395ZM16.7453 11.3258C17.4962 11.3474 18.2437 11.2177 18.9434 10.9446C19.6432 10.6714 20.2808 10.2603 20.8185 9.73576C21.3562 9.2112 21.7829 8.58389 22.0732 7.89111C22.3636 7.19833 22.5116 6.45424 22.5086 5.70308C22.5086 4.19053 21.9078 2.73993 20.8382 1.67039C19.7687 0.600859 18.3181 0 16.8056 0C15.293 0 13.8424 0.600859 12.7729 1.67039C11.7033 2.73993 11.1025 4.19053 11.1025 5.70308C11.0944 6.44542 11.2349 7.18188 11.5159 7.86905C11.7968 8.55622 12.2125 9.18019 12.7384 9.7042C13.2643 10.2282 13.8897 10.6417 14.5779 10.9202C15.2661 11.1987 16.003 11.3366 16.7453 11.3258ZM42.7104 17.7318C44.8114 18.4247 47.0986 18.2809 49.0962 17.3301C50.0701 16.8724 50.8823 16.1302 51.4257 15.2015C51.5291 15.0328 51.5958 14.8442 51.6214 14.6479C51.6469 14.4516 51.6307 14.2522 51.5738 14.0626C51.517 13.8731 51.4207 13.6977 51.2914 13.5479C51.162 13.3981 51.0025 13.2773 50.8232 13.1934C50.261 12.9323 49.9397 13.0127 49.6585 13.5549C49.2856 14.2496 48.6921 14.8007 47.9717 15.1212C47.3599 15.4469 46.6878 15.6435 45.9969 15.6988C45.3061 15.7541 44.6112 15.6668 43.9554 15.4425C42.8028 15.0716 41.8248 14.2934 41.2043 13.2536C40.5835 12.2208 40.2961 11.0218 40.381 9.81974C40.3283 9.09333 40.4451 8.36462 40.7224 7.69113C41.012 6.84055 41.517 6.07951 42.1883 5.48219C43.0323 4.81021 44.0613 4.41173 45.1377 4.33997C46.2142 4.2682 47.2869 4.52657 48.2127 5.08056C48.7409 5.3745 49.1997 5.77856 49.5581 6.26536C49.8192 6.68706 50.0802 6.76739 50.3814 6.6469C50.6077 6.5784 50.8141 6.45618 50.9829 6.29067C51.1518 6.12516 51.2781 5.92127 51.3511 5.69639C51.424 5.47151 51.4416 5.23231 51.4021 4.9992C51.3626 4.76608 51.2674 4.54597 51.1245 4.35764C50.5197 3.46359 49.6376 2.79325 48.6143 2.44991C47.0404 1.84014 45.3202 1.71428 43.6743 2.08845C42.3302 2.35884 41.0825 2.9827 40.0597 3.89577C39.4285 4.47241 38.8989 5.15129 38.4933 5.90389C37.8276 7.20083 37.4963 8.64345 37.5294 10.1009C37.5294 11.35 37.8036 12.5839 38.3327 13.7155C38.7307 14.6604 39.3277 15.5083 40.0832 16.2014C40.8387 16.8945 41.7348 17.4165 42.7104 17.7318V17.7318ZM46.2045 23.2943C46.1836 23.16 46.1192 23.0363 46.0213 22.942C45.9234 22.8477 45.7973 22.7881 45.6623 22.7722C45.5521 22.7295 45.4326 22.7162 45.3156 22.7335C45.1987 22.7509 45.0882 22.7983 44.9951 22.8712C44.902 22.9441 44.8294 23.0399 44.7844 23.1493C44.7395 23.2586 44.7237 23.3778 44.7386 23.4951C44.7386 24.2381 44.7386 24.961 44.7386 25.704C44.7386 26.1458 44.7386 26.2061 44.2366 26.2061H41.5256C41.0637 26.2061 41.0437 26.2061 41.0035 25.704V25.1618C41.0035 24.6397 41.0035 24.1377 41.0035 23.6156C41.0118 23.5051 40.9972 23.3942 40.9605 23.2897C40.9239 23.1851 40.8661 23.0893 40.7906 23.0082C40.7152 22.9271 40.6238 22.8625 40.5222 22.8184C40.4206 22.7744 40.311 22.7518 40.2002 22.7521C39.7183 22.7521 39.4773 23.0131 39.4572 23.5754C39.4475 23.689 39.4475 23.8032 39.4572 23.9168V28.6761C39.4572 29.1781 39.4572 29.66 39.4572 30.1621C39.4533 30.2677 39.4725 30.373 39.5137 30.4704C39.5548 30.5679 39.6168 30.6551 39.6953 30.7259C39.7738 30.7968 39.8669 30.8495 39.968 30.8805C40.0692 30.9114 40.1758 30.9198 40.2806 30.9051C40.8428 30.9051 41.0035 30.7243 41.0035 30.1219C41.0035 29.5195 41.0035 28.8166 41.0035 28.1138C41.0035 27.4109 41.0035 27.4913 41.6059 27.4913H44.0157C44.6784 27.4913 44.7587 27.4913 44.7587 28.2744C44.7587 29.0576 44.7587 29.4793 44.7587 30.0817C44.7587 30.6842 45.2005 30.9653 45.823 30.7846C46.4455 30.6039 46.2246 30.383 46.2447 30.0416C46.2447 28.0335 46.1443 25.8446 46.2447 23.7561C46.2552 23.601 46.2417 23.4452 46.2045 23.2943V23.2943ZM66.828 13.5348C66.828 14.5188 66.828 15.5429 66.828 16.4867C66.828 17.4305 67.2497 17.8924 68.1132 17.792H68.5952C68.7854 17.7757 68.9645 17.6953 69.1031 17.564C69.2417 17.4326 69.3317 17.2582 69.3582 17.0691C69.3682 16.8885 69.3682 16.7075 69.3582 16.5269V10.6632C69.3512 10.4342 69.3994 10.2069 69.4988 10.0005C69.787 9.47678 70.2076 9.03793 70.7186 8.72781C71.2296 8.41769 71.813 8.24718 72.4106 8.23332C72.7953 8.19307 73.1838 8.2555 73.5366 8.41423C73.8893 8.57297 74.1937 8.82235 74.4187 9.13698C74.8535 9.71262 75.0673 10.4252 75.0212 11.1451C75.0212 12.8922 75.0212 14.6392 75.0212 16.3863C75.0212 17.6715 75.3625 17.9727 76.6477 17.8723C76.8626 17.8743 77.0709 17.798 77.2335 17.6575C77.3961 17.517 77.502 17.3221 77.5313 17.1092C77.5518 16.956 77.5518 16.8007 77.5313 16.6474C77.5313 14.6392 77.5313 12.6311 77.5313 10.623C77.5428 9.87863 77.3992 9.14002 77.1096 8.45421C76.895 7.90919 76.5505 7.42486 76.106 7.04337C75.6615 6.66188 75.1306 6.3948 74.5593 6.26536C73.7545 6.01373 72.8981 5.97583 72.0742 6.15539C71.2503 6.33495 70.4874 6.72579 69.8603 7.2895C69.4988 7.63088 69.3984 7.59072 69.1775 7.14893C69.1496 7.06304 69.109 6.98181 69.057 6.90796C68.8932 6.62268 68.6357 6.40284 68.3283 6.28572C68.0208 6.1686 67.6823 6.16141 67.3702 6.26536C66.9686 6.36576 66.828 6.6469 66.828 7.40999V13.5348V13.5348ZM103.958 6.94812C103.943 6.78386 103.879 6.62783 103.775 6.49933C103.672 6.37083 103.533 6.27552 103.376 6.22519C103.184 6.12119 102.968 6.07024 102.75 6.07758C102.532 6.08493 102.32 6.15031 102.136 6.26698C101.952 6.38365 101.802 6.54737 101.703 6.74124C101.603 6.93512 101.556 7.15211 101.569 7.36983C101.569 9.37795 101.569 11.2656 101.569 13.2135C101.567 13.6093 101.469 13.9987 101.283 14.3484C101.098 14.6981 100.831 14.9978 100.504 15.2216C99.9212 15.6506 99.2199 15.889 98.4962 15.9044C97.9343 15.9338 97.3807 15.7589 96.9377 15.4119C96.4947 15.0649 96.1924 14.5693 96.0864 14.0167C95.9086 13.4103 95.8206 12.7811 95.8254 12.1492V7.20918C95.8496 7.03173 95.8205 6.85109 95.7418 6.6902C95.6632 6.5293 95.5385 6.39541 95.3836 6.30552C95.1699 6.18214 94.9275 6.11719 94.6807 6.11719C94.434 6.11719 94.1916 6.18214 93.9779 6.30552C93.7699 6.41702 93.603 6.59221 93.5019 6.80543C93.4007 7.01864 93.3704 7.25867 93.4156 7.49031V11.607C93.3551 12.6125 93.3954 13.6216 93.5361 14.6192C93.6681 15.595 94.1541 16.4883 94.9016 17.1293C95.5404 17.655 96.3258 17.9706 97.1507 18.033C97.8693 18.164 98.6089 18.1211 99.3075 17.908C100.006 17.6949 100.644 17.3178 101.167 16.808C101.508 16.4666 101.569 16.4666 101.749 16.9285C101.858 17.2239 102.059 17.4759 102.324 17.6462C102.589 17.8166 102.901 17.8959 103.215 17.8723C103.878 17.8723 104.079 17.6916 104.079 17.0088V7.63088C103.998 7.40999 103.978 7.16901 103.958 6.94812ZM113.095 5.98422C111.638 5.69619 110.125 5.94587 108.838 6.68706C107.719 7.37796 106.875 8.43539 106.448 9.67917C106.107 10.6997 105.99 11.7822 106.107 12.852C106.139 13.9104 106.486 14.9351 107.105 15.7941C107.725 16.6531 108.587 17.307 109.581 17.6715C111.312 18.344 113.232 18.344 114.963 17.6715C115.781 17.4295 116.491 16.9115 116.971 16.2056C117.119 16.0476 117.221 15.8528 117.268 15.6415C117.314 15.4303 117.303 15.2104 117.235 15.005C117.167 14.7996 117.046 14.6162 116.882 14.4741C116.719 14.332 116.521 14.2365 116.308 14.1975C116.256 14.1649 116.197 14.1433 116.136 14.1338C116.075 14.1242 116.013 14.127 115.953 14.142C115.893 14.157 115.837 14.1838 115.787 14.221C115.738 14.2581 115.697 14.3047 115.666 14.3581C115.256 14.9323 114.703 15.3886 114.062 15.6812C113.42 15.9738 112.713 16.0923 112.011 16.0249C111.233 16.0214 110.474 15.7787 109.838 15.3297C109.202 14.8807 108.72 14.2471 108.456 13.5147C108.296 12.8922 108.356 12.7717 108.979 12.7717H116.489C117.172 12.7717 117.513 12.4705 117.493 11.8078C117.52 10.7757 117.307 9.75139 116.871 8.81568C116.516 8.07455 115.987 7.43007 115.33 6.93709C114.673 6.44411 113.906 6.11721 113.095 5.98422V5.98422ZM114.742 10.9443H108.918C108.396 10.9443 108.296 10.7836 108.477 10.3419C108.671 9.719 109.029 9.15958 109.513 8.7217C109.996 8.28382 110.589 7.98345 111.228 7.85178C111.954 7.68417 112.716 7.78248 113.375 8.12885C114.035 8.47522 114.548 9.04668 114.822 9.73942L115.063 10.4423C115.086 10.4963 115.095 10.5551 115.09 10.6136C115.085 10.6721 115.066 10.7284 115.035 10.7779C115.003 10.8273 114.96 10.8683 114.909 10.8973C114.858 10.9263 114.801 10.9424 114.742 10.9443V10.9443ZM126.791 6.02438C125.998 5.81937 125.165 5.82255 124.373 6.03363C123.582 6.24471 122.858 6.65654 122.272 7.22926C122.011 7.51039 121.911 7.47023 121.73 7.02844C121.692 6.85089 121.619 6.68269 121.516 6.53367C121.412 6.38466 121.279 6.25783 121.126 6.16059C120.973 6.06336 120.802 5.99768 120.623 5.9674C120.444 5.93711 120.26 5.94283 120.084 5.98422C119.461 5.98422 119.32 6.18503 119.32 6.80755V11.7877V16.2859C119.32 17.6314 119.582 17.8723 120.947 17.7719C121.157 17.7668 121.359 17.6905 121.519 17.5554C121.68 17.4204 121.79 17.2347 121.831 17.0289C121.85 16.8688 121.85 16.707 121.831 16.547V10.5226C121.808 10.2537 121.857 9.98374 121.971 9.73942C122.251 9.26385 122.642 8.86354 123.11 8.57312C123.579 8.2827 124.112 8.11092 124.662 8.07267C125.025 8.02009 125.396 8.05258 125.744 8.16758C126.093 8.28258 126.41 8.47694 126.67 8.73535C126.915 8.98046 127.108 9.27181 127.239 9.59244C127.37 9.91307 127.436 10.2566 127.433 10.6029C127.433 12.4906 127.433 14.3581 127.433 16.2457C127.433 17.4105 127.815 17.7518 128.98 17.7117C129.108 17.7319 129.239 17.7242 129.364 17.6892C129.489 17.6542 129.605 17.5927 129.704 17.5089C129.803 17.425 129.883 17.3208 129.938 17.2034C129.993 17.0859 130.022 16.9579 130.024 16.8281C130.044 16.6278 130.044 16.426 130.024 16.2257C130.024 14.4786 130.024 12.7315 130.024 11.0045C130.039 10.0848 129.875 9.17098 129.542 8.31365C129.317 7.71037 128.937 7.17723 128.439 6.76818C127.942 6.35913 127.346 6.08868 126.71 5.98422L126.791 6.02438ZM139.402 15.8441C139.389 15.7288 139.344 15.6194 139.271 15.5293C139.198 15.4391 139.1 15.372 138.99 15.3359C138.88 15.2999 138.761 15.2965 138.649 15.326C138.537 15.3556 138.436 15.417 138.357 15.5027C138.099 15.7181 137.798 15.8756 137.474 15.9646C137.317 16.022 137.15 16.0478 136.984 16.0405C136.817 16.0332 136.653 15.9929 136.502 15.922C136.35 15.851 136.215 15.7508 136.102 15.6272C135.99 15.5035 135.903 15.3589 135.847 15.2015C135.668 14.8297 135.559 14.4281 135.526 14.0167C135.526 12.35 135.526 10.6632 135.526 8.99641C135.526 8.33373 135.526 8.31365 136.209 8.31365C136.892 8.31365 137.474 8.31365 138.096 8.31365C138.286 8.32554 138.475 8.28659 138.644 8.20081C138.814 8.11504 138.957 7.98556 139.059 7.8258C139.162 7.66604 139.219 7.48181 139.227 7.29218C139.234 7.10255 139.19 6.91443 139.1 6.74731C139.023 6.54884 138.883 6.38085 138.702 6.2686C138.521 6.15634 138.309 6.10588 138.096 6.12479C137.434 6.12479 136.791 6.12479 136.088 6.12479C135.385 6.12479 135.486 6.12479 135.486 5.52235C135.486 4.91991 135.486 4.69902 135.486 4.29739C135.499 4.18529 135.488 4.07161 135.454 3.96416C135.419 3.85671 135.361 3.75803 135.285 3.67487C135.098 3.49783 134.868 3.37307 134.618 3.31314C134.368 3.25322 134.106 3.26024 133.859 3.33349C133.627 3.36704 133.414 3.48265 133.259 3.65943C133.105 3.83621 133.018 4.0625 133.016 4.29739C132.986 4.69845 132.986 5.10121 133.016 5.50227C133.016 5.98422 133.016 6.10471 132.454 6.12479C132.169 6.1261 131.889 6.1877 131.63 6.30552C131.148 6.50633 131.148 6.88788 131.148 7.30958C131.115 7.49765 131.147 7.69144 131.238 7.85925C131.329 8.02705 131.474 8.15894 131.65 8.23332C131.943 8.32238 132.248 8.36308 132.554 8.35381C132.976 8.35381 133.056 8.4743 133.016 8.85584C132.895 9.90007 133.016 10.864 133.016 11.8078C133.016 12.7516 133.016 13.5147 133.016 14.2778C132.996 14.8631 133.077 15.4474 133.257 16.0048C133.36 16.4037 133.553 16.7739 133.821 17.0871C134.089 17.4002 134.425 17.6482 134.803 17.8121C135.182 17.9871 135.591 18.0893 136.008 18.1133C136.517 18.2011 137.038 18.1784 137.537 18.0468C138.036 17.9151 138.501 17.6775 138.9 17.3502C139.105 17.1646 139.254 16.9246 139.328 16.6581C139.403 16.3916 139.4 16.1094 139.321 15.8441H139.402ZM78.5755 22.8726H72.9327C72.8266 22.852 72.7175 22.852 72.6114 22.8726C72.4618 22.9273 72.3378 23.0357 72.2636 23.1767C72.1894 23.3177 72.1702 23.4813 72.2098 23.6357C72.2196 23.7072 72.2436 23.776 72.2803 23.8382C72.3171 23.9003 72.3659 23.9545 72.4239 23.9975C72.4819 24.0405 72.5479 24.0716 72.618 24.0887C72.6881 24.1059 72.761 24.1089 72.8323 24.0975H74.3183C74.6798 24.0975 74.8806 24.0975 74.8605 24.5996C74.8713 24.7533 74.8713 24.9077 74.8605 25.0614C74.74 26.5675 74.8605 28.0937 74.8605 29.6199C74.8383 29.9083 74.9242 30.1946 75.1015 30.4231C75.188 30.5928 75.3349 30.724 75.5133 30.7909C75.6917 30.8578 75.8886 30.8555 76.0654 30.7846C76.467 30.6842 76.5473 30.5436 76.5473 30.0215C76.5473 29.158 76.5473 28.2744 76.5473 27.4109V24.8004C76.5473 24.1176 76.5473 24.0975 77.21 24.0975H78.5555C79.0776 24.0975 79.2985 23.7361 79.1579 23.2139C79.112 23.0831 79.0178 22.9748 78.8945 22.9113C78.7713 22.8478 78.6284 22.8339 78.4952 22.8726H78.5755ZM71.5672 29.5998C71.3752 29.5591 71.1768 29.5591 70.9848 29.5998H68.555C67.9726 29.5998 67.8923 29.5998 67.8923 28.9371V23.5352C67.8923 23.0734 67.6714 22.8926 67.2296 22.8525C66.7878 22.8123 66.4063 23.0131 66.4063 23.5955V26.7483C66.4063 27.7724 66.4063 28.7564 66.4063 29.7805C66.3747 29.934 66.3811 30.0928 66.4247 30.2432C66.4684 30.3937 66.548 30.5312 66.6568 30.644C66.7656 30.7567 66.9002 30.8412 67.049 30.8902C67.1978 30.9392 67.3563 30.9512 67.5108 30.9252C68.6554 30.9252 69.8 30.9252 70.9447 30.9252H71.3463C71.7078 30.9252 71.8282 30.644 71.8885 30.3428C71.9272 30.1911 71.9074 30.0305 71.833 29.8928C71.7585 29.7551 71.635 29.6505 71.4869 29.5998H71.5672ZM81.4873 17.6715C81.7283 17.8322 82.0094 17.6715 82.2705 17.792C82.4417 17.8234 82.618 17.8131 82.7845 17.762C82.9509 17.7108 83.1025 17.6204 83.2266 17.4983C83.3507 17.3762 83.4436 17.226 83.4974 17.0604C83.5511 16.8948 83.5643 16.7187 83.5356 16.547C83.5356 15.322 83.5356 14.077 83.5356 12.852C83.5356 11.6271 83.5356 10.382 83.5356 9.15706C83.5356 8.33373 83.5356 8.33373 84.3389 8.33373H85.2827C85.4321 8.33414 85.58 8.30366 85.7171 8.24421C85.8542 8.18477 85.9775 8.09763 86.0793 7.98826C86.1811 7.8789 86.2593 7.74968 86.3088 7.6087C86.3583 7.46772 86.3781 7.31803 86.3671 7.16901C86.3671 6.52641 85.9052 6.12479 85.1622 6.10471H83.8971C83.5959 6.10471 83.4352 5.96414 83.4352 5.66292C83.4187 5.23873 83.4524 4.81407 83.5356 4.3978C83.5757 4.06245 83.7405 3.75444 83.9972 3.53495C84.2539 3.31546 84.5837 3.20053 84.9212 3.213C85.4371 3.22725 85.9385 3.38739 86.3671 3.67487C86.7285 3.89577 86.9093 3.83552 87.1101 3.45398C87.2251 3.29076 87.3023 3.104 87.3361 2.90724C87.3699 2.71049 87.3596 2.50867 87.3057 2.31641C87.2519 2.12416 87.156 1.9463 87.0249 1.79573C86.8938 1.64515 86.7308 1.52564 86.5478 1.44585C85.6551 1.0354 84.6487 0.943267 83.6963 1.18479C83.2518 1.24661 82.8272 1.40896 82.4549 1.6595C82.0826 1.91004 81.7723 2.24217 81.5476 2.63065C81.1851 3.24176 80.9718 3.92976 80.9251 4.63877C80.9251 5.00024 80.9251 5.3617 80.9251 5.72316C80.9317 5.77219 80.9269 5.82209 80.9111 5.86896C80.8953 5.91584 80.8688 5.95843 80.8338 5.99342C80.7989 6.0284 80.7563 6.05483 80.7094 6.07065C80.6625 6.08647 80.6126 6.09126 80.5636 6.08462C80.2624 6.08462 79.9612 6.08462 79.68 6.08462C79.4683 6.06904 79.2569 6.11835 79.0739 6.22598C78.8909 6.33361 78.7451 6.49445 78.6559 6.68706C78.3948 7.40999 78.6559 8.2534 79.6399 8.31365H80.0415C80.9451 8.31365 80.9451 8.31365 80.9451 9.23738C80.9451 11.7074 80.9451 14.1573 80.9451 16.6273C80.9298 16.826 80.9639 17.0254 81.0445 17.2076C81.1251 17.3898 81.2497 17.5492 81.407 17.6715H81.4873ZM89.7608 1.2852C88.9375 1.00406 88.3953 1.2852 88.3953 2.2491C88.3953 6.98828 88.3953 11.7275 88.3953 16.4466C88.3953 17.5109 88.7166 17.8522 89.801 17.792C89.9501 17.8003 90.0993 17.7778 90.2393 17.7257C90.3792 17.6737 90.5069 17.5933 90.6144 17.4896C90.7219 17.386 90.8067 17.2612 90.8637 17.1232C90.9207 16.9851 90.9486 16.8368 90.9456 16.6875C90.9456 16.4867 90.9456 16.2859 90.9456 16.0851V3.7552C90.957 3.24272 90.8754 2.73242 90.7046 2.2491C90.6345 2.02537 90.5124 1.82141 90.3484 1.65388C90.1844 1.48635 89.983 1.36002 89.7608 1.2852V1.2852ZM87.7527 23.0533C87.6681 22.9311 87.5448 22.841 87.4028 22.7973C87.2608 22.7536 87.1082 22.7589 86.9695 22.8123C86.7085 22.9328 86.4072 23.0734 86.4273 23.475C86.4474 23.8766 86.4273 24.8606 86.4273 25.4831C86.4273 26.1056 86.4273 26.1458 85.7446 26.1458H83.7364C82.6922 26.1458 82.7525 26.2663 82.7525 25.1217C82.7525 24.6196 82.7525 24.0975 82.7525 23.5754C82.7525 23.0533 82.4914 22.732 82.1099 22.7119C81.8947 22.7008 81.6838 22.7746 81.5224 22.9172C81.3609 23.0599 81.2618 23.2601 81.2464 23.475C81.2255 23.6484 81.2255 23.8237 81.2464 23.9971C81.2464 25.8245 81.2464 27.672 81.2464 29.4994C81.2167 29.7663 81.2167 30.0357 81.2464 30.3026C81.3668 30.7645 81.4873 30.8448 81.9492 30.8448C82.4111 30.8448 82.7123 30.6039 82.7324 30.0617C82.7524 29.5195 82.7324 28.7564 82.7324 28.0535C82.7324 27.3507 82.8529 27.431 83.3549 27.4109H85.7646C86.4072 27.4109 86.4675 27.4109 86.4876 28.1138C86.5077 28.8166 86.4876 29.399 86.4876 30.1219C86.466 30.2672 86.4965 30.4154 86.5737 30.5403C86.6509 30.6652 86.7697 30.7589 86.9093 30.8047C87.5318 31.0055 87.9334 30.8047 87.9334 30.0817C87.9334 28.9974 87.9334 27.8929 87.9334 26.8085V23.6959C87.9574 23.4665 87.8927 23.2366 87.7527 23.0533V23.0533Z" fill="#212E44"/>
</svg>
