<svg width="141" height="20" viewBox="0 0 141 20" fill="none" xmlns="http://www.w3.org/2000/svg">
<path d="M5.93519 0.637985H0V15.4663H5.93519C6.90025 15.4695 7.85603 15.2779 8.74529 14.903C9.63456 14.5281 10.439 13.9776 11.1105 13.2844C11.782 12.5913 12.3067 11.7698 12.6532 10.869C12.9997 9.96832 13.1608 9.00694 13.127 8.04247C13.1582 7.0796 12.9951 6.12031 12.6474 5.22186C12.2997 4.32341 11.7746 3.50421 11.1033 2.81315C10.4321 2.12208 9.62857 1.57332 8.74063 1.1996C7.85269 0.82589 6.89857 0.634884 5.93519 0.637985V0.637985ZM5.93519 12.2377H3.38325V3.86657H5.93519C6.46831 3.86507 6.99598 3.97383 7.48505 4.18602C7.97412 4.39821 8.41403 4.70925 8.77714 5.09959C9.14025 5.48994 9.41871 5.95115 9.59504 6.45427C9.77137 6.95738 9.84175 7.49152 9.80176 8.02314C9.84456 8.55631 9.77627 9.09255 9.60121 9.59797C9.42615 10.1034 9.14813 10.567 8.78473 10.9595C8.42132 11.3519 7.98045 11.6647 7.48996 11.8781C6.99948 12.0915 6.47007 12.2008 5.93519 12.199V12.2377ZM15.215 15.4663H18.3856V4.87188H15.215V15.4663ZM16.8003 0.13533C16.2875 0.13533 15.7958 0.339015 15.4332 0.701577C15.0707 1.06414 14.867 1.55588 14.867 2.06862C14.867 2.58136 15.0707 3.0731 15.4332 3.43566C15.7958 3.79822 16.2875 4.0019 16.8003 4.0019C17.313 4.0019 17.8047 3.79822 18.1673 3.43566C18.5299 3.0731 18.7335 2.58136 18.7335 2.06862C18.7335 1.55588 18.5299 1.06414 18.1673 0.701577C17.8047 0.339015 17.313 0.13533 16.8003 0.13533V0.13533ZM28.7866 5.93519C28.4108 5.48333 27.9368 5.1231 27.4008 4.8819C26.8648 4.6407 26.2809 4.52487 25.6934 4.54322C24.9937 4.548 24.3021 4.69287 23.6594 4.96928C23.0166 5.24569 22.4357 5.64804 21.951 6.15259C21.4663 6.65714 21.0875 7.25367 20.8371 7.90698C20.5866 8.56029 20.4696 9.25715 20.4928 9.95643C20.4722 10.6532 20.5913 11.347 20.8431 11.997C21.095 12.647 21.4745 13.24 21.9592 13.7409C22.4439 14.2419 23.0241 14.6406 23.6654 14.9137C24.3068 15.1868 24.9963 15.3287 25.6934 15.331C26.2793 15.3517 26.8623 15.2388 27.3982 15.001C27.9341 14.7632 28.4089 14.4067 28.7866 13.9583V14.925C28.8131 15.2406 28.768 15.5581 28.6548 15.8538C28.5416 16.1496 28.3632 16.4161 28.1329 16.6334C27.9025 16.8508 27.6262 17.0134 27.3243 17.1092C27.0225 17.2051 26.7029 17.2316 26.3894 17.1869C25.8989 17.2351 25.4053 17.1334 24.9739 16.8953C24.5424 16.6571 24.1933 16.2937 23.9728 15.853L21.2662 17.3996C21.7863 18.2492 22.5308 18.9388 23.4176 19.3925C24.3045 19.8461 25.2994 20.0463 26.2927 19.9709C27.001 20.0473 27.7174 19.9729 28.3949 19.7526C29.0724 19.5322 29.6955 19.1709 30.2233 18.6924C30.7511 18.214 31.1716 17.6291 31.4571 16.9764C31.7427 16.3238 31.8867 15.618 31.8799 14.9056V4.87188H28.7866V5.93519ZM26.2154 12.4117C25.8828 12.4333 25.5495 12.3854 25.2365 12.2709C24.9236 12.1565 24.6379 11.978 24.3978 11.747C24.1577 11.516 23.9683 11.2374 23.8419 10.9291C23.7154 10.6208 23.6547 10.2895 23.6634 9.95643C23.6547 9.62332 23.7154 9.29204 23.8419 8.98374C23.9683 8.67544 24.1577 8.39688 24.3978 8.16585C24.6379 7.93482 24.9236 7.75638 25.2365 7.64193C25.5495 7.52749 25.8828 7.47954 26.2154 7.50115C26.5495 7.47672 26.8849 7.52257 27.2002 7.63575C27.5155 7.74893 27.8035 7.92692 28.0458 8.15826C28.2881 8.38959 28.4792 8.66913 28.6068 8.97884C28.7344 9.28856 28.7956 9.62158 28.7866 9.95643C28.7927 10.2905 28.7294 10.6221 28.6008 10.9305C28.4721 11.2388 28.281 11.5171 28.0393 11.7478C27.7977 11.9786 27.5109 12.1567 27.1969 12.2709C26.883 12.3852 26.5488 12.4331 26.2154 12.4117V12.4117ZM34.4898 15.4663H37.6604V4.87188H34.4898V15.4663ZM36.0751 0.13533C35.5624 0.13533 35.0707 0.339015 34.7081 0.701577C34.3455 1.06414 34.1418 1.55588 34.1418 2.06862C34.1418 2.58136 34.3455 3.0731 34.7081 3.43566C35.0707 3.79822 35.5624 4.0019 36.0751 4.0019C36.5879 4.0019 37.0796 3.79822 37.4422 3.43566C37.8047 3.0731 38.0084 2.58136 38.0084 2.06862C38.0084 1.55588 37.8047 1.06414 37.4422 0.701577C37.0796 0.339015 36.5879 0.13533 36.0751 0.13533V0.13533ZM44.3109 1.93329L41.1403 2.8806V4.81388H39.4391V7.90714H41.1403V11.5997C41.1403 14.577 42.339 15.8143 46.4955 15.4663V12.5664C45.1036 12.5664 44.3109 12.5664 44.3109 11.6577V7.90714H46.4955V4.87188H44.3109V1.93329ZM56.0653 5.79986C55.6669 5.36644 55.1782 5.02579 54.6337 4.80197C54.0891 4.57815 53.5021 4.47662 52.9141 4.50456C52.2122 4.53669 51.5237 4.70761 50.8883 5.00745C50.2529 5.3073 49.6832 5.73011 49.2122 6.25145C48.7412 6.77279 48.3782 7.38232 48.1442 8.0448C47.9102 8.70729 47.8098 9.40958 47.8489 10.1111C47.8124 10.811 47.9148 11.5113 48.15 12.1715C48.3852 12.8317 48.7486 13.439 49.2194 13.9582C49.6901 14.4775 50.2589 14.8985 50.893 15.1972C51.527 15.4958 52.2139 15.6661 52.9141 15.6983C53.4977 15.7336 54.082 15.6411 54.6262 15.4274C55.1705 15.2137 55.6616 14.8839 56.0653 14.461V15.4663H59.2359V4.87188H56.0653V5.79986ZM53.5327 12.7404C53.1939 12.7546 52.8558 12.6974 52.5406 12.5725C52.2253 12.4475 51.9398 12.2576 51.7028 12.0151C51.4657 11.7726 51.2824 11.4829 51.1646 11.1648C51.0469 10.8468 50.9974 10.5075 51.0194 10.1691C50.9888 9.81921 51.0312 9.46678 51.1441 9.13418C51.257 8.80159 51.4378 8.49611 51.675 8.23715C51.9123 7.97818 52.2008 7.7714 52.5223 7.62994C52.8438 7.48847 53.1912 7.41542 53.5424 7.41542C53.8936 7.41542 54.241 7.48847 54.5625 7.62994C54.8839 7.7714 55.1725 7.97818 55.4097 8.23715C55.647 8.49611 55.8278 8.80159 55.9407 9.13418C56.0535 9.46678 56.096 9.81921 56.0653 10.1691C56.0876 10.5092 56.0376 10.8502 55.9187 11.1696C55.7999 11.4891 55.6147 11.7798 55.3756 12.0226C55.1364 12.2654 54.8485 12.4549 54.5309 12.5786C54.2133 12.7023 53.8731 12.7574 53.5327 12.7404V12.7404ZM61.8652 15.4663H65.0358V0H61.8652V15.4663ZM82.532 7.73315C82.9501 7.3766 83.2833 6.93125 83.5074 6.42956C83.7315 5.92788 83.8408 5.38251 83.8273 4.83322C83.8109 4.24549 83.6749 3.66726 83.4277 3.13379C83.1805 2.60031 82.8273 2.12275 82.3896 1.73023C81.9518 1.3377 81.4387 1.03843 80.8815 0.850648C80.3244 0.662865 79.7348 0.590508 79.1488 0.637985H73.3489V15.4663H79.5741C80.1766 15.5167 80.7831 15.4427 81.3557 15.2487C81.9284 15.0548 82.4551 14.7451 82.903 14.3389C83.3509 13.9328 83.7104 13.4388 83.9592 12.8877C84.208 12.3367 84.3408 11.7403 84.3493 11.1357C84.3708 10.4591 84.2142 9.78875 83.8953 9.19163C83.5764 8.59451 83.1063 8.09159 82.532 7.73315V7.73315ZM76.7322 3.86657H79.1488C79.3228 3.85805 79.4966 3.88638 79.6589 3.9497C79.8213 4.01301 79.9684 4.10989 80.0906 4.234C80.2129 4.3581 80.3076 4.50663 80.3685 4.66986C80.4294 4.83309 80.4552 5.00734 80.4441 5.18121C80.4522 5.35435 80.4243 5.5273 80.3624 5.68917C80.3004 5.85105 80.2056 5.99835 80.0839 6.12182C79.9623 6.24528 79.8164 6.34225 79.6555 6.40662C79.4945 6.47099 79.322 6.50137 79.1488 6.49584H76.7322V3.86657ZM79.5741 12.3344H76.7322V9.43444H79.5741C79.7625 9.42573 79.9507 9.45708 80.1261 9.52643C80.3015 9.59577 80.4602 9.70154 80.5918 9.83674C80.7233 9.97194 80.8247 10.1335 80.8892 10.3108C80.9537 10.488 80.9799 10.6769 80.9661 10.8651C80.9771 11.0516 80.9488 11.2384 80.883 11.4134C80.8172 11.5883 80.7154 11.7474 80.5841 11.8805C80.4529 12.0136 80.2952 12.1176 80.1212 12.1858C79.9472 12.254 79.7608 12.2848 79.5741 12.2764V12.3344ZM93.2811 10.7104C93.2811 12.199 92.4884 12.8757 91.3478 12.8757C91.0941 12.8914 90.84 12.8514 90.6035 12.7584C90.3669 12.6654 90.1536 12.5218 89.9785 12.3375C89.8035 12.1532 89.6709 11.9328 89.5901 11.6918C89.5094 11.4507 89.4825 11.195 89.5112 10.9424V4.87188H86.3019V11.3677C86.227 11.9175 86.2713 12.477 86.4317 13.0081C86.5922 13.5393 86.8651 14.0297 87.2319 14.446C87.5987 14.8623 88.0508 15.1948 88.5575 15.4209C89.0642 15.647 89.6137 15.7614 90.1685 15.7563C90.7378 15.7936 91.3078 15.6958 91.8319 15.4706C92.3561 15.2455 92.8196 14.8995 93.1844 14.461V15.4663H96.355V4.87188H93.2811V10.7104ZM103.102 1.93329L99.9316 2.8806V4.81388H98.2303V7.90714H99.9316V11.5997C99.9316 14.577 101.13 15.8143 105.287 15.4663V12.5664C103.895 12.5664 103.102 12.5664 103.102 11.6577V7.90714H105.287V4.87188H103.102V1.93329ZM112.131 1.93329L108.96 2.8806V4.81388H107.259V7.90714H108.96V11.5997C108.96 14.577 110.159 15.8143 114.315 15.4663V12.5664C112.865 12.663 112.131 12.5664 112.131 11.5997V7.90714H114.315V4.87188H112.131V1.93329ZM121.294 4.58189C120.55 4.55498 119.808 4.68145 119.115 4.95343C118.421 5.22541 117.791 5.63709 117.263 6.16289C116.736 6.68869 116.322 7.31738 116.048 8.00989C115.773 8.7024 115.644 9.44394 115.669 10.1884C115.748 11.3672 116.18 12.4948 116.908 13.4251C117.637 14.3554 118.628 15.0455 119.753 15.406C120.878 15.7664 122.085 15.7806 123.218 15.4466C124.352 15.1127 125.358 14.446 126.108 13.533L123.556 12.0637C123.044 12.5777 122.349 12.8694 121.623 12.8757C121.096 12.9403 120.562 12.8295 120.105 12.5604C119.647 12.2913 119.29 11.879 119.09 11.3871H126.592C126.686 10.975 126.732 10.5532 126.727 10.1304C126.756 9.39961 126.635 8.67055 126.372 7.98821C126.109 7.30586 125.708 6.6847 125.196 6.16301C124.683 5.64133 124.069 5.23018 123.391 4.95492C122.714 4.67966 121.987 4.54613 121.256 4.56256L121.294 4.58189ZM118.974 9.08645C119.125 8.6013 119.426 8.17698 119.835 7.8756C120.244 7.57423 120.738 7.41164 121.246 7.41164C121.754 7.41164 122.248 7.57423 122.657 7.8756C123.066 8.17698 123.368 8.6013 123.518 9.08645H118.974ZM131.947 6.7665V4.83322H128.718V15.4663H131.908V10.6717C131.906 10.2851 131.993 9.90318 132.164 9.55613C132.334 9.20908 132.583 8.90641 132.89 8.67203C133.198 8.43765 133.556 8.27798 133.935 8.20563C134.315 8.13327 134.707 8.15022 135.079 8.25514V4.65922C134.396 4.61853 133.718 4.7999 133.146 5.17622C132.575 5.55254 132.141 6.10363 131.908 6.74717L131.947 6.7665ZM138.713 11.7544C138.331 11.7544 137.957 11.8678 137.639 12.0802C137.321 12.2926 137.074 12.5946 136.927 12.9478C136.781 13.3011 136.743 13.6898 136.817 14.0648C136.892 14.4399 137.076 14.7843 137.346 15.0547C137.617 15.3251 137.961 15.5092 138.336 15.5838C138.711 15.6584 139.1 15.6201 139.453 15.4738C139.806 15.3275 140.108 15.0797 140.321 14.7617C140.533 14.4438 140.647 14.07 140.647 13.6877C140.649 13.4289 140.6 13.1722 140.501 12.9328C140.403 12.6935 140.258 12.4763 140.074 12.2942C139.89 12.1121 139.671 11.9688 139.431 11.8727C139.191 11.7767 138.933 11.7299 138.675 11.7351L138.713 11.7544Z" fill="#212E44"/>
</svg>
