<svg width="1920" height="2861" viewBox="0 0 1920 2861" fill="none" xmlns="http://www.w3.org/2000/svg">
<mask id="mask0_70_110" style="mask-type:alpha" maskUnits="userSpaceOnUse" x="0" y="0" width="1920" height="2861">
<rect width="1920" height="2861" fill="#C4C4C4"/>
</mask>
<g mask="url(#mask0_70_110)">
<path d="M-169.494 190.27C-2.79994 57.7053 574.73 -137.111 1551.29 144.137C2300.14 359.805 2627.73 -23.9534 2743.39 -396.917L2796 -717C2794.13 -622.742 2778.56 -510.329 2743.39 -396.917L2195.4 2937C1905.35 2843.67 1202.23 2675.37 710.152 2748.76C218.07 2822.15 -103.65 2544.61 -203 2396.67L-169.494 190.27Z" fill="#F8F9FA"/>
<path d="M-113.5 142.5C-113.5 142.5 570 277.5 902 517.5C1317 817.5 1887 807.5 2502.5 662.5C2994.9 546.5 2407.67 987.833 2052.5 1223C1850.83 1321.17 1541.5 1614.6 1917.5 2003C2003.52 2091.86 2080.8 2110.22 2148.84 2085.7L2502.5 1433C2502.5 1433 2378.19 2003.04 2148.84 2085.7L2052.5 2263.5C1655.67 2195 888 1956 992 1548C1122 1038 721.5 622.5 456.5 622.5C244.5 622.5 -38.5 649.167 -153.5 662.5L-113.5 142.5Z" fill="#5187E2" fill-opacity="0.03"/>
</g>
</svg>
