<svg width="79" height="44" viewBox="0 0 79 44" fill="none" xmlns="http://www.w3.org/2000/svg">
<path d="M34.6651 30.3496C34.4663 30.3641 34.281 30.4556 34.1487 30.6047C34.0164 30.7537 33.9476 30.9486 33.9569 31.1477C33.9485 31.2552 33.9628 31.3632 33.9991 31.4648C34.0354 31.5663 34.0927 31.659 34.1673 31.7368C34.242 31.8146 34.3322 31.8758 34.4322 31.9162C34.5321 31.9567 34.6395 31.9755 34.7472 31.9715C34.855 31.9675 34.9607 31.9408 35.0573 31.8931C35.154 31.8453 35.2395 31.7777 35.3082 31.6946C35.3768 31.6115 35.4272 31.5148 35.4558 31.4108C35.4845 31.3069 35.4908 31.1981 35.4744 31.0915C35.4732 30.9886 35.4509 30.8871 35.4089 30.7932C35.3669 30.6993 35.3061 30.615 35.2303 30.5455C35.1544 30.476 35.0652 30.4227 34.968 30.389C34.8707 30.3553 34.7677 30.3419 34.6651 30.3496V30.3496ZM72.3436 15.0961C71.523 14.7139 70.6575 14.3767 69.8257 13.9721C68.7691 13.4887 67.69 13.0841 66.6671 12.5333H66.5547L66.4423 12.4658C66.3553 12.466 66.2698 12.4427 66.195 12.3984L62.7329 10.8921L59.7204 9.54327L54.1001 7.10406C53.8391 7.02333 53.5926 6.90194 53.3694 6.74436C53.2146 6.7271 53.0672 6.6689 52.9423 6.57575C52.9423 6.57575 52.8749 6.57575 52.8524 6.57575C52.255 6.35154 51.6697 6.09641 51.0988 5.81139C48.7608 4.78849 46.4228 3.78808 44.0847 2.75395C42.7194 2.16203 41.2555 1.83036 39.7683 1.77601C38.0517 1.69139 36.3381 1.99492 34.755 2.66402L32.9003 3.37218L32.3833 3.60823C31.4615 3.99041 30.551 4.39507 29.6293 4.73229C28.7076 5.06951 27.5161 5.71022 26.4482 6.18233C23.8854 7.30639 21.3113 8.43045 18.7484 9.55451C16.1856 10.6786 13.3979 11.9038 10.7226 13.0728L6.22638 15.0287C5.56998 15.3101 4.95986 15.6891 4.41664 16.1527C3.35924 17.0222 2.56174 18.166 2.11163 19.4588C1.66153 20.7517 1.5762 22.1435 1.86503 23.4816C2.05978 24.6767 2.55349 25.8031 3.30027 26.7563C4.04706 27.7094 5.02267 28.4583 6.13645 28.9333C7.26051 29.4728 8.45202 29.9562 9.59856 30.4845C10.7451 31.0128 11.7343 31.3275 12.7459 31.9008C12.9736 32.0448 13.2193 32.1582 13.4766 32.238C13.792 32.3088 14.0951 32.4262 14.3758 32.5865C14.4129 32.5824 14.4503 32.5887 14.484 32.6045C14.5177 32.6204 14.5464 32.6453 14.5669 32.6764C14.7574 32.7169 14.9398 32.7891 15.1065 32.89C15.1448 32.8882 15.1831 32.8954 15.2182 32.911C15.2534 32.9267 15.2844 32.9502 15.3088 32.9799C15.466 33.0032 15.6138 33.0693 15.7359 33.171C16.2552 33.3556 16.7621 33.5733 17.2534 33.823C19.6139 34.8571 21.9745 35.8687 24.3237 36.9141C25.223 37.33 26.1447 37.7122 27.0327 38.1618C27.9207 38.6115 28.7413 38.8363 29.5731 39.2184L34.1368 41.2642L34.474 41.3766C35.5293 41.8123 36.6362 42.1108 37.7675 42.2646C38.6955 42.332 39.6272 42.332 40.5552 42.2646C40.6891 42.2137 40.8371 42.2137 40.9711 42.2646H41.297C41.3825 42.2031 41.4841 42.168 41.5893 42.1635C42.4395 42.0069 43.2691 41.7543 44.0622 41.4104L47.6705 39.8254C48.5922 39.4208 49.4914 38.9824 50.4356 38.7014L50.8516 38.4878L56.618 35.9699L62.2383 33.4745L72.411 28.9783C73.2127 28.6416 73.9418 28.153 74.558 27.5395C75.43 26.7018 76.0844 25.664 76.4644 24.5162C76.8445 23.3683 76.9386 22.145 76.7386 20.9525C76.5861 19.6759 76.0994 18.4623 75.3277 17.434C74.556 16.4057 73.5266 15.5993 72.3436 15.0961ZM13.7014 22.1215C12.8583 22.1777 12.0153 22.2564 11.1722 22.3013C10.9249 22.3013 10.835 22.38 10.8575 22.6386C10.9474 23.6502 10.7676 23.4816 11.7455 23.4142H12.6335C12.982 23.4142 12.9932 23.4142 13.0382 23.7851C13.0944 24.4033 13.0382 24.4258 12.4537 24.4595C11.9682 24.4771 11.484 24.5222 11.0036 24.5944C11.0036 25.2351 11.1048 25.8534 11.1385 26.4716C11.1385 26.8425 11.1385 26.8987 10.7676 26.9325H10.7114C9.9133 26.9325 9.9695 27.0449 9.9133 26.2693C9.81213 24.8305 9.68848 23.3804 9.57608 21.9304C9.57608 21.4471 9.57608 21.4358 10.0145 21.4021L13.7351 21.1323C14.1735 21.1323 14.1735 21.1323 14.2072 21.537V21.5932C14.2409 22.099 14.2297 22.0878 13.7014 22.1215ZM21.5698 25.1789C21.0989 25.7162 20.457 26.0745 19.7525 26.1933C19.048 26.3121 18.3241 26.1841 17.703 25.8309C17.2329 25.5683 16.8546 25.1677 16.6194 24.6832C16.3842 24.1988 16.3034 23.6538 16.3879 23.1219C16.4858 22.5614 16.7542 22.0448 17.1565 21.6424C17.5589 21.2401 18.0755 20.9717 18.636 20.8738C18.8608 20.8738 19.0856 20.8738 19.2542 20.7951C19.8394 20.7608 20.4213 20.9033 20.9244 21.2039C21.4275 21.5046 21.8286 21.9496 22.0756 22.4812C22.2869 22.9234 22.3561 23.4202 22.2736 23.9032C22.191 24.3863 21.9609 24.832 21.6148 25.1789H21.5698ZM28.168 25.8084C27.607 25.9515 27.0161 25.9242 26.4707 25.7297C26.093 25.624 25.7593 25.3998 25.5185 25.0902C25.2777 24.7807 25.1426 24.402 25.1331 24.0099C25.1331 23.0432 25.0544 22.0653 25.0207 21.0986C25.0207 20.7277 25.0207 20.7164 25.3804 20.6827H25.4928C26.1784 20.6827 26.1672 20.6827 26.1897 21.3347C26.2122 21.9866 26.2796 23.032 26.2796 23.875C26.2878 24.0279 26.3272 24.1775 26.3953 24.3146C26.4634 24.4517 26.5588 24.5735 26.6756 24.6724C26.7924 24.7713 26.9282 24.8454 27.0747 24.8899C27.2212 24.9345 27.3752 24.9487 27.5273 24.9316C28.3029 24.9316 28.6514 24.527 28.6514 23.8076C28.6514 22.8859 28.5952 21.9754 28.5727 21.0536C28.5727 20.6265 28.5727 20.6153 28.9886 20.604C29.708 20.604 29.7192 20.604 29.7417 21.256C29.7417 21.6831 29.7417 22.1215 29.7417 22.5486H29.7979C29.7979 22.9308 29.7979 23.313 29.7979 23.6727C29.8395 23.9202 29.8313 24.1736 29.7738 24.4179C29.7163 24.6622 29.6107 24.8927 29.4631 25.0957C29.3156 25.2987 29.129 25.4703 28.9144 25.6004C28.6997 25.7305 28.4613 25.8165 28.213 25.8534L28.168 25.8084ZM31.6863 30.3496C31.3604 30.3496 31.0344 30.3496 30.7084 30.3496C30.5735 30.3496 30.4724 30.3496 30.4611 30.5407C30.4499 30.7318 30.551 30.7543 30.6859 30.7543H31.0456C31.2704 30.7543 31.3604 30.8217 31.3491 31.0465C31.3379 31.2713 31.2367 31.2938 31.0569 31.3051C30.4724 31.3051 30.4724 31.3051 30.4611 31.9121C30.4611 32.3167 30.3937 32.3504 30.0115 32.3167C29.8316 32.3167 29.7754 32.2268 29.7867 32.0582V30.0798C29.7867 29.8888 29.8429 29.7876 30.0452 29.7988H31.6976C31.9224 29.7988 31.9449 29.9112 31.9449 30.0911C31.9449 30.2709 31.8999 30.3496 31.6863 30.3496ZM34.7101 32.3842C34.5296 32.3932 34.3491 32.3662 34.1792 32.3047C34.0092 32.2432 33.8533 32.1485 33.7204 32.0261C33.5875 31.9036 33.4803 31.7559 33.4051 31.5916C33.3299 31.4273 33.2882 31.2496 33.2825 31.069C33.2824 30.8831 33.3196 30.6991 33.3917 30.5277C33.4639 30.3564 33.5696 30.2012 33.7026 30.0713C33.8356 29.9414 33.9933 29.8395 34.1663 29.7714C34.3393 29.7034 34.5242 29.6707 34.7101 29.6752C35.085 29.671 35.4476 29.809 35.7249 30.0613C36.0023 30.3137 36.1738 30.6616 36.2051 31.0353C36.1875 31.416 36.0209 31.7744 35.7411 32.0332C35.4613 32.2919 35.0909 32.4301 34.7101 32.4179V32.3842ZM36.9582 25.2576C36.6996 24.808 36.4411 24.3584 36.2051 23.9088C36.1705 23.8211 36.1072 23.7478 36.0255 23.7008C35.9438 23.6538 35.8486 23.636 35.7554 23.6502C35.4259 23.6671 35.0958 23.6671 34.7663 23.6502C34.5527 23.6502 34.4965 23.7401 34.5077 23.9312C34.5077 24.3584 34.5077 24.7968 34.5077 25.2239C34.5077 25.4487 34.4403 25.5386 34.2155 25.5386C33.3275 25.5386 33.4061 25.6848 33.3837 24.808C33.3837 23.5266 33.3837 22.2451 33.3837 20.975V20.7164C33.3837 20.5141 33.4848 20.4354 33.6759 20.4354H36.3175C36.612 20.4232 36.9061 20.469 37.183 20.5703C37.4387 20.6531 37.6676 20.8028 37.8459 21.004C38.0242 21.2051 38.1455 21.4503 38.1971 21.714C38.2487 21.9778 38.2288 22.2506 38.1394 22.5041C38.05 22.7576 37.8945 22.9825 37.6888 23.1556L37.1155 23.6053C37.4078 24.0774 37.6888 24.5607 37.9698 25.0328C38.0364 25.1338 38.0965 25.2389 38.1497 25.3475C38.2059 25.4824 38.1497 25.5948 38.0035 25.5948H37.1717C37.0256 25.5499 36.9694 25.415 36.902 25.2913L36.9582 25.2576ZM39.2063 32.3842C39.0253 32.3917 38.8445 32.3632 38.6745 32.3005C38.5046 32.2378 38.3487 32.142 38.2159 32.0186C38.0832 31.8953 37.9762 31.7469 37.9012 31.582C37.8261 31.417 37.7845 31.2389 37.7787 31.0578C37.8108 30.6938 37.978 30.355 38.2474 30.1082C38.5169 29.8614 38.869 29.7245 39.2344 29.7245C39.5998 29.7245 39.9519 29.8614 40.2214 30.1082C40.4908 30.355 40.658 30.6938 40.6901 31.0578C40.6887 31.2547 40.6454 31.4491 40.5629 31.6279C40.4803 31.8067 40.3606 31.9658 40.2116 32.0946C40.0626 32.2234 39.8878 32.3188 39.6989 32.3746C39.51 32.4303 39.3114 32.4451 39.1164 32.4179L39.2063 32.3842ZM39.6896 14.1519C39.4536 13.9271 39.2962 13.9496 39.0826 14.1519C38.8951 14.3592 38.6553 14.5123 38.3884 14.5953C38.1215 14.6783 37.8372 14.6883 37.5652 14.624C37.3628 14.5678 37.2617 14.624 37.1942 14.8601C37.1276 15.0755 37.0371 15.2829 36.9245 15.4783C36.8986 15.5292 36.8626 15.5742 36.8186 15.6106C36.7747 15.6469 36.7237 15.6739 36.6689 15.6897C36.614 15.7055 36.5565 15.7099 36.4999 15.7025C36.4434 15.6951 36.3889 15.6762 36.3399 15.6469C36.2888 15.6228 36.2429 15.5888 36.2049 15.5469C36.167 15.505 36.1378 15.4559 36.119 15.4026C36.1001 15.3492 36.0921 15.2927 36.0953 15.2362C36.0985 15.1798 36.1129 15.1245 36.1376 15.0736C36.2163 14.8376 36.4636 14.5903 36.3512 14.3655C36.2388 14.1407 35.9465 14.1294 35.7442 14.0058C35.0595 13.5876 34.5012 12.9914 34.129 12.2806C33.7568 11.5699 33.5847 10.7714 33.631 9.97041C33.631 9.09364 33.9569 8.91379 34.755 9.29598C35.539 9.63511 36.2101 10.1905 36.6898 10.8972C37.1696 11.6039 37.4381 12.4326 37.464 13.2864C37.464 13.7135 37.7675 13.8934 38.1834 13.7023C38.2852 13.6413 38.3828 13.5738 38.4757 13.5C38.7679 13.2639 38.7791 13.2639 38.5768 12.9154C38.068 12.126 37.789 11.2105 37.7712 10.2714C37.7533 9.33236 37.9972 8.40689 38.4757 7.59864C38.6134 7.3572 38.7714 7.12782 38.9478 6.91297C38.992 6.83077 39.0577 6.76209 39.1379 6.71422C39.218 6.66635 39.3096 6.64108 39.403 6.64108C39.4964 6.64108 39.588 6.66635 39.6681 6.71422C39.7483 6.76209 39.814 6.83077 39.8582 6.91297C40.6276 7.86452 41.0269 9.06226 40.9823 10.2851C40.9684 11.2244 40.6792 12.139 40.1505 12.9154C40.0044 13.1515 40.0381 13.2864 40.2517 13.4213C40.4098 13.5793 40.6149 13.6819 40.8362 13.7135C41.2071 13.7135 41.2858 13.7135 41.297 13.2864C41.3154 12.4236 41.5817 11.5844 42.064 10.8689C42.5463 10.1533 43.2244 9.59168 44.0173 9.25101C44.8041 8.86883 45.1413 9.04868 45.1413 9.93669C45.1985 10.799 44.9969 11.6588 44.5623 12.4058C44.1278 13.1528 43.48 13.753 42.7021 14.1294C42.3424 14.3205 42.3424 14.3205 42.4998 14.7139C42.5598 14.8381 42.6124 14.9657 42.6572 15.0961C42.6908 15.1962 42.6851 15.3053 42.6412 15.4013C42.5974 15.4973 42.5187 15.573 42.4211 15.6132C42.3746 15.6391 42.3235 15.6555 42.2706 15.6616C42.2178 15.6677 42.1642 15.6634 42.1131 15.6487C42.0619 15.6341 42.0141 15.6096 41.9725 15.5765C41.9308 15.5434 41.8961 15.5024 41.8703 15.4558C41.7597 15.2633 41.6693 15.0599 41.6005 14.8488C41.5219 14.6353 41.4432 14.5116 41.1959 14.5791C40.9198 14.671 40.6234 14.6828 40.3409 14.6132C40.0584 14.5435 39.8014 14.3953 39.5997 14.1856L39.6896 14.1519ZM43.8711 32.2942C43.4076 32.3392 42.9408 32.3392 42.4773 32.2942C42.3087 31.8783 42.4773 31.44 42.4099 31.1702V30.0461C42.4099 29.855 42.4099 29.7651 42.6684 29.7651C43.0506 29.7651 43.4328 29.7651 43.7925 29.7651C43.9534 29.7695 44.1119 29.8055 44.2588 29.8712C44.4058 29.9368 44.5384 30.0308 44.6491 30.1477C44.7597 30.2646 44.8463 30.4022 44.9037 30.5525C44.9612 30.7029 44.9885 30.8631 44.984 31.0241C44.9963 31.1899 44.9744 31.3566 44.9196 31.5136C44.8649 31.6707 44.7784 31.8148 44.6656 31.9371C44.5529 32.0594 44.4162 32.1572 44.264 32.2244C44.1119 32.2916 43.9475 32.3269 43.7812 32.328L43.8711 32.2942ZM45.8045 21.0536C45.8045 21.2785 45.7146 21.3684 45.501 21.3571H44.4557C43.9386 21.3571 43.9386 21.3571 43.9386 21.8517C43.9386 22.9083 43.9386 23.965 43.9386 25.0103C43.9386 25.4937 43.9386 25.4937 43.4552 25.4937C42.7134 25.4937 42.8033 25.4937 42.8033 24.8642C42.8033 23.8188 42.8033 22.7847 42.8033 21.7506C42.8033 21.3571 42.8033 21.3459 42.4099 21.3347C42.0164 21.3234 41.6792 21.3347 41.2858 21.3347C40.8924 21.3347 40.9261 21.3347 40.9149 20.9412V20.9075C40.9149 20.4466 40.9149 20.4466 41.387 20.4466H43.3541H45.4336C45.7708 20.4466 45.8045 20.4466 45.8045 20.8401C45.7258 20.975 45.7146 21.0536 45.7146 21.1436L45.8045 21.0536ZM48.6147 32.2043C48.1413 32.3893 47.6156 32.3893 47.1422 32.2043C46.931 32.1431 46.7381 32.0312 46.5801 31.8783C46.5801 31.7547 46.6813 31.6872 46.7375 31.5973C46.7937 31.5074 46.9398 31.4512 47.086 31.5973C47.3019 31.7458 47.5549 31.8314 47.8166 31.8446C47.9362 31.8555 48.0566 31.8555 48.1763 31.8446C48.2379 31.8342 48.294 31.8028 48.335 31.7556C48.376 31.7085 48.3994 31.6485 48.4011 31.5861C48.4011 31.44 48.2887 31.3725 48.1538 31.3613C47.8503 31.3613 47.5356 31.2938 47.2321 31.2264C47.1241 31.2106 47.0214 31.1697 46.9322 31.1069C46.8429 31.0442 46.7697 30.9614 46.7183 30.8651C46.6669 30.7689 46.6388 30.662 46.6363 30.5529C46.6338 30.4438 46.6569 30.3357 46.7038 30.2372C46.7443 30.1211 46.8143 30.0176 46.9069 29.9368C46.9995 29.856 47.1116 29.8007 47.2321 29.7763C47.5047 29.6947 47.7914 29.6705 48.0739 29.7053C48.3564 29.7402 48.6285 29.8332 48.8732 29.9787C48.6372 30.4508 48.6484 30.4395 48.1988 30.3271C47.9702 30.2428 47.7191 30.2428 47.4906 30.3271C47.451 30.3441 47.4161 30.3703 47.3887 30.4036C47.3613 30.4368 47.3423 30.4761 47.3332 30.5182C47.3329 30.5623 47.3487 30.6049 47.3777 30.6381C47.4067 30.6712 47.4469 30.6926 47.4906 30.6981C47.6084 30.7286 47.7289 30.7475 47.8503 30.7543C48.0732 30.7799 48.2946 30.8174 48.5135 30.8667C48.6696 30.888 48.813 30.9642 48.918 31.0816C49.0231 31.199 49.0829 31.3499 49.0868 31.5074C49.096 31.6828 49.0455 31.8562 48.9434 31.9991C48.8413 32.1421 48.6937 32.2461 48.5248 32.2942L48.6147 32.2043ZM52.5714 25.6848H52.4702L49.098 25.5836C48.6484 25.5836 48.6484 25.5836 48.6484 25.1003V23.1781C48.6484 23.1781 48.7158 23.1219 48.7496 23.1219C48.7496 22.4138 48.7496 21.7056 48.7496 20.9974C48.7496 20.5703 48.7496 20.5591 49.2104 20.5703C50.3345 20.5703 51.526 20.6377 52.6838 20.6715C53.0772 20.6715 53.0884 20.6715 53.0884 21.0986C53.0884 21.166 53.0884 21.2335 53.0884 21.3009C53.0884 21.5482 52.9873 21.6382 52.74 21.6269L50.4132 21.5595H50.0422C50.0211 21.5578 49.9999 21.5607 49.9801 21.568C49.9602 21.5753 49.9422 21.5868 49.9272 21.6018C49.9122 21.6168 49.9007 21.6348 49.8934 21.6547C49.8861 21.6745 49.8832 21.6957 49.8849 21.7168C49.8849 21.7843 49.8849 21.8517 49.8849 21.9192C49.8849 22.6498 49.7949 22.5262 50.4694 22.5486H51.4473C51.6834 22.5486 51.807 22.6498 51.7733 22.8971C51.762 23.0017 51.762 23.1072 51.7733 23.2118C51.7733 23.4591 51.6609 23.5491 51.4248 23.5378H50.1771C49.9411 23.5378 49.8399 23.594 49.8174 23.8413C49.7387 24.7293 49.7275 24.7406 50.6267 24.7743L52.65 24.8417C53.1334 24.8417 53.1446 24.8417 53.1334 25.3475C53.1222 25.8534 52.9423 25.7747 52.4814 25.7747L52.5714 25.6848ZM57.3486 22.4812C57.3486 22.6386 57.2362 22.8859 57.5509 22.8971C57.8657 22.9083 58.3828 22.8971 58.7987 22.9533C59.2146 23.0095 59.2033 22.9533 59.2033 23.3917C59.2083 23.4778 59.2083 23.5641 59.2033 23.6502C59.2033 23.8525 59.1022 23.9537 58.8773 23.9425C58.4614 23.9425 58.0455 23.9425 57.6409 23.8638C57.2362 23.7851 57.2587 23.92 57.2699 24.201C57.2812 24.482 57.1463 24.808 57.2699 24.9991C57.3936 25.1902 57.7982 25.089 58.068 25.1115L60.1812 25.2351C60.3386 25.2351 60.5297 25.2351 60.5409 25.4375C60.5522 25.6398 60.5409 25.9321 60.4285 26.1344C60.3161 26.3367 60.2375 26.1906 60.1363 26.1906L56.4494 25.9995C56.056 25.9995 56.0447 25.9995 56.0559 25.5724C56.0559 24.8979 56.1122 24.2235 56.1346 23.5491C56.1346 22.8297 56.1908 22.099 56.2246 21.3796C56.2246 20.885 56.2246 20.885 56.7304 20.9075L60.1026 21.0649C60.2599 21.0649 60.496 21.0087 60.5522 21.211C60.631 21.4443 60.631 21.6971 60.5522 21.9304C60.5522 22.0765 60.3274 22.0316 60.1812 22.0316L58.068 21.9079H57.5959C57.1688 21.9079 57.3486 22.2227 57.3486 22.4812ZM69.0164 22.2451C68.8927 23.6615 68.7915 25.0778 68.6791 26.4941C68.6791 26.9774 68.6791 26.955 68.1733 26.9662C68.0105 26.9773 67.8478 26.9433 67.703 26.8679C67.5583 26.7926 67.4371 26.6788 67.3528 26.5391C66.7233 25.6061 66.0488 24.7068 65.3856 23.7963C65.2814 23.6513 65.1688 23.5124 65.0484 23.3804C64.9709 23.6045 64.9328 23.8403 64.936 24.0774L64.8011 26.258C64.8011 26.6515 64.8011 26.6627 64.3628 26.6515C63.3961 26.6515 63.5309 26.6515 63.5759 25.8309C63.6658 24.3584 63.7895 22.8971 63.8794 21.4246C63.8794 21.1885 63.9806 21.0874 64.2279 21.0874C64.4488 21.0683 64.6708 21.1107 64.8691 21.2099C65.0675 21.3091 65.2346 21.4612 65.3519 21.6494C65.9814 22.6273 66.6896 23.5378 67.364 24.482C67.364 24.5495 67.4427 24.6394 67.6 24.6506C67.6 24.201 67.6787 23.7401 67.7125 23.2905C67.7462 22.8409 67.7911 22.2564 67.8361 21.7393C67.8361 21.3909 67.9035 21.3347 68.2408 21.3684C69.1512 21.4133 69.0838 21.2897 68.9939 22.1889L69.0164 22.2451ZM19.3442 21.8292C18.9954 21.8271 18.654 21.9289 18.3635 22.1218C18.0729 22.3146 17.8465 22.5897 17.7131 22.9119C17.5797 23.2341 17.5454 23.5887 17.6145 23.9305C17.6837 24.2723 17.8532 24.5857 18.1014 24.8307C18.3496 25.0757 18.6651 25.2411 19.0078 25.3058C19.3505 25.3705 19.7046 25.3316 20.0251 25.194C20.3455 25.0565 20.6176 24.8265 20.8067 24.5335C20.9957 24.2404 21.0932 23.8977 21.0865 23.5491C21.0976 23.3138 21.0596 23.0789 20.975 22.8591C20.8904 22.6394 20.761 22.4396 20.595 22.2726C20.429 22.1055 20.2301 21.9749 20.0109 21.8889C19.7917 21.8029 19.557 21.7634 19.3217 21.773L19.3442 21.8292ZM78.5034 20.7052C78.3611 19.5166 77.9786 18.3693 77.3794 17.333C76.7948 16.3375 76.0329 15.4574 75.1312 14.7364C74.3744 14.1582 73.5425 13.6855 72.6583 13.3313C71.5343 12.8592 70.4102 12.3534 69.2861 11.8588L65.5767 10.2514L62.3282 8.82387L58.0905 6.98041L54.8757 5.55286C53.1559 4.76601 51.4136 4.05786 49.6938 3.30474C47.974 2.55162 46.2541 1.76477 44.5119 1.05662C42.9019 0.381321 41.1768 0.0225763 39.4311 0C38.959 0 38.4981 0 38.0373 0.0786842C36.9337 0.170388 35.846 0.40076 34.8 0.764361C33.4286 1.23647 32.1247 1.88842 30.7983 2.45045C29.4719 3.01248 28.1231 3.65319 26.763 4.23771L21.3787 6.57575L16.8825 8.57658L11.2622 11.0495C10.228 11.4991 9.1939 11.9263 8.171 12.3984C7.14811 12.8705 5.82172 13.3988 4.69766 14.017C3.18688 14.8164 1.94983 16.0496 1.14563 17.5578C0.00303091 19.6409 -0.298634 22.0823 0.302584 24.3809C0.777581 26.4316 1.97453 28.243 3.67476 29.4841C4.45782 30.0441 5.30736 30.5047 6.2039 30.8554C7.74386 31.5186 9.27258 32.2156 10.8125 32.8787C12.5998 33.6656 14.3983 34.4187 16.1743 35.2168C17.7705 35.9362 19.3779 36.6106 20.9628 37.33C22.9749 38.2518 25.0319 39.0836 27.044 39.9828L33.6534 42.8716C35.4227 43.6511 37.3408 44.0347 39.2737 43.9957C39.9124 44.0128 40.5514 43.979 41.1846 43.8945C42.342 43.7313 43.4746 43.4255 44.5568 42.984L47.1646 41.86L51.8632 39.803L56.4269 37.8021L61.1255 35.7451C62.3282 35.228 63.5309 34.6885 64.7337 34.1602L68.814 32.3729L72.4223 30.8105C73.7592 30.2748 74.9747 29.4759 75.9968 28.4612C76.5043 27.9155 76.9458 27.3118 77.3119 26.6627C78.3785 24.8593 78.7913 22.7435 78.4809 20.6715L78.5034 20.7052ZM77.5143 23.2456C77.389 24.3062 77.0542 25.3313 76.5294 26.2614C76.0045 27.1915 75.3 28.0081 74.4568 28.6635C73.6861 29.215 72.8473 29.6646 71.9614 30.0012L63.5984 33.6544L57.8994 36.161L50.6942 39.3421C50.5808 39.3938 50.4644 39.4388 50.3457 39.477L48.9856 40.084C47.4232 40.7696 45.8607 41.4778 44.2983 42.1522C43.4502 42.5406 42.5482 42.7983 41.623 42.9166V42.9166C41.5794 42.9515 41.5282 42.9758 41.4736 42.9875C41.419 42.9992 41.3624 42.998 41.3083 42.984C38.8349 43.3835 36.2985 43.0351 34.0244 41.9836C33.9805 41.9533 33.9391 41.9195 33.9007 41.8825L33.7096 41.8038C33.7096 41.8038 33.6422 41.8038 33.6197 41.8038C32.797 41.5007 31.9903 41.1555 31.203 40.7696C29.9665 40.1964 28.6963 39.6456 27.4486 39.1285L22.9524 37.094L17.5906 34.8459C16.9724 34.5648 16.3429 34.3288 15.7472 34.0028H15.6348C15.6146 34.0024 15.5948 33.9971 15.5772 33.9873C15.5596 33.9775 15.5446 33.9635 15.5336 33.9466L12.3862 32.4966C10.8125 31.8109 9.23886 31.1477 7.67642 30.4395C6.74725 30.0658 5.84248 29.634 4.96743 29.1469C3.3353 28.1645 2.10455 26.635 1.49409 24.8305C0.926753 23.212 0.869352 21.4584 1.32963 19.8062C1.7899 18.1541 2.74571 16.6828 4.06818 15.5907C4.67777 15.1043 5.35094 14.7034 6.06901 14.3992L16.6689 9.75684L24.8071 6.18233L30.1913 3.84428C30.2375 3.79225 30.3019 3.76004 30.3712 3.75436C30.5267 3.64553 30.7026 3.56907 30.8883 3.52955C30.9105 3.4975 30.9412 3.47217 30.9769 3.45632C31.0125 3.44046 31.0519 3.43469 31.0906 3.43962C31.3215 3.29704 31.5712 3.18733 31.8325 3.11365C31.8545 3.08415 31.8835 3.06053 31.9168 3.04485C31.9501 3.02917 31.9868 3.02191 32.0236 3.02372C32.1883 2.91666 32.3711 2.84048 32.5631 2.79891C32.5857 2.7707 32.6151 2.74868 32.6485 2.73492C32.6819 2.72115 32.7183 2.7161 32.7542 2.72022C32.7674 2.71104 32.7831 2.70611 32.7992 2.70611C32.8152 2.70611 32.8309 2.71104 32.8441 2.72022C34.5686 1.73394 36.4978 1.15986 38.4809 1.04286C40.464 0.925861 42.4473 1.26912 44.2758 2.04579C45.0514 2.36053 45.8158 2.72022 46.5914 3.06868C46.9079 3.21552 47.2157 3.38066 47.5131 3.56327C47.7957 3.67737 48.0847 3.77495 48.3786 3.85553C49.8174 4.49624 51.2562 5.11447 52.695 5.74395C53.1334 5.93504 53.5605 6.14861 53.9877 6.35094C54.6734 6.57575 55.3253 6.90173 55.9885 7.19398C56.8114 7.51331 57.6114 7.88889 58.3828 8.31804C58.6972 8.48799 59.034 8.61287 59.3832 8.68898C59.5917 8.76866 59.7945 8.86255 59.9902 8.97C60.6237 9.18142 61.2432 9.43297 61.8449 9.72312C63.1488 10.2851 64.4639 10.8472 65.7566 11.4429L66.9593 11.9712C67.7574 12.2635 68.5105 12.6344 69.2861 12.9829C70.4102 13.4775 71.5343 13.9383 72.6583 14.4329C73.5535 14.8149 74.3723 15.3557 75.075 16.0291C76.021 16.9472 76.7338 18.0781 77.1542 19.3275C77.5746 20.5769 77.6903 21.9086 77.4918 23.2118L77.5143 23.2456ZM44.1072 10.3301C43.5199 10.5931 43.0233 11.0234 42.6794 11.5672C42.3355 12.1111 42.1596 12.7443 42.1738 13.3876C42.762 13.1258 43.2595 12.6957 43.6035 12.1516C43.9476 11.6075 44.1229 10.9737 44.1072 10.3301ZM43.1293 30.3496C42.9944 30.3496 42.9944 30.4957 42.9944 30.5969V31.3725C42.9944 31.7547 42.9944 31.7547 43.4103 31.7547C43.8262 31.7547 44.1859 31.5299 44.2084 31.0915C44.2131 30.961 44.1849 30.8314 44.1262 30.7147C44.0675 30.598 43.9803 30.498 43.8727 30.424C43.765 30.35 43.6405 30.3044 43.5105 30.2914C43.3806 30.2784 43.2494 30.2984 43.1293 30.3496V30.3496ZM39.285 7.86842C38.8418 8.53441 38.6053 9.31655 38.6053 10.1165C38.6053 10.9165 38.8418 11.6987 39.285 12.3647C39.735 11.7118 39.976 10.9376 39.976 10.1446C39.976 9.3517 39.735 8.57749 39.285 7.92462V7.86842ZM34.4628 10.3526C34.455 10.9917 34.6365 11.6189 34.9846 12.155C35.3327 12.691 35.8316 13.1121 36.4186 13.3651C36.4356 12.724 36.2577 12.0929 35.9085 11.5551C35.5593 11.0172 35.0552 10.598 34.4628 10.3526ZM39.1388 30.3496C39.0386 30.348 38.939 30.3668 38.8462 30.4048C38.7534 30.4428 38.6692 30.4993 38.5988 30.5707C38.5284 30.6422 38.4732 30.7271 38.4366 30.8205C38.4 30.9139 38.3827 31.0137 38.3857 31.114C38.3726 31.2214 38.3825 31.3303 38.4146 31.4336C38.4468 31.5369 38.5005 31.6322 38.5722 31.7132C38.6439 31.7942 38.732 31.8591 38.8307 31.9035C38.9293 31.9479 39.0363 31.9709 39.1445 31.9709C39.2527 31.9709 39.3596 31.9479 39.4583 31.9035C39.5569 31.8591 39.645 31.7942 39.7167 31.7132C39.7885 31.6322 39.8422 31.5369 39.8743 31.4336C39.9065 31.3303 39.9163 31.2214 39.9032 31.114C39.9063 31.0128 39.8887 30.912 39.8514 30.8178C39.8141 30.7237 39.7579 30.6382 39.6863 30.5666C39.6147 30.4949 39.5292 30.4388 39.435 30.4014C39.3409 30.3641 39.2401 30.3465 39.1388 30.3496ZM36.3287 21.3571C36.0702 21.3571 35.8116 21.3571 35.5531 21.3571H34.6651C34.4852 21.3571 34.4178 21.4358 34.429 21.6044C34.4403 21.773 34.429 22.1889 34.429 22.4812C34.429 22.7735 34.429 22.706 34.6314 22.706C35.2046 22.706 35.7554 22.706 36.3399 22.706C36.4314 22.7061 36.522 22.6876 36.6061 22.6516C36.6902 22.6157 36.7661 22.5629 36.8292 22.4967C36.8923 22.4305 36.9412 22.3521 36.973 22.2663C37.0049 22.1806 37.019 22.0892 37.0144 21.9978C37.0029 21.8239 36.9257 21.6608 36.7983 21.5418C36.6709 21.4228 36.503 21.3568 36.3287 21.3571V21.3571Z" fill="#212E44"/>
</svg>
