<svg width="16" height="18" viewBox="0 0 16 18" fill="none" xmlns="http://www.w3.org/2000/svg">
<path fill-rule="evenodd" clip-rule="evenodd" d="M6.48818 0C5.71454 0 5.06922 0.59123 5.00166 1.36189C4.86042 2.97317 4.82468 4.59164 4.89454 6.20693C4.81021 6.21258 4.72589 6.21847 4.64158 6.22462L3.15208 6.3332C2.20003 6.4026 1.66782 7.4642 2.18181 8.2685C3.27798 9.9841 4.69044 11.4754 6.34388 12.6632L6.94058 13.0918C7.42448 13.4394 8.07608 13.4394 8.55988 13.0918L9.15668 12.6632C10.8101 11.4754 12.2226 9.9841 13.3187 8.2685C13.8327 7.4642 13.3005 6.4026 12.3485 6.3332L10.859 6.22462C10.7747 6.21847 10.6903 6.21258 10.606 6.20693C10.6759 4.59164 10.6401 2.97317 10.4989 1.36188C10.4313 0.59123 9.78598 0 9.01238 0H6.48818ZM6.43178 6.8647C6.31808 5.0775 6.33928 3.28417 6.49528 1.5H9.00518C9.16128 3.28417 9.18248 5.0775 9.06878 6.8647C9.05598 7.0651 9.12418 7.2622 9.25788 7.412C9.39158 7.5617 9.57978 7.6516 9.78038 7.6614C10.1037 7.6774 10.4269 7.6971 10.7499 7.7207L11.8317 7.7995C10.8721 9.2128 9.67058 10.4471 8.28148 11.4449L7.75028 11.8265L7.21898 11.4449C5.82988 10.4471 4.62842 9.2128 3.66888 7.7995L4.75064 7.7207C5.07363 7.6971 5.39682 7.6774 5.72017 7.6614C5.92068 7.6516 6.10888 7.5617 6.24268 7.412C6.37638 7.2622 6.44448 7.0651 6.43178 6.8647Z" fill="#5187E2"/>
<path d="M1.5 13.75C1.5 13.3358 1.16421 13 0.75 13C0.33579 13 0 13.3358 0 13.75V15.75C0 16.7165 0.7835 17.5 1.75 17.5H13.75C14.7165 17.5 15.5 16.7165 15.5 15.75V13.75C15.5 13.3358 15.1642 13 14.75 13C14.3358 13 14 13.3358 14 13.75V15.75C14 15.8881 13.8881 16 13.75 16H1.75C1.61193 16 1.5 15.8881 1.5 15.75V13.75Z" fill="#5187E2"/>
</svg>
