<svg width="131" height="83" viewBox="0 0 131 83" fill="none" xmlns="http://www.w3.org/2000/svg">
<path d="M48.7274 40V38.5282C66.7416 32.1503 71.1834 19.3946 71.9237 13.9979C72.6641 8.60128 67.7287 4.18583 62.7933 3.94053C57.8579 3.69523 55.3902 8.11067 55.3902 11.5449C55.3902 14.2923 58.1869 17.5957 59.5852 18.904V21.6023H46.0129C45.5193 3.94053 59.3385 0.261007 64.2739 0.0157044C69.2093 -0.229598 86.4832 2.22343 85.9896 19.8852C85.5948 34.0146 73.9802 39.1823 68.2222 40H48.7274Z" fill="#5187E2"/>
<path d="M10.241 51.8C11.853 51.8 13.2483 52.0687 14.427 52.606C15.623 53.1433 16.5416 53.906 17.183 54.894C17.8243 55.882 18.145 57.052 18.145 58.404C18.145 59.7387 17.8243 60.9087 17.183 61.914C16.5416 62.902 15.623 63.6647 14.427 64.202C13.2483 64.722 11.853 64.982 10.241 64.982H6.57496V70H2.36296V51.8H10.241ZM10.007 61.55C11.2723 61.55 12.2343 61.2813 12.893 60.744C13.5516 60.1893 13.881 59.4093 13.881 58.404C13.881 57.3813 13.5516 56.6013 12.893 56.064C12.2343 55.5093 11.2723 55.232 10.007 55.232H6.57496V61.55H10.007ZM33.7626 63.058C33.7626 63.11 33.7366 63.474 33.6846 64.15H23.1026C23.2933 65.0167 23.744 65.7013 24.4546 66.204C25.1653 66.7067 26.0493 66.958 27.1066 66.958C27.8346 66.958 28.476 66.854 29.0306 66.646C29.6026 66.4207 30.1313 66.074 30.6166 65.606L32.7746 67.946C31.4573 69.454 29.5333 70.208 27.0026 70.208C25.4253 70.208 24.03 69.9047 22.8166 69.298C21.6033 68.674 20.6673 67.816 20.0086 66.724C19.35 65.632 19.0206 64.3927 19.0206 63.006C19.0206 61.6367 19.3413 60.406 19.9826 59.314C20.6413 58.2047 21.534 57.3467 22.6606 56.74C23.8046 56.116 25.0786 55.804 26.4826 55.804C27.852 55.804 29.0913 56.0987 30.2006 56.688C31.31 57.2773 32.1766 58.1267 32.8006 59.236C33.442 60.328 33.7626 61.602 33.7626 63.058ZM26.5086 58.872C25.59 58.872 24.8186 59.132 24.1946 59.652C23.5706 60.172 23.1893 60.8827 23.0506 61.784H29.9406C29.802 60.9 29.4206 60.198 28.7966 59.678C28.1726 59.1407 27.41 58.872 26.5086 58.872ZM39.557 57.858C40.0423 57.182 40.6923 56.6707 41.507 56.324C42.339 55.9773 43.2923 55.804 44.367 55.804V59.548C43.9163 59.5133 43.613 59.496 43.457 59.496C42.2956 59.496 41.3856 59.8253 40.727 60.484C40.0683 61.1253 39.739 62.096 39.739 63.396V70H35.683V56.012H39.557V57.858ZM51.5645 55.804C53.7312 55.804 55.3952 56.324 56.5565 57.364C57.7178 58.3867 58.2985 59.938 58.2985 62.018V70H54.5025V68.258C53.7398 69.558 52.3185 70.208 50.2385 70.208C49.1638 70.208 48.2278 70.026 47.4305 69.662C46.6505 69.298 46.0525 68.7953 45.6365 68.154C45.2205 67.5127 45.0125 66.7847 45.0125 65.97C45.0125 64.67 45.4978 63.6473 46.4685 62.902C47.4565 62.1567 48.9732 61.784 51.0185 61.784H54.2425C54.2425 60.9 53.9738 60.224 53.4365 59.756C52.8992 59.2707 52.0932 59.028 51.0185 59.028C50.2732 59.028 49.5365 59.1493 48.8085 59.392C48.0978 59.6173 47.4912 59.9293 46.9885 60.328L45.5325 57.494C46.2952 56.9567 47.2052 56.5407 48.2625 56.246C49.3372 55.9513 50.4378 55.804 51.5645 55.804ZM51.2525 67.478C51.9458 67.478 52.5612 67.322 53.0985 67.01C53.6358 66.6807 54.0172 66.204 54.2425 65.58V64.15H51.4605C49.7965 64.15 48.9645 64.696 48.9645 65.788C48.9645 66.308 49.1638 66.724 49.5625 67.036C49.9785 67.3307 50.5418 67.478 51.2525 67.478ZM69.6914 55.804C71.4247 55.804 72.8201 56.324 73.8774 57.364C74.9521 58.404 75.4894 59.9467 75.4894 61.992V70H71.4334V62.616C71.4334 61.5067 71.1907 60.6833 70.7054 60.146C70.2201 59.5913 69.5181 59.314 68.5994 59.314C67.5767 59.314 66.7621 59.6347 66.1554 60.276C65.5487 60.9 65.2454 61.836 65.2454 63.084V70H61.1894V56.012H65.0634V57.65C65.6007 57.0607 66.2681 56.61 67.0654 56.298C67.8627 55.9687 68.7381 55.804 69.6914 55.804ZM92.7863 50.708V70H88.9123V68.388C87.907 69.6013 86.451 70.208 84.5443 70.208C83.227 70.208 82.031 69.9133 80.9563 69.324C79.899 68.7347 79.067 67.894 78.4603 66.802C77.8536 65.71 77.5503 64.4447 77.5503 63.006C77.5503 61.5673 77.8536 60.302 78.4603 59.21C79.067 58.118 79.899 57.2773 80.9563 56.688C82.031 56.0987 83.227 55.804 84.5443 55.804C86.3296 55.804 87.725 56.3673 88.7303 57.494V50.708H92.7863ZM85.2463 66.88C86.269 66.88 87.1183 66.5333 87.7943 65.84C88.4703 65.1293 88.8083 64.1847 88.8083 63.006C88.8083 61.8273 88.4703 60.8913 87.7943 60.198C87.1183 59.4873 86.269 59.132 85.2463 59.132C84.2063 59.132 83.3483 59.4873 82.6723 60.198C81.9963 60.8913 81.6583 61.8273 81.6583 63.006C81.6583 64.1847 81.9963 65.1293 82.6723 65.84C83.3483 66.5333 84.2063 66.88 85.2463 66.88ZM109.852 56.012V70H106.004V68.336C105.467 68.9427 104.826 69.4107 104.08 69.74C103.335 70.052 102.529 70.208 101.662 70.208C99.8249 70.208 98.3689 69.6793 97.2942 68.622C96.2196 67.5647 95.6822 65.996 95.6822 63.916V56.012H99.7382V63.318C99.7382 65.5713 100.683 66.698 102.572 66.698C103.543 66.698 104.323 66.386 104.912 65.762C105.502 65.1207 105.796 64.176 105.796 62.928V56.012H109.852ZM117.536 70.208C116.375 70.208 115.239 70.0693 114.13 69.792C113.021 69.4973 112.137 69.1333 111.478 68.7L112.83 65.788C113.454 66.1867 114.208 66.516 115.092 66.776C115.976 67.0187 116.843 67.14 117.692 67.14C119.408 67.14 120.266 66.7153 120.266 65.866C120.266 65.4673 120.032 65.1813 119.564 65.008C119.096 64.8347 118.377 64.6873 117.406 64.566C116.262 64.3927 115.317 64.1933 114.572 63.968C113.827 63.7427 113.177 63.344 112.622 62.772C112.085 62.2 111.816 61.3853 111.816 60.328C111.816 59.444 112.067 58.664 112.57 57.988C113.09 57.2947 113.835 56.7573 114.806 56.376C115.794 55.9947 116.955 55.804 118.29 55.804C119.278 55.804 120.257 55.9167 121.228 56.142C122.216 56.35 123.031 56.6447 123.672 57.026L122.32 59.912C121.089 59.2187 119.746 58.872 118.29 58.872C117.423 58.872 116.773 58.9933 116.34 59.236C115.907 59.4787 115.69 59.7907 115.69 60.172C115.69 60.6053 115.924 60.9087 116.392 61.082C116.86 61.2553 117.605 61.42 118.628 61.576C119.772 61.7667 120.708 61.9747 121.436 62.2C122.164 62.408 122.797 62.798 123.334 63.37C123.871 63.942 124.14 64.7393 124.14 65.762C124.14 66.6287 123.88 67.4 123.36 68.076C122.84 68.752 122.077 69.2807 121.072 69.662C120.084 70.026 118.905 70.208 117.536 70.208ZM127.396 70.208C126.686 70.208 126.088 69.9653 125.602 69.48C125.117 68.9947 124.874 68.388 124.874 67.66C124.874 66.9147 125.117 66.3167 125.602 65.866C126.088 65.398 126.686 65.164 127.396 65.164C128.107 65.164 128.705 65.398 129.19 65.866C129.676 66.3167 129.918 66.9147 129.918 67.66C129.918 68.388 129.676 68.9947 129.19 69.48C128.705 69.9653 128.107 70.208 127.396 70.208Z" fill="#212E44"/>
</svg>
