<svg width="143" height="37" viewBox="0 0 143 37" fill="none" xmlns="http://www.w3.org/2000/svg">
<path d="M1.77278 31V30.0433C13.482 25.8977 16.3692 17.6065 16.8504 14.0987C17.3316 10.5908 14.1236 7.72079 10.9156 7.56134C7.70761 7.4019 6.1036 10.2719 6.1036 12.5042C6.1036 14.29 7.92147 16.4372 8.83041 17.2876V19.0415H0.00837552C-0.312426 7.56134 8.67 5.16965 11.878 5.01021C15.086 4.85076 26.3141 6.44523 25.9933 17.9254C25.7366 27.1095 18.1871 30.4685 14.4444 31H1.77278Z" fill="#5187E2"/>
<path d="M44.5024 10.6C45.8664 10.6 47.047 10.8273 48.0444 11.282C49.0564 11.7367 49.8337 12.382 50.3764 13.218C50.919 14.054 51.1904 15.044 51.1904 16.188C51.1904 17.3173 50.919 18.3073 50.3764 19.158C49.8337 19.994 49.0564 20.6393 48.0444 21.094C47.047 21.534 45.8664 21.754 44.5024 21.754H41.4004V26H37.8364V10.6H44.5024ZM44.3044 18.85C45.375 18.85 46.189 18.6227 46.7464 18.168C47.3037 17.6987 47.5824 17.0387 47.5824 16.188C47.5824 15.3227 47.3037 14.6627 46.7464 14.208C46.189 13.7387 45.375 13.504 44.3044 13.504H41.4004V18.85H44.3044ZM63.9653 20.126C63.9653 20.17 63.9433 20.478 63.8993 21.05H54.9453C55.1066 21.7833 55.488 22.3627 56.0893 22.788C56.6906 23.2133 57.4386 23.426 58.3333 23.426C58.9493 23.426 59.492 23.338 59.9613 23.162C60.4453 22.9713 60.8926 22.678 61.3033 22.282L63.1293 24.262C62.0146 25.538 60.3866 26.176 58.2453 26.176C56.9106 26.176 55.73 25.9193 54.7033 25.406C53.6766 24.878 52.8846 24.152 52.3273 23.228C51.77 22.304 51.4913 21.2553 51.4913 20.082C51.4913 18.9233 51.7626 17.882 52.3053 16.958C52.8626 16.0193 53.618 15.2933 54.5713 14.78C55.5393 14.252 56.6173 13.988 57.8053 13.988C58.964 13.988 60.0126 14.2373 60.9513 14.736C61.89 15.2347 62.6233 15.9533 63.1513 16.892C63.694 17.816 63.9653 18.894 63.9653 20.126ZM57.8273 16.584C57.05 16.584 56.3973 16.804 55.8693 17.244C55.3413 17.684 55.0186 18.2853 54.9013 19.048H60.7313C60.614 18.3 60.2913 17.706 59.7633 17.266C59.2353 16.8113 58.59 16.584 57.8273 16.584ZM68.4282 15.726C68.8389 15.154 69.3889 14.7213 70.0782 14.428C70.7822 14.1347 71.5889 13.988 72.4982 13.988V17.156C72.1169 17.1267 71.8602 17.112 71.7282 17.112C70.7455 17.112 69.9755 17.3907 69.4182 17.948C68.8609 18.4907 68.5822 19.312 68.5822 20.412V26H65.1502V14.164H68.4282V15.726ZM78.1484 13.988C79.9818 13.988 81.3898 14.428 82.3724 15.308C83.3551 16.1733 83.8464 17.486 83.8464 19.246V26H80.6344V24.526C79.9891 25.626 78.7864 26.176 77.0264 26.176C76.1171 26.176 75.3251 26.022 74.6504 25.714C73.9904 25.406 73.4844 24.9807 73.1324 24.438C72.7804 23.8953 72.6044 23.2793 72.6044 22.59C72.6044 21.49 73.0151 20.6247 73.8364 19.994C74.6724 19.3633 75.9558 19.048 77.6864 19.048H80.4144C80.4144 18.3 80.1871 17.728 79.7324 17.332C79.2778 16.9213 78.5958 16.716 77.6864 16.716C77.0558 16.716 76.4324 16.8187 75.8164 17.024C75.2151 17.2147 74.7018 17.4787 74.2764 17.816L73.0444 15.418C73.6898 14.9633 74.4598 14.6113 75.3544 14.362C76.2638 14.1127 77.1951 13.988 78.1484 13.988ZM77.8844 23.866C78.4711 23.866 78.9918 23.734 79.4464 23.47C79.9011 23.1913 80.2238 22.788 80.4144 22.26V21.05H78.0604C76.6524 21.05 75.9484 21.512 75.9484 22.436C75.9484 22.876 76.1171 23.228 76.4544 23.492C76.8064 23.7413 77.2831 23.866 77.8844 23.866ZM93.0466 13.988C94.5132 13.988 95.6939 14.428 96.5886 15.308C97.4979 16.188 97.9526 17.4933 97.9526 19.224V26H94.5206V19.752C94.5206 18.8133 94.3152 18.1167 93.9046 17.662C93.4939 17.1927 92.8999 16.958 92.1226 16.958C91.2572 16.958 90.5679 17.2293 90.0546 17.772C89.5412 18.3 89.2846 19.092 89.2846 20.148V26H85.8526V14.164H89.1306V15.55C89.5852 15.0513 90.1499 14.67 90.8246 14.406C91.4992 14.1273 92.2399 13.988 93.0466 13.988ZM112.148 9.676V26H108.87V24.636C108.02 25.6627 106.788 26.176 105.174 26.176C104.06 26.176 103.048 25.9267 102.138 25.428C101.244 24.9293 100.54 24.218 100.026 23.294C99.5131 22.37 99.2564 21.2993 99.2564 20.082C99.2564 18.8647 99.5131 17.794 100.026 16.87C100.54 15.946 101.244 15.2347 102.138 14.736C103.048 14.2373 104.06 13.988 105.174 13.988C106.685 13.988 107.866 14.4647 108.716 15.418V9.676H112.148ZM105.768 23.36C106.634 23.36 107.352 23.0667 107.924 22.48C108.496 21.8787 108.782 21.0793 108.782 20.082C108.782 19.0847 108.496 18.2927 107.924 17.706C107.352 17.1047 106.634 16.804 105.768 16.804C104.888 16.804 104.162 17.1047 103.59 17.706C103.018 18.2927 102.732 19.0847 102.732 20.082C102.732 21.0793 103.018 21.8787 103.59 22.48C104.162 23.0667 104.888 23.36 105.768 23.36ZM126.149 14.164V26H122.893V24.592C122.438 25.1053 121.895 25.5013 121.265 25.78C120.634 26.044 119.952 26.176 119.219 26.176C117.664 26.176 116.432 25.7287 115.523 24.834C114.613 23.9393 114.159 22.612 114.159 20.852V14.164H117.591V20.346C117.591 22.2527 118.39 23.206 119.989 23.206C120.81 23.206 121.47 22.942 121.969 22.414C122.467 21.8713 122.717 21.072 122.717 20.016V14.164H126.149ZM132.21 26.176C131.228 26.176 130.267 26.0587 129.328 25.824C128.39 25.5747 127.642 25.2667 127.084 24.9L128.228 22.436C128.756 22.7733 129.394 23.052 130.142 23.272C130.89 23.4773 131.624 23.58 132.342 23.58C133.794 23.58 134.52 23.2207 134.52 22.502C134.52 22.1647 134.322 21.9227 133.926 21.776C133.53 21.6293 132.922 21.5047 132.1 21.402C131.132 21.2553 130.333 21.0867 129.702 20.896C129.072 20.7053 128.522 20.368 128.052 19.884C127.598 19.4 127.37 18.7107 127.37 17.816C127.37 17.068 127.583 16.408 128.008 15.836C128.448 15.2493 129.079 14.7947 129.9 14.472C130.736 14.1493 131.719 13.988 132.848 13.988C133.684 13.988 134.513 14.0833 135.334 14.274C136.17 14.45 136.86 14.6993 137.402 15.022L136.258 17.464C135.217 16.8773 134.08 16.584 132.848 16.584C132.115 16.584 131.565 16.6867 131.198 16.892C130.832 17.0973 130.648 17.3613 130.648 17.684C130.648 18.0507 130.846 18.3073 131.242 18.454C131.638 18.6007 132.269 18.74 133.134 18.872C134.102 19.0333 134.894 19.2093 135.51 19.4C136.126 19.576 136.662 19.906 137.116 20.39C137.571 20.874 137.798 21.5487 137.798 22.414C137.798 23.1473 137.578 23.8 137.138 24.372C136.698 24.944 136.053 25.3913 135.202 25.714C134.366 26.022 133.369 26.176 132.21 26.176ZM140.114 26.176C139.513 26.176 139.007 25.9707 138.596 25.56C138.185 25.1493 137.98 24.636 137.98 24.02C137.98 23.3893 138.185 22.8833 138.596 22.502C139.007 22.106 139.513 21.908 140.114 21.908C140.715 21.908 141.221 22.106 141.632 22.502C142.043 22.8833 142.248 23.3893 142.248 24.02C142.248 24.636 142.043 25.1493 141.632 25.56C141.221 25.9707 140.715 26.176 140.114 26.176Z" fill="#212E44"/>
</svg>
