<svg width="1920" height="1569" viewBox="0 0 1920 1569" fill="none" xmlns="http://www.w3.org/2000/svg">
<mask id="mask0_70_96" style="mask-type:alpha" maskUnits="userSpaceOnUse" x="0" y="0" width="1920" height="1569">
<rect width="1920" height="1569" fill="#C4C4C4"/>
</mask>
<g mask="url(#mask0_70_96)">
<path fill-rule="evenodd" clip-rule="evenodd" d="M1945 0C1802.67 29.8333 1480.1 86.9 1328.5 76.5C1244.7 70.7512 1170.68 55.1267 1096.57 39.4852C1003.11 19.7562 909.509 0 796 0C696.233 0 603.075 18.3868 508.103 37.132C409.354 56.6223 308.644 76.5 196.5 76.5H-90V200H-86.069C-165.438 768.81 -291.166 1736.89 -243 1669C-179.5 1579.5 359.5 1452.5 656 1539C868.852 1601.1 1079.9 1550.07 1280.64 1501.54C1359.52 1482.47 1436.82 1463.78 1512 1452.5C1628.59 1435 1730.45 1455.78 1822.92 1474.65C1941.82 1498.91 2045.22 1520 2144.5 1452.5C2285.7 1356.5 2172.33 517.833 2098 110.5H1945V0Z" fill="#F8F9FA"/>
<path d="M1315.5 307.5C845.9 413.9 146.833 372.167 -144 338L-317.5 307.5L-276.5 1440.5C-72.3333 1467.67 329.8 1441.4 305 1119C274 716 -338 802.5 -195 639C-52 475.5 381.5 669.5 769.5 863.5C1079.9 1018.7 1708.83 778.5 1984.5 639L2198.5 368.5C2099.83 303.833 1785.1 201.1 1315.5 307.5Z" fill="#5187E2" fill-opacity="0.03"/>
</g>
</svg>
