<svg width="1920" height="1149" viewBox="0 0 1920 1149" fill="none" xmlns="http://www.w3.org/2000/svg">
<mask id="mask0_70_91" style="mask-type:alpha" maskUnits="userSpaceOnUse" x="0" y="0" width="1920" height="1149">
<rect width="1920" height="1149" fill="#C4C4C4"/>
</mask>
<g mask="url(#mask0_70_91)">
<path d="M1053 783C873.8 701.8 218 986.833 -87.5 1139.5L-229 -218.5L2039.5 -126.5L2064 1210.5C1801.67 1101.83 1232.2 864.2 1053 783Z" fill="#F8F9FA"/>
<path d="M846 737.5C1592 588 2098 1243.5 2118 1253.5L2474 174.5L1229 -305L-60 -195C-141 -9.66669 -291.7 401 -246.5 561C-190 761 100 887 846 737.5Z" fill="#5187E2" fill-opacity="0.03"/>
<path d="M826 564C530.4 508 52.1667 614 -150 674L-153 690.5L-203 -328.5L1991.5 -261.5C2063.67 -29.5 2189.3 465.8 2114.5 591C2021 747.5 1195.5 634 826 564Z" fill="#F8F9FA"/>
</g>
</svg>
