<svg width="77" height="30" viewBox="0 0 77 30" fill="none" xmlns="http://www.w3.org/2000/svg">
<path d="M76.7408 9.87925V8.95719H71.7463V9.87925L72.9098 10.1098C73.327 10.1976 73.4367 10.5269 73.1843 11.2075L70.4949 17.5631C70.3742 17.8266 70.2315 17.8266 70.1436 17.5631L67.6299 11.0977C67.3665 10.4281 67.5202 10.1317 67.9263 10L69.0899 9.87925V8.95719H58.7057V9.87925L59.8692 10.1098C60.2754 10.1976 60.429 10.5269 60.1656 11.2075L57.5641 18.0351C57.4433 18.2986 57.3006 18.2986 57.2128 18.0351L54.5893 11.2075C54.3478 10.5379 54.4686 10.2415 54.8747 10.1098L56.0492 9.87925V9.0011H49.4631V9.87925L50.0997 10.022C50.2996 10.0518 50.4874 10.1363 50.6424 10.2661C50.7973 10.3958 50.9134 10.5659 50.9779 10.7574L55.4455 21.7344H57.4543L61.9219 10.7574C62.1524 10.1647 62.4159 9.93414 62.8879 9.93414H63.0525C63.4367 9.93414 63.7331 10.0768 63.9636 10.6367L68.6288 22.0198L67.3775 24.9945C66.5542 26.9813 65.9505 27.3326 65.1821 27.3326C64.8528 27.3326 64.4905 27.2777 64.1612 27.2777C63.9762 27.2642 63.7903 27.2887 63.6151 27.3497C63.4398 27.4106 63.2789 27.5068 63.1422 27.6322C63.0055 27.7576 62.8958 27.9097 62.82 28.079C62.7442 28.2483 62.7038 28.4314 62.7013 28.6169C62.7013 29.4072 63.3379 29.9561 64.3588 29.9561C65.8187 29.9561 67.2567 28.7925 68.4422 25.9934L74.8088 11.0757C74.9017 10.7926 75.0706 10.5404 75.2971 10.3468C75.5236 10.1532 75.799 10.0256 76.0931 9.97805L76.7408 9.87925ZM50.0888 20.8562L48.6618 20.7025C48.5587 20.6888 48.4651 20.6351 48.4014 20.5529C48.3377 20.4707 48.309 20.3667 48.3215 20.2634V0L43.1733 1.31723V1.92097L44.6332 2.39297C44.7341 2.43089 44.8198 2.50076 44.8773 2.59192C44.9347 2.68309 44.9608 2.79055 44.9515 2.89791V20.1098C44.9489 20.1892 44.93 20.2672 44.8961 20.339C44.8622 20.4108 44.8139 20.4749 44.7543 20.5273C44.6946 20.5798 44.6249 20.6195 44.5493 20.6439C44.4737 20.6684 44.394 20.6771 44.3149 20.6696H43.0086H41.6255C41.5461 20.6788 41.4657 20.6713 41.3894 20.6474C41.3131 20.6236 41.2427 20.584 41.1827 20.5313C41.1227 20.4785 41.0744 20.4137 41.041 20.3411C41.0076 20.2685 40.9899 20.1897 40.9889 20.1098V8.46323L35.8407 9.78046V10.3842L37.3226 10.8562C37.4237 10.8904 37.5102 10.9579 37.568 11.0476C37.6258 11.1373 37.6515 11.244 37.6409 11.3502V20.1976C37.647 20.2495 37.6427 20.3022 37.6283 20.3525C37.6139 20.4027 37.5897 20.4497 37.557 20.4905C37.5243 20.5314 37.4839 20.5653 37.438 20.5904C37.3921 20.6155 37.3417 20.6312 37.2896 20.6367L36.1041 20.7794V21.7124H50.0888V20.7903V20.8562ZM41.0438 5.48847C41.0438 4.02854 39.7265 2.9528 37.3116 2.9528C34.0185 2.9528 31.417 5.14819 31.417 8.44127C31.417 8.70472 31.417 8.91328 31.417 9.11087C30.557 8.75875 29.6349 8.5833 28.7057 8.59495C26.0822 8.59495 22.9208 10.1976 22.9208 13.6663C22.9538 14.4797 23.2031 15.2696 23.643 15.9546C24.0829 16.6396 24.6976 17.1948 25.4236 17.5631C23.0964 17.8814 21.7463 19.1438 21.7463 21.0977C21.7463 23.0516 23.327 24.5005 26.2688 24.1603L30.5278 23.6334C32.6574 23.3699 33.3599 24.1273 33.3599 25.236C33.3599 27.1679 31.5487 28.7157 28.6618 28.7157C26.3566 28.7157 25.5114 27.8924 25.5114 26.7289C25.5114 26.5532 25.5114 26.3227 25.5114 26.1471C25.5301 25.9923 25.5156 25.8353 25.4689 25.6865C25.4222 25.5377 25.3443 25.4006 25.2404 25.2843C25.1366 25.1679 25.0091 25.0751 24.8666 25.0119C24.724 24.9487 24.5696 24.9165 24.4137 24.9177C24.2265 24.9071 24.0392 24.9374 23.8648 25.0063C23.6904 25.0752 23.533 25.1812 23.4036 25.3169C23.2742 25.4526 23.1758 25.6148 23.1151 25.7922C23.0545 25.9697 23.0332 26.1582 23.0525 26.3447C23.0525 28.2766 24.8967 30 28.6618 30C32.8879 30 35.5772 27.2558 35.5772 24.1054C35.5772 21.5917 33.5575 20.2195 30.7913 20.5708L25.9175 21.1855C24.3149 21.3831 23.8099 20.8672 23.8099 20.0878C23.8099 19.3085 24.9076 18.3644 28.5081 18.3644H28.5849C31.2304 18.3644 34.3588 16.7618 34.3588 13.2821C34.3586 12.1893 33.9426 11.1376 33.1952 10.3403C32.9214 9.77752 32.7967 9.15388 32.833 8.52909C32.7895 8.02757 32.8485 7.52244 33.0065 7.04446C33.1644 6.56648 33.418 6.12563 33.7517 5.74876C34.0854 5.37189 34.4924 5.06688 34.9478 4.85229C35.4031 4.6377 35.8974 4.51803 36.4005 4.50055C37.1579 4.50055 37.3884 4.6213 37.3884 5.13721C37.3884 5.29089 37.3884 5.40066 37.3884 5.57629C37.3759 5.82807 37.4155 6.07972 37.5047 6.31551C37.5938 6.5513 37.7307 6.76617 37.9066 6.94669C38.0826 7.1272 38.2939 7.26949 38.5273 7.36465C38.7608 7.45981 39.0113 7.50579 39.2634 7.49974C39.5154 7.49369 39.7634 7.43572 39.992 7.32946C40.2206 7.2232 40.4249 7.07093 40.5919 6.88218C40.759 6.69342 40.8854 6.47223 40.9631 6.23242C41.0409 5.99262 41.0683 5.73936 41.0438 5.48847V5.48847ZM31.1645 13.5126C31.1645 15.5653 30.2315 17.3106 28.7715 17.3106C27.3116 17.3106 26.2688 15.7629 26.2688 13.3919C26.2688 11.3831 27.2018 9.60483 28.6837 9.60483C30.1656 9.60483 31.1645 11.1526 31.1645 13.5236V13.5126ZM21.7024 11.416C21.7024 5.60922 17.3116 0.998902 10.912 0.998902C9.48863 0.940597 8.06828 1.17302 6.73771 1.68199C5.40713 2.19096 4.19426 2.96579 3.17315 3.95917C2.15204 4.95254 1.34411 6.14362 0.7987 7.45968C0.253292 8.77573 -0.0181526 10.1891 0.000941753 11.6136C0.000941753 17.4314 4.39172 22.0417 10.8023 22.0417C12.2249 22.0926 13.643 21.8532 14.9701 21.3381C16.2972 20.8231 17.5055 20.0431 18.5213 19.0458C19.5371 18.0485 20.3391 16.8547 20.8785 15.5373C21.4178 14.2199 21.6832 12.8064 21.6585 11.3831L21.7024 11.416ZM17.3775 11.5258C17.3775 16.685 14.7759 20.7794 10.8571 20.7794C6.93837 20.7794 4.27097 16.8606 4.27097 11.4709C4.29293 6.30077 6.89447 2.19539 10.8023 2.19539C14.7101 2.19539 17.3884 6.11416 17.3884 11.5038" fill="#212E44"/>
</svg>
