<svg width="79" height="26" viewBox="0 0 79 26" fill="none" xmlns="http://www.w3.org/2000/svg">
<path d="M65.1851 12.993C65.0989 14.4595 65.0018 15.9369 64.9155 17.4142C64.9155 17.7161 64.9155 17.7161 65.1743 17.8131C67.0549 18.4783 69.0487 18.7642 71.0404 18.6542C72.5139 18.5657 73.9667 18.2642 75.3537 17.7592C75.3805 17.7555 75.4062 17.7461 75.4291 17.7319C75.4521 17.7176 75.4718 17.6987 75.4871 17.6764C75.5023 17.654 75.5127 17.6288 75.5176 17.6022C75.5225 17.5756 75.5218 17.5483 75.5155 17.522C75.3969 15.8722 75.289 14.2223 75.1704 12.5725C75.0842 11.2785 74.9979 9.97371 74.9008 8.66894C74.9008 8.44249 74.9008 8.20526 74.9008 7.96803C74.9008 7.73079 74.9008 7.79549 74.7175 7.87098C73.9261 8.27319 73.09 8.58084 72.2266 8.78755C71.0979 9.08492 69.9075 9.05123 68.7975 8.6905C67.8505 8.39281 67.0352 7.77756 66.489 6.94857C65.9429 6.11958 65.6995 5.12759 65.7998 4.13997C65.8608 3.24694 66.1901 2.39316 66.7446 1.6905C67.2991 0.987831 68.0529 0.469051 68.9073 0.202129C69.7617 -0.0647934 70.6768 -0.0674092 71.5327 0.194624C72.3886 0.456657 73.1454 0.971118 73.7039 1.6706C74.0528 2.04574 74.3436 2.471 74.5666 2.93224C74.5666 3.01851 74.5666 3.07243 74.5019 3.11556L72.0756 4.19388C71.957 4.2478 71.9247 4.19388 71.8815 4.10762C71.6267 3.5986 71.1809 3.21099 70.6414 3.02929C70.4389 2.97537 70.2272 2.96518 70.0204 2.99939C69.8136 3.0336 69.6164 3.11142 69.442 3.2277C69.2676 3.34397 69.1199 3.49603 69.0088 3.67377C68.8977 3.85151 68.8257 4.05087 68.7975 4.25858C68.7483 4.46363 68.7446 4.67696 68.7866 4.88359C68.8287 5.09023 68.9154 5.28516 69.0408 5.45471C69.1661 5.62426 69.3271 5.76432 69.5123 5.86505C69.6976 5.96579 69.9026 6.02476 70.1131 6.03782C70.8432 6.12522 71.5836 6.03267 72.2697 5.76824C73.3449 5.3844 74.364 4.85855 75.2998 4.20467C75.478 4.07071 75.6827 3.97638 75.9003 3.92803C76.1179 3.87968 76.3433 3.8784 76.5615 3.9243C76.8721 3.99993 77.1479 4.17869 77.3437 4.43136C77.5396 4.68403 77.644 4.99567 77.6398 5.31534C77.7476 6.70638 77.8339 8.10821 77.9309 9.49925C78.028 10.8903 78.1466 12.4646 78.2436 13.942C78.3299 15.2036 78.427 16.4544 78.5024 17.7161C78.5503 18.2995 78.4039 18.8824 78.086 19.3739C77.7681 19.8654 77.2965 20.2379 76.7448 20.4335C74.371 21.3585 71.8263 21.763 69.2828 21.6196C67.3712 21.5304 65.4875 21.126 63.7078 20.4227C63.1479 20.2161 62.672 19.8302 62.3541 19.3251C62.0362 18.82 61.8942 18.224 61.9501 17.6298C62.0688 15.9045 62.1658 14.1684 62.2736 12.4323L62.5648 8.28074C62.5648 8.14056 62.5648 8.09742 62.7481 8.10821C63.6108 8.17291 64.4734 8.22682 65.3469 8.26996C65.4978 8.26996 65.5086 8.33466 65.5086 8.46406C65.4008 9.98449 65.3145 11.5049 65.2175 13.0362L65.1851 12.993Z" fill="#212E44"/>
<path d="M7.67799 21.0374C6.16647 21.0869 4.6611 20.8225 3.25686 20.261C2.28964 19.8677 1.41543 19.2763 0.690442 18.5249C0.496343 18.3847 0.313028 18.1367 0.118929 17.9534C-0.0751694 17.7701 0.000313461 17.7485 0.118929 17.6407L1.63937 16.3144L3.03041 15.1498C3.05266 15.1227 3.08065 15.1009 3.11234 15.0859C3.14404 15.0709 3.17866 15.0631 3.21372 15.0631C3.24878 15.0631 3.28341 15.0709 3.31511 15.0859C3.3468 15.1009 3.37479 15.1227 3.39704 15.1498C3.83915 15.5272 4.22735 15.9801 4.7126 16.3251C5.27503 16.728 5.91859 17.0033 6.59838 17.1318C7.27817 17.2603 7.97781 17.2389 8.64849 17.0692C9.00523 16.9969 9.32557 16.8024 9.55428 16.5192C9.71623 16.2974 9.78744 16.0222 9.75338 15.7496C9.71931 15.4771 9.58254 15.2278 9.37096 15.0527C8.98835 14.7782 8.55042 14.5905 8.08776 14.5028L5.01453 13.8234C3.85518 13.6042 2.79044 13.0361 1.96287 12.1952C1.2965 11.4986 0.88269 10.5988 0.787491 9.63952C0.70649 8.8458 0.813622 8.04415 1.10021 7.29956C1.4494 6.34911 2.08169 5.52864 2.91179 4.9488C3.96482 4.20395 5.20448 3.76708 6.49184 3.68716C7.77043 3.56563 9.06048 3.67892 10.2983 4.02144C11.2854 4.27634 12.2124 4.72339 13.0265 5.337C13.3931 5.62815 13.7166 5.96243 14.0509 6.28593C14.1587 6.39376 14.0509 6.45846 14.0509 6.53394C13.3392 7.24564 12.6383 7.96812 11.8942 8.6906C11.7433 8.84156 11.6031 8.99253 11.4629 9.15428C11.4437 9.17699 11.4197 9.19524 11.3927 9.20776C11.3657 9.22028 11.3363 9.22676 11.3066 9.22676C11.2768 9.22676 11.2474 9.22028 11.2204 9.20776C11.1934 9.19524 11.1694 9.17699 11.1502 9.15428C10.7944 8.89548 10.4493 8.63668 10.0719 8.38866C9.43384 7.92405 8.69475 7.61733 7.91523 7.49365C7.29989 7.38101 6.6649 7.45615 6.09285 7.70932C5.89123 7.77798 5.71671 7.90905 5.59457 8.08354C5.47243 8.25802 5.40901 8.46687 5.41351 8.67981C5.42056 8.8333 5.46564 8.98263 5.54469 9.11439C5.62374 9.24614 5.73429 9.35619 5.86641 9.43464C6.13241 9.61494 6.43389 9.73627 6.75063 9.79049L9.98561 10.5453C10.8464 10.7364 11.6674 11.0757 12.4118 11.5482C12.9878 11.9146 13.4701 12.4106 13.8203 12.9966C14.1704 13.5827 14.3786 14.2425 14.4283 14.9233C14.5087 15.6022 14.4467 16.2904 14.2462 16.9439C14.0456 17.5975 13.711 18.2021 13.2637 18.719C12.3274 19.8298 11.029 20.5745 9.59741 20.8218C8.96603 20.9552 8.32324 21.0274 7.67799 21.0374V21.0374Z" fill="#212E44"/>
<path d="M35.6066 17.425V9.1866C35.6066 8.88467 35.6066 8.88467 35.8977 8.88467H39.4346C39.6826 8.88467 39.6826 8.88467 39.6826 9.13269C39.6826 9.3807 39.6826 9.41305 39.6826 9.55324C39.6826 9.69342 39.6826 9.6395 39.6826 9.66107C39.6826 9.68263 39.7689 9.66107 39.8013 9.60715C40.3563 9.07213 41.0655 8.72509 41.8285 8.61509C42.7099 8.44835 43.6186 8.49761 44.4768 8.75864C45.335 9.01966 46.1172 9.4847 46.7565 10.114C47.8083 11.1142 48.447 12.4724 48.5465 13.9205C48.6716 14.9232 48.5834 15.9411 48.2877 16.9074C47.9912 17.9679 47.3914 18.9186 46.5619 19.6428C45.7323 20.3669 44.7093 20.8329 43.6185 20.9835C42.9015 21.0899 42.1712 21.068 41.4619 20.9188C41.4273 20.9176 41.3934 20.9092 41.3623 20.8941C41.3311 20.879 41.3035 20.8575 41.2812 20.8311C41.2588 20.8047 41.2423 20.7739 41.2325 20.7408C41.2228 20.7076 41.2201 20.6727 41.2246 20.6384C41.2246 19.5601 41.2246 18.4818 41.2246 17.4034C41.2246 17.1878 41.2246 17.1986 41.4511 17.1986C41.9279 17.26 42.4123 17.2233 42.8745 17.0907C43.3175 16.9223 43.7021 16.6288 43.9816 16.246C44.2611 15.8631 44.4234 15.4074 44.4488 14.9341C44.4897 14.4803 44.3959 14.0245 44.1792 13.6236C43.9625 13.2228 43.6324 12.8947 43.2303 12.6804C42.8943 12.4872 42.5158 12.38 42.1283 12.3685C41.7409 12.357 41.3566 12.4414 41.0098 12.6143C40.6629 12.7872 40.3641 13.0433 40.1401 13.3596C39.9161 13.6759 39.7737 14.0426 39.7258 14.4273C39.7097 14.639 39.7097 14.8517 39.7258 15.0635V25.8467C39.7296 25.8674 39.7284 25.8887 39.7222 25.9088C39.716 25.9289 39.7049 25.9471 39.6901 25.962C39.6752 25.9769 39.6569 25.9879 39.6369 25.9941C39.6168 26.0003 39.5955 26.0016 39.5748 25.9977H35.8654C35.6066 25.933 35.6066 25.933 35.6066 25.6742V17.425Z" fill="#212E44"/>
<path d="M15.5389 12.3568V4.36643C15.5389 4.05371 15.5389 4.05371 15.8409 4.05371H19.3346C19.6474 4.05371 19.6474 4.05371 19.6474 4.37721V9.661C19.6474 9.661 19.6474 9.75805 19.6474 9.77962C19.6474 9.80119 19.7228 9.77962 19.7552 9.7257C19.9197 9.58434 20.0965 9.45803 20.2836 9.34829C21.011 8.91185 21.8312 8.65324 22.6775 8.59346C23.5358 8.49925 24.4043 8.61012 25.2115 8.91696C26.0067 9.21639 26.7061 9.72522 27.2357 10.3896C27.7653 11.054 28.1054 11.8492 28.2201 12.6911C28.272 13.012 28.2972 13.3366 28.2955 13.6616V20.4227C28.2955 20.7138 28.2955 20.7138 27.9936 20.7138H24.489C24.2302 20.7138 24.2302 20.7138 24.2302 20.455C24.2302 18.6111 24.2302 16.7672 24.2302 14.9232C24.239 14.5571 24.1843 14.1923 24.0685 13.8449C23.9018 13.3608 23.5684 12.9519 23.1279 12.6911C22.6873 12.4303 22.1684 12.3348 21.6638 12.4215C21.0966 12.4737 20.5714 12.7427 20.1977 13.1727C19.824 13.6026 19.6307 14.1602 19.6581 14.7291C19.6581 16.6378 19.6581 18.5464 19.6581 20.455C19.6581 20.7354 19.6581 20.7354 19.3778 20.7462C18.1916 20.7462 17.0055 20.7462 15.8085 20.7462C15.5497 20.7462 15.5497 20.7462 15.5497 20.4658L15.5389 12.3568Z" fill="#212E44"/>
<path d="M49.8298 11.4835V5.69292C49.8298 5.42334 49.8298 5.42334 50.0993 5.42334H53.7225C53.9382 5.44491 53.9382 5.44491 53.9382 5.67135V8.67988C53.9382 8.91712 53.9382 8.9279 54.1862 8.9279H57.4212C57.68 8.9279 57.68 8.9279 57.68 9.1867V12.055C57.68 12.3462 57.68 12.3462 57.3996 12.3462H54.1646C53.9166 12.3462 53.9058 12.3462 53.9058 12.5942V15.592C53.9058 15.8292 53.9058 16.0556 53.9058 16.2929C53.9058 16.9938 54.4126 17.3712 55.1567 17.1447C55.5491 17.0244 55.9151 16.8304 56.235 16.5732C56.5369 16.3683 56.4722 16.3576 56.6663 16.6595C57.1408 17.4035 57.6045 18.1476 58.0789 18.8808C58.1184 18.9358 58.1397 19.0018 58.1397 19.0696C58.1397 19.1373 58.1184 19.2033 58.0789 19.2583C57.7683 19.717 57.345 20.0883 56.8497 20.3366C56.1334 20.7077 55.3473 20.9244 54.542 20.9728C53.6638 21.0509 52.7801 20.9024 51.9756 20.5415C51.3647 20.3104 50.8348 19.9053 50.4516 19.3764C50.0683 18.8475 49.8484 18.2178 49.819 17.5653C49.819 17.2202 49.819 16.8859 49.819 16.487L49.8298 11.4835Z" fill="#212E44"/>
<path d="M33.9676 14.7722V20.401C33.9676 20.6706 33.9676 20.6706 33.6764 20.6706H30.0748C29.8376 20.6706 29.8268 20.6706 29.8268 20.4226V9.14332C29.8268 8.88452 29.8268 8.88452 30.0856 8.88452H33.7088C33.9568 8.88452 33.9676 8.88452 33.9676 9.13254V14.7722Z" fill="#212E44"/>
<path d="M34.2588 5.36939C34.2602 5.67941 34.2 5.98662 34.0817 6.27318C33.9634 6.55974 33.7894 6.81994 33.5697 7.03866C33.3499 7.25737 33.0889 7.43025 32.8018 7.54724C32.5147 7.66423 32.2073 7.723 31.8972 7.72014C31.2728 7.71444 30.676 7.46164 30.2375 7.01706C29.799 6.57247 29.5544 5.97228 29.5573 5.34782C29.5573 4.72436 29.8049 4.12644 30.2458 3.68559C30.6866 3.24474 31.2846 2.99707 31.908 2.99707C32.5315 2.99707 33.1294 3.24474 33.5703 3.68559C34.0111 4.12644 34.2588 4.72436 34.2588 5.34782V5.36939Z" fill="#212E44"/>
</svg>
