<svg width="97" height="30" viewBox="0 0 97 30" fill="none" xmlns="http://www.w3.org/2000/svg">
<path d="M46.1153 11.3133C46.5051 11.3133 46.7835 11.7865 47.9109 11.7865C48.4944 11.7792 49.0516 11.5433 49.4629 11.1294C49.8742 10.7155 50.1066 10.1568 50.1102 9.57333C50.1444 9.14319 50.0225 8.71514 49.7669 8.36751C49.5113 8.01988 49.139 7.77592 48.7183 7.68027C47.0619 6.97038 46.6582 6.67807 46.6582 6.13521C46.6575 5.99134 46.687 5.84892 46.7448 5.71715C46.8025 5.58537 46.8873 5.46716 46.9935 5.37012C47.0997 5.27308 47.2251 5.19937 47.3615 5.15373C47.498 5.1081 47.6424 5.09155 47.7857 5.10516C49.2472 5.10516 49.4003 6.49711 49.5534 6.49711C49.7066 6.49711 49.7344 6.28832 49.7344 5.87074C49.7804 5.60827 49.7804 5.33979 49.7344 5.07732C49.2412 4.84787 48.7054 4.72457 48.1615 4.71542C47.8848 4.67778 47.6033 4.69963 47.3357 4.77949C47.0681 4.85936 46.8206 4.9954 46.6098 5.17854C46.399 5.36167 46.2297 5.58769 46.1133 5.84148C45.9968 6.09526 45.9358 6.37099 45.9344 6.65023C45.9344 7.80555 46.9923 8.20921 47.8692 8.65464C48.5095 8.96087 49.3307 9.21142 49.3307 10.0466C49.3094 10.4011 49.1534 10.734 48.8947 10.9773C48.6359 11.2205 48.2939 11.3557 47.9388 11.355C46.1988 11.355 46.3798 9.22534 46.0457 9.22534C45.7117 9.22534 45.8369 9.74036 45.8369 10.0187C45.7534 11.2993 45.7534 11.3133 46.1153 11.3133ZM51.1681 9.92131C51.1681 11.5638 52.226 11.7726 52.9637 11.7726C54.1051 11.7726 54.9681 11.2297 54.9681 10.9653C54.9681 10.7008 54.9681 10.8122 54.8429 10.8122C54.7176 10.8122 54.2861 11.1462 53.4787 11.1462C53.3393 11.1638 53.1978 11.1519 53.0633 11.1112C52.9288 11.0706 52.8043 11.0021 52.698 10.9102C52.5917 10.8183 52.5058 10.7051 52.4461 10.5779C52.3864 10.4507 52.3541 10.3124 52.3513 10.1719V5.57843H54.4392L54.6341 4.99381C54.6341 4.99381 54.5088 4.99381 54.1051 4.99381H52.3234C52.3234 3.83849 52.3234 3.50442 52.1286 3.50442C51.9337 3.50442 51.8641 3.39306 51.7945 3.90809C51.6701 4.54732 51.313 5.11768 50.7923 5.50883C50.7923 5.50883 50.5696 5.67586 51.1681 5.64802V9.92131ZM96.671 11.1462H96.3787C95.5574 11.1462 95.6966 10.1997 95.6966 9.65684V6.38576C95.6966 4.99381 94.1516 4.74326 93.1493 4.74326C91.3537 4.74326 90.4768 5.82898 90.449 6.56671C90.449 6.85902 90.9362 7.10957 91.2285 7.10957C91.5208 7.10957 91.5764 6.9843 91.5764 6.80334C91.5764 6.62239 91.479 6.38576 91.479 6.16305C91.479 5.28612 92.0915 5.18868 92.871 5.18868C93.8732 5.18868 94.5135 5.74546 94.5135 6.58063V7.79163C90.783 8.36233 90.4768 9.42021 90.4768 10.2693C90.4768 11.3968 91.1728 11.7865 92.2167 11.7865C93.1154 11.784 93.982 11.4522 94.6527 10.8539C94.7369 11.1129 94.907 11.3354 95.1347 11.4847C95.3625 11.634 95.6343 11.7012 95.9054 11.6752C96.142 11.6752 96.8241 11.6752 96.8241 11.2715C96.8659 11.1462 96.7406 11.1462 96.671 11.1462ZM94.5552 10.0327C94.5552 10.8818 93.4695 11.3411 92.8849 11.3411C92.0358 11.3411 91.5764 10.9792 91.5764 10.0883C91.5764 8.6964 93.5252 8.41801 94.5691 8.18137L94.5552 10.0327ZM27.2962 1.61137L30.8456 10.3667C31.2771 11.4803 31.4024 11.9396 31.639 11.9396C31.8757 11.9396 31.9174 11.8561 32.0427 11.5221L33.8383 7.05389C33.8523 7.02604 33.8745 7.00313 33.9018 6.9882C33.9292 6.97328 33.9605 6.96706 33.9914 6.97038C33.9914 6.97038 34.075 6.97038 34.1028 7.12349L35.8706 11.2993C36.1072 11.8144 36.149 11.9257 36.3021 11.9257C36.4552 11.9257 36.664 11.6195 36.7753 11.3829L40.9512 1.63921C41.4801 0.38645 41.8699 0.817955 41.8699 0.456048C41.8699 0.0941405 41.7585 0.302933 41.6193 0.302933C41.2435 0.302933 40.7702 0.302933 40.2274 0.302933C39.6845 0.302933 39.4618 0.302933 39.0999 0.302933C39.0025 0.302933 38.9189 0.414289 38.9189 0.539565C38.9189 0.66484 39.949 0.748357 39.949 1.43041C39.9506 1.61585 39.9175 1.79996 39.8516 1.97327L36.9702 9.16966C36.8171 9.51765 36.7475 9.75428 36.6222 9.75428C36.497 9.75428 36.4134 9.629 36.2603 9.2671L34.8684 5.95425C34.764 5.70985 34.6937 5.45224 34.6596 5.18868C34.6595 4.9722 34.707 4.75836 34.7988 4.5623L35.9263 1.94544C36.6501 0.261175 37.0398 0.873633 37.0398 0.428209C37.034 0.402248 37.0201 0.378812 37.0001 0.361294C36.98 0.343776 36.955 0.333086 36.9285 0.330772C36.6501 0.330772 36.4691 0.330772 35.7592 0.330772C35.3973 0.330772 35.0632 0.330772 34.7013 0.330772C34.6039 0.330772 34.3673 0.330772 34.3673 0.483887C34.3673 0.637001 35.3138 0.748357 35.286 1.43041C35.2804 1.63888 35.2281 1.84343 35.1328 2.02895L34.3812 3.89417C34.2838 4.1308 34.2002 4.31175 34.1585 4.31175C34.1167 4.31175 34.075 4.21431 33.9497 3.89417L33.1284 1.76448C33.049 1.61476 33.0106 1.44667 33.0171 1.2773C33.0171 0.748357 33.6713 0.790116 33.6713 0.539565C33.6713 0.289014 33.6713 0.358611 33.5599 0.358611C33.198 0.358611 32.7665 0.358611 32.0009 0.358611C31.7643 0.358611 30.9152 0.358611 30.3724 0.358611C30.2193 0.358611 30.1497 0.358611 30.1497 0.539565C30.1497 1.08243 31.2771 0.539565 31.7086 1.56961L33.4068 5.41139C33.4767 5.56724 33.5281 5.73076 33.5599 5.89858C33.5247 6.11831 33.4639 6.33319 33.379 6.53887L32.1958 9.32277C32.1958 9.50373 32.0427 9.61508 31.9592 9.61508C31.8757 9.61508 31.7504 9.37845 31.6808 9.1975L28.6324 1.69488C28.5706 1.5642 28.5374 1.42184 28.535 1.2773C28.535 0.748357 29.217 0.748357 29.217 0.483887C29.217 0.219416 29.217 0.302933 29.0918 0.302933C28.7159 0.302933 28.3262 0.302933 27.9365 0.302933C27.5467 0.302933 26.9899 0.302933 26.5445 0.302933C26.3914 0.302933 26.1548 0.302933 26.1548 0.567404C26.1548 0.831874 26.9064 0.66484 27.2962 1.61137ZM39.1138 8.47368C39.1173 9.33428 39.4569 10.1595 40.0602 10.7732C40.6635 11.3869 41.4827 11.7405 42.3431 11.7587C42.8939 11.7432 43.4333 11.5977 43.9171 11.334C44.4009 11.0704 44.8155 10.696 45.127 10.2415C45.127 10.2415 45.127 10.144 45.127 10.144C44.7651 10.144 44.2501 10.9653 42.8721 10.9653C41.8977 10.9653 40.2691 10.1579 40.2691 7.51324H44.5563C44.9183 7.51324 45.0992 7.51324 45.0992 7.23485C45.0036 6.5516 44.6737 5.92273 44.166 5.45563C43.6583 4.98852 43.0041 4.71213 42.3153 4.67366C40.2552 4.7015 39.1138 6.4136 39.1138 8.47368ZM42.0091 5.07732C42.4621 5.0901 42.8941 5.27111 43.2209 5.58505C43.5477 5.899 43.7459 6.32339 43.7769 6.7755C43.7769 7.01214 43.6794 7.10957 43.4428 7.10957H40.3666C40.3666 6.23264 41.0347 5.07732 42.0091 5.07732ZM89.0849 10.6034V4.85461C89.0849 4.7015 88.9735 4.59014 88.9039 4.59014C88.5142 4.59014 88.2079 5.10516 87.1779 5.38355C87.1779 5.38355 87.0248 5.49491 87.0248 5.56451C87.0248 5.89857 87.9017 5.49491 87.9017 6.44144V10.2415C87.9017 11.3411 87.5398 11.2715 87.331 11.2993C87.1222 11.3272 86.1339 11.2993 86.1339 10.3667V7.72203C86.1339 6.49711 85.6607 4.71542 83.5031 4.71542C82.6074 4.80453 81.7778 5.22679 81.1786 5.89858V4.85461C81.1786 4.7015 81.0672 4.59014 80.9976 4.59014C80.6079 4.59014 80.3016 5.10516 78.9654 5.38355C78.8819 5.38355 78.8123 5.49491 78.8123 5.56451C78.8123 5.89857 79.9954 5.49491 79.9954 6.44144V10.4224C80.0109 10.5314 80.0012 10.6426 79.9672 10.7473C79.9333 10.852 79.8758 10.9477 79.7993 11.0268C79.7228 11.106 79.6292 11.1667 79.5257 11.2043C79.4222 11.2419 79.3115 11.2553 79.202 11.2437C79.0906 11.2437 78.1163 11.2437 78.1163 10.6034V4.85461C78.1163 4.7015 78.0188 4.59014 77.9353 4.59014C77.5595 4.59014 77.2394 5.10516 76.2232 5.38355C75.9271 5.4894 75.6181 5.55494 75.3045 5.57843C75.1428 5.59866 74.9791 5.59866 74.8174 5.57843C74.6921 5.57843 74.5807 5.43923 74.4555 5.36963C73.9439 5.02654 73.3281 4.87383 72.7155 4.93813C72.3691 4.92511 72.0235 4.98143 71.6991 5.10379C71.3747 5.22614 71.0781 5.41207 70.8265 5.65065C70.575 5.88923 70.3736 6.17565 70.2343 6.49311C70.095 6.81057 70.0204 7.15267 70.0151 7.49932C70.0063 7.88488 70.0902 8.26693 70.2597 8.61331C70.4293 8.9597 70.6796 9.2603 70.9895 9.48981C70.5769 9.84796 70.3054 10.3415 70.2239 10.8818C70.1855 11.1538 70.2284 11.4312 70.3473 11.6789C70.4662 11.9266 70.6557 12.1335 70.8921 12.2737C71.5774 12.5023 72.3013 12.5922 73.0217 12.5382C74.7617 12.5382 75.1236 12.6495 75.1236 13.1785C75.1236 13.4429 74.9983 14.6679 72.5624 14.6679C71.936 14.6679 70.5023 14.5704 70.5023 13.4708C70.4826 13.353 70.4913 13.2322 70.5276 13.1184C70.5639 13.0047 70.6268 12.9012 70.7111 12.8166C70.7346 12.779 70.747 12.7356 70.747 12.6913C70.747 12.647 70.7346 12.6036 70.7111 12.566C70.6831 12.5175 70.6424 12.4775 70.5933 12.4505C70.5442 12.4235 70.4887 12.4105 70.4327 12.4129H70.3492C70.114 12.454 69.9035 12.5837 69.7611 12.7753C69.6186 12.9669 69.5551 13.2059 69.5836 13.4429C69.5836 14.8349 71.421 15.2386 72.3675 15.2386C75.054 15.2386 76.0005 13.9301 76.0005 12.8027C76.0005 11.2576 74.3441 11.2576 73.4393 11.2576H72.7155C72.1291 11.335 71.534 11.2072 71.0312 10.8957C71.0034 10.8478 70.9853 10.7948 70.9782 10.7398C70.971 10.6848 70.9749 10.629 70.9895 10.5755C70.9861 10.3818 71.0513 10.1932 71.1736 10.0429C71.2958 9.89259 71.4673 9.79037 71.6576 9.75428H71.8386C72.1384 9.83246 72.4474 9.86992 72.7573 9.86563C73.1121 9.89242 73.4687 9.84577 73.8047 9.72858C74.1407 9.6114 74.449 9.4262 74.7102 9.18456C74.9714 8.94291 75.1801 8.65 75.323 8.32412C75.466 7.99824 75.5403 7.64639 75.5412 7.29053C75.5358 6.98861 75.4889 6.68886 75.402 6.39968C75.3849 6.33717 75.3616 6.27654 75.3324 6.21872C75.3324 6.21872 75.3324 6.13521 75.3324 6.09345C75.8114 6.04887 76.2807 5.93152 76.7243 5.74546C76.9053 5.74546 77.0027 5.88466 77.0027 6.37184V10.2415C77.0027 11.703 76.2789 11.0906 76.2789 11.4942C76.2789 11.6473 76.3903 11.6752 76.5155 11.6752C76.6408 11.6752 77.1002 11.6752 77.6152 11.6752C78.1302 11.6752 78.7705 11.6752 79.1046 11.6752H79.3412C79.5222 11.6752 79.8562 11.6752 80.7331 11.6752C81.6101 11.6752 81.9859 11.6752 82.2365 11.6752C82.487 11.6752 82.5984 11.6752 82.5984 11.4525C82.5984 11.007 81.2064 11.4525 81.2064 10.3667V6.69199C81.3271 6.29565 81.5821 5.95374 81.9276 5.7251C82.2731 5.49646 82.6875 5.39538 83.0995 5.43923C83.6016 5.47494 84.0704 5.70356 84.4077 6.0772C84.745 6.45084 84.9247 6.94051 84.909 7.44364V10.4224C84.909 11.4525 84.213 11.1462 84.213 11.4525C84.213 11.7587 84.2965 11.6473 84.4914 11.6473C84.6863 11.6473 85.0343 11.6473 85.6467 11.6473C86.2592 11.6473 86.8299 11.6473 87.0387 11.6473H87.4284C87.6094 11.6473 88.013 11.6473 88.5281 11.6473C89.0431 11.6473 89.6834 11.6473 90.0175 11.6473C90.3515 11.6473 90.3237 11.6473 90.3237 11.4803C90.3237 11.0627 89.0849 11.4246 89.0849 10.6034ZM72.8965 9.29494C71.769 9.29494 71.3792 8.18137 71.3792 7.23485C71.3792 6.28832 71.6298 5.36963 72.7712 5.36963C73.9126 5.36963 74.2884 6.49711 74.2884 7.49932C74.358 8.02826 74.2049 9.29494 72.8965 9.29494ZM77.6152 4.04728C77.824 4.04728 78.2833 3.40698 78.2833 3.22603C78.2833 3.04508 77.824 2.39086 77.6152 2.39086C77.4064 2.39086 76.947 3.059 76.947 3.22603C76.947 3.39306 77.4342 4.04728 77.6152 4.04728ZM88.5977 4.04728C88.8065 4.04728 89.2658 3.40698 89.2658 3.22603C89.2658 3.04508 88.8343 2.37694 88.5977 2.37694C88.361 2.37694 87.9435 3.04508 87.9435 3.22603C87.9435 3.40698 88.4306 3.97768 88.5977 3.97768V4.04728ZM66.3265 11.3689C66.1873 11.3689 65.1433 11.3689 65.1433 10.673V4.82677C65.1433 4.67366 65.0319 4.5623 64.9623 4.5623C64.5726 4.5623 64.2664 5.07732 63.2363 5.36963C63.1966 5.37804 63.1605 5.39866 63.133 5.42861C63.1055 5.45856 63.0881 5.49634 63.0832 5.53667C63.0832 5.87074 63.9601 5.46707 63.9601 6.4136V10.2136C63.9601 11.6752 63.2363 11.0627 63.2363 11.4803C63.2363 11.6334 63.3477 11.6473 63.473 11.6473C63.5982 11.6473 64.0576 11.6473 64.5726 11.6473C65.0876 11.6473 65.7279 11.6473 66.062 11.6473H66.3404C66.8316 11.6124 67.3246 11.6124 67.8158 11.6473C68.7067 11.6473 69.0964 11.6473 69.3192 11.6473C69.5419 11.6473 69.5836 11.6473 69.5836 11.4803C69.5836 10.9653 68.1917 11.7308 68.1917 10.2415V6.67807C68.4617 6.0258 68.9057 5.4602 69.4751 5.04293C70.0446 4.62566 70.7177 4.37274 71.421 4.31175C72.0056 4.31175 71.9082 4.31175 72.2979 3.76889C72.451 3.51834 71.6994 3.51834 71.3653 3.54618C70.6694 3.60994 70.0051 3.86646 69.4469 4.28692C68.8888 4.70738 68.4589 5.27514 68.2056 5.92641V4.82677C68.2056 4.67366 68.1082 4.5623 68.0246 4.5623C67.6488 4.5623 67.3426 5.07732 66.1037 5.36963C66.0342 5.36963 65.895 5.36963 65.895 5.53667C65.895 5.87074 67.0503 5.46707 67.0503 6.4136V10.5894C67.0503 10.6839 67.0315 10.7773 66.9949 10.8644C66.9584 10.9514 66.9049 11.0303 66.8375 11.0964C66.77 11.1625 66.6901 11.2145 66.6024 11.2494C66.5147 11.2842 66.4208 11.3012 66.3265 11.2993V11.3689ZM55.1909 1.62529L59.1718 11.0488C59.3249 11.3829 59.5059 12.051 59.7565 12.051C60.007 12.051 60.1184 11.5081 60.2993 11.1184L64.3081 1.68096C64.7396 0.595243 65.199 1.01283 65.199 0.650921C65.199 0.497806 65.1015 0.442128 64.9206 0.442128C64.7396 0.442128 64.4612 0.442128 63.6818 0.442128C63.3338 0.442128 62.9719 0.442128 62.6378 0.442128C62.3037 0.442128 62.4012 0.442128 62.4012 0.650921C62.4012 1.02675 63.4312 0.650921 63.4312 1.44433C63.4454 1.81597 63.3639 2.18503 63.1946 2.51613L60.4107 9.47589C60.4107 9.67076 60.2854 9.90739 60.1323 9.90739C59.9792 9.90739 59.8539 9.54549 59.492 8.6964L56.7081 2.08463C56.6106 1.82442 56.5452 1.55332 56.5132 1.2773C56.5132 0.692679 57.1813 0.692679 57.1535 0.456048C57.1257 0.219416 57.07 0.302933 56.9308 0.302933C56.7916 0.302933 56.0956 0.302933 55.6641 0.302933C55.2326 0.302933 54.6897 0.302933 54.2026 0.302933C54.1495 0.305834 54.0986 0.324648 54.0564 0.356925C54.0141 0.389202 53.9826 0.433444 53.9659 0.483887V0.483887C53.9659 0.873633 54.7872 0.567404 55.2048 1.51393L55.1909 1.62529ZM37.9307 14.1528C37.9307 14.0415 37.8054 13.9719 37.7219 13.9719H36.8449H34.9658L34.7988 13.9301C34.7988 14.5426 36.3021 13.9301 36.3021 15.503V20.7368C36.3021 22.6437 35.6061 24.6203 32.5856 24.6203C32.0795 24.6706 31.5685 24.6094 31.0886 24.441C30.6087 24.2725 30.1715 24.0009 29.8079 23.6452C29.4443 23.2896 29.1631 22.8586 28.9841 22.3825C28.805 21.9065 28.7325 21.397 28.7716 20.8899C28.7716 20.8899 28.7716 15.1133 28.7716 15.1133C28.7716 13.958 29.8573 14.3895 29.8573 13.958C29.8573 13.7492 29.4258 13.8049 29.3423 13.8049C28.8551 13.8049 28.3401 13.8049 27.8251 13.8049C27.3101 13.8049 26.9899 13.8049 26.5584 13.8049C26.4749 13.8049 26.1965 13.8049 26.1965 13.958C26.1965 14.473 27.5189 14.0832 27.5189 15.0437V20.4723C27.5189 22.95 28.3123 25.3163 32.5577 25.3163C33.1852 25.3711 33.8169 25.2833 34.4056 25.0594C34.9943 24.8356 35.5247 24.4814 35.9572 24.0235C36.3896 23.5656 36.7129 23.0158 36.9028 22.4153C37.0927 21.8148 37.1443 21.1791 37.0537 20.5558V15.5587C36.9981 14.0832 37.9446 14.4173 37.9446 13.9301L37.9307 14.1528ZM47.4655 16.1016C47.2985 16.1016 46.7974 16.7697 46.7974 16.9507C46.7974 17.1316 47.2985 17.7858 47.4655 17.7858C47.6326 17.7858 48.1476 17.1316 48.1476 16.9507C48.1476 16.7697 47.6882 15.9345 47.4794 15.9345L47.4655 16.1016ZM83.4057 18.7324C83.4057 18.6071 83.3083 18.5514 83.0995 18.5514C82.8907 18.5514 82.654 18.5514 82.2782 18.5514C81.9024 18.5514 81.5544 18.5514 81.3734 18.5514C81.1925 18.5514 80.8863 18.5514 80.8863 18.7324C80.8863 19.0943 81.9163 18.8437 81.9163 19.7206C81.8996 20.0052 81.8287 20.2839 81.7075 20.5419C81.3868 21.7824 80.9727 22.9969 80.4687 24.1749L78.7427 19.7902C78.6879 19.6676 78.6594 19.5348 78.6591 19.4005C78.6591 18.7602 79.5917 19.0664 79.5917 18.7602C79.5917 18.454 79.4943 18.5514 79.2577 18.5514C79.021 18.5514 78.6313 18.5514 78.0745 18.5514H77.5456C77.5456 18.5514 77.3368 18.5514 77.0166 18.5514H75.2489C75.2489 17.3961 75.2489 17.062 75.0401 17.062C74.8313 17.062 74.7895 16.9507 74.706 17.4657C74.5614 18.0371 74.2339 18.5455 73.7734 18.9133C73.7734 18.9133 73.5785 19.0803 74.1492 19.0525V23.4372C74.1492 25.0936 75.2071 25.3024 75.9448 25.3024C77.0862 25.3024 77.9632 24.7595 77.9632 24.495C77.9632 24.2306 77.9632 24.3419 77.8379 24.3419C77.5456 24.3419 77.3089 24.7317 76.4459 24.7317C76.3054 24.7494 76.1626 24.7371 76.0272 24.6956C75.8917 24.6541 75.7666 24.5844 75.66 24.491C75.5535 24.3976 75.468 24.2827 75.4091 24.1538C75.3502 24.0249 75.3193 23.8851 75.3185 23.7434V19.0525H77.2394C77.2743 19.0555 77.3079 19.0673 77.3371 19.0868C77.3663 19.1063 77.3901 19.1328 77.4064 19.1639L79.4804 24.3698C79.6683 24.7035 79.7822 25.0738 79.8145 25.4555C79.8145 26.7082 78.2972 29.4921 75.8474 29.1581C75.7639 29.1581 75.5551 29.1581 75.4855 29.1581C75.4159 29.1581 75.2767 29.0885 75.7639 29.8262C75.928 29.917 76.1088 29.9736 76.2954 29.9927C76.482 30.0119 76.6705 29.9931 76.8496 29.9376C77.9928 29.5878 78.9776 28.8492 79.6335 27.8496C80.5383 26.5551 82.5427 19.4979 82.5427 19.4979C82.8768 18.5236 83.4196 18.9272 83.4196 18.5653L83.4057 18.7324ZM72.2701 24.3002V18.2869C72.2744 18.2248 72.2554 18.1633 72.2168 18.1144C72.1782 18.0655 72.1227 18.0327 72.0613 18.0225C71.6715 18.0225 71.3653 18.5375 70.3353 18.8298C70.2923 18.8365 70.2531 18.8585 70.225 18.8917C70.1968 18.925 70.1816 18.9672 70.1822 19.0108C70.1822 19.3448 71.0591 18.9272 71.0591 19.8877V23.6738C71.0591 25.1353 70.3492 24.5229 70.3492 24.9265C70.3492 25.0936 70.4466 25.1075 70.5719 25.1075C70.6972 25.1075 71.1704 25.1075 71.6855 25.1075C72.2005 25.1075 72.8408 25.1075 73.1749 25.1075C73.5089 25.1075 73.4811 25.1075 73.4811 24.9265C73.5924 24.5507 72.3814 24.9126 72.3814 24.0914L72.2701 24.3002ZM72.4232 16.9924C72.4232 16.7975 71.9639 16.1433 71.7551 16.1433C71.5463 16.1433 71.0869 16.8115 71.0869 16.9924C71.0869 17.1734 71.5741 17.8276 71.7551 17.8276C71.936 17.8276 72.4928 16.9646 72.4928 16.7836L72.4232 16.9924ZM78.7148 19.7763C78.7148 19.7763 78.7844 19.651 78.7844 19.5954L78.7148 19.7763ZM68.651 21.1683C66.9528 20.5001 66.5352 20.1661 66.5352 19.6232C66.5344 19.478 66.5642 19.3343 66.6228 19.2015C66.6814 19.0687 66.7674 18.9497 66.8752 18.8525C66.983 18.7552 67.1101 18.6818 67.2482 18.6371C67.3863 18.5925 67.5323 18.5775 67.6766 18.5932C69.1382 18.5932 69.2635 19.9851 69.4444 19.9851C69.6254 19.9851 69.6254 19.7763 69.6254 19.3587C69.6486 19.0922 69.625 18.8237 69.5558 18.5653C69.0649 18.3292 68.5276 18.2055 67.9829 18.2034C67.7083 18.1701 67.4298 18.1951 67.1656 18.2769C66.9014 18.3588 66.6575 18.4955 66.4498 18.6782C66.2422 18.8609 66.0755 19.0854 65.9607 19.337C65.8458 19.5886 65.7855 19.8617 65.7836 20.1382C65.7836 21.2796 66.8136 21.6833 67.6906 22.1287C68.3448 22.435 69.166 22.6855 69.166 23.5207C69.1482 23.8776 68.9937 24.2141 68.7345 24.4602C68.4754 24.7064 68.1315 24.8435 67.7741 24.843C66.0202 24.843 66.2012 22.6994 65.8671 22.6994C65.533 22.6994 65.6862 23.2144 65.6862 23.5067C65.6862 24.7595 65.6862 24.7873 66.0481 24.7873C66.41 24.7873 66.7162 25.2606 67.8576 25.2606C68.4399 25.2461 68.9936 25.0056 69.4015 24.5898C69.8095 24.1741 70.0395 23.6159 70.043 23.0335C70.0674 22.6085 69.9412 22.1886 69.6866 21.8474C69.432 21.5063 69.0654 21.2658 68.651 21.1683V21.1683ZM82.7793 23.465C82.4914 23.465 82.2152 23.5794 82.0116 23.783C81.808 23.9866 81.6936 24.2628 81.6936 24.5507C81.6908 24.7694 81.7533 24.9839 81.8731 25.1668C81.9929 25.3498 82.1645 25.4929 82.366 25.5778C82.5674 25.6628 82.7897 25.6857 83.0043 25.6437C83.2189 25.6017 83.4161 25.4967 83.5707 25.3421C83.7253 25.1875 83.8303 24.9903 83.8723 24.7757C83.9143 24.5611 83.8914 24.3388 83.8064 24.1373C83.7215 23.9359 83.5784 23.7643 83.3954 23.6445C83.2125 23.5247 82.998 23.4622 82.7793 23.465V23.465ZM82.7793 25.4833C82.5454 25.4833 82.3209 25.3914 82.1543 25.2273C81.9876 25.0633 81.8921 24.8402 81.8885 24.6064C81.8726 24.4791 81.884 24.3499 81.9218 24.2273C81.9597 24.1048 82.0232 23.9917 82.1081 23.8955C82.193 23.7994 82.2973 23.7224 82.4143 23.6696C82.5312 23.6169 82.658 23.5896 82.7863 23.5896C82.9145 23.5896 83.0414 23.6169 83.1583 23.6696C83.2752 23.7224 83.3796 23.7994 83.4645 23.8955C83.5494 23.9917 83.6129 24.1048 83.6507 24.2273C83.6886 24.3499 83.7 24.4791 83.6841 24.6064C83.6841 24.8366 83.5936 25.0575 83.4322 25.2216C83.2707 25.3857 83.0512 25.4797 82.8211 25.4833H82.7793ZM83.2526 24.2445C83.2526 23.98 83.0995 23.8826 82.8072 23.8826H82.32V25.1353H82.5009V24.6203H82.7097L83.0438 25.1632H83.2526L82.8907 24.6064C82.942 24.6148 82.9946 24.6116 83.0445 24.597C83.0944 24.5824 83.1404 24.5568 83.1791 24.5221C83.2179 24.4873 83.2483 24.4444 83.2683 24.3964C83.2882 24.3483 83.2971 24.2964 83.2943 24.2445H83.2526ZM82.5288 24.4672V24.0914H82.7793C82.9185 24.0914 83.0716 24.0914 83.0716 24.2584C83.0716 24.4254 82.9185 24.4672 82.7654 24.4672H82.5288ZM47.9388 24.1331V18.3426C47.9443 18.2843 47.9292 18.226 47.8961 18.1777C47.8631 18.1294 47.8141 18.0941 47.7578 18.0781C47.3681 18.0781 47.0619 18.5932 46.0318 18.8716C45.9483 18.8716 45.8787 18.9829 45.8787 19.0525C45.8787 19.3866 46.7417 19.0525 46.7417 19.9294V23.7434C46.7417 24.8291 46.338 24.7873 46.1571 24.7873C45.9761 24.7873 44.9461 24.8569 44.9461 23.8547V21.1961C45.0001 20.8198 44.9724 20.4363 44.8648 20.0717C44.7572 19.7071 44.5722 19.3699 44.3226 19.0833C44.0729 18.7966 43.7643 18.5671 43.4179 18.4105C43.0715 18.2538 42.6955 18.1737 42.3153 18.1756C41.4084 18.2642 40.5684 18.6917 39.9629 19.3727V18.3148C39.9604 18.2689 39.9446 18.2247 39.9174 18.1876C39.8902 18.1505 39.8528 18.1221 39.8098 18.106C39.42 18.106 39.1138 18.621 37.7636 18.9133C37.7218 18.9224 37.6841 18.9451 37.6564 18.9778C37.6287 19.0105 37.6126 19.0515 37.6105 19.0943C37.6105 19.4283 38.7937 19.0108 38.7937 19.9712V24.0079C38.7937 25.0379 37.8471 24.7317 37.8471 25.0379C37.8471 25.3441 37.8471 25.2467 38.1255 25.2467C38.4039 25.2467 38.6406 25.2467 39.5175 25.2467C40.3944 25.2467 40.7842 25.2467 41.0486 25.2467C41.3131 25.2467 41.4105 25.2467 41.4105 25.0101C41.4105 24.5786 40.0186 25.0101 40.0186 23.9383V20.1939C40.1394 19.7939 40.3959 19.4485 40.744 19.2173C41.0921 18.986 41.51 18.8835 41.9256 18.9272C42.4216 18.9625 42.8857 19.1847 43.2242 19.5491C43.5627 19.9134 43.7503 20.3926 43.749 20.8899V23.9522C43.749 24.9822 43.053 24.676 43.053 24.9822C43.053 25.2884 43.1226 25.191 43.3314 25.191C43.5402 25.191 43.8743 25.191 44.5007 25.191C45.127 25.191 45.6838 25.191 45.8926 25.191H46.3241C46.5051 25.191 46.9227 25.191 47.4377 25.191C47.9527 25.191 48.593 25.191 48.9271 25.191C49.2611 25.191 49.2333 25.191 49.2333 25.0101C49.2333 24.6064 47.9805 24.9544 47.9805 24.1331H47.9388ZM63.3755 23.7712V20.1939C63.6467 19.5397 64.0928 18.9727 64.6649 18.5553C65.237 18.1379 65.913 17.8861 66.6188 17.8276C67.2173 17.8276 67.1199 17.8276 67.4957 17.2847C67.6488 17.0203 66.9111 17.0203 66.577 17.0481C64.4473 17.2291 64.0297 18.6906 63.4451 19.4979V18.3844C63.45 18.3279 63.4344 18.2715 63.4012 18.2255C63.368 18.1795 63.3194 18.147 63.2642 18.1338C62.9023 18.1338 62.5682 18.6488 61.3294 18.9272C61.2458 18.9272 61.1206 19.0108 61.1206 19.1082C61.1206 19.4423 62.2759 19.1082 62.2759 19.9851V24.161C62.2759 24.676 61.6634 24.843 61.4825 24.8848C61.4463 24.8992 61.4153 24.9242 61.3934 24.9565C61.3716 24.9887 61.3599 25.0268 61.3599 25.0657C61.3599 25.1047 61.3716 25.1428 61.3934 25.175C61.4153 25.2073 61.4463 25.2322 61.4825 25.2467C61.4825 25.2467 61.4825 25.2467 61.4825 25.2467H61.5799C62.0711 25.2122 62.5642 25.2122 63.0554 25.2467C63.9601 25.2467 64.336 25.2467 64.5726 25.2467C64.8092 25.2467 64.8371 25.2467 64.8371 25.0657C64.8649 24.495 63.4173 25.2745 63.4173 23.7712H63.3755ZM55.8729 18.5653C55.8729 18.3565 55.5945 18.3426 55.4414 18.3426C55.2883 18.3426 54.8985 18.3426 54.6062 18.3426C54.3139 18.3426 53.9659 18.3426 53.6319 18.3426C53.2978 18.3426 53.2421 18.3426 53.2421 18.5375C53.2421 18.7324 54.2304 18.5375 54.2304 19.3866C54.1533 20.1032 53.9154 20.7931 53.5344 21.4049L52.5183 23.6738L50.9872 19.8598C50.8062 19.3587 50.7088 19.136 50.7088 19.0803C50.7088 18.5932 51.6135 18.802 51.6135 18.4957C51.6135 18.1895 51.4604 18.3148 51.2516 18.3148C51.0428 18.3148 50.8619 18.3148 50.2633 18.3148C49.2194 18.3148 49.2194 18.3148 48.8714 18.3148C48.5234 18.3148 48.5373 18.3844 48.5373 18.4957C48.5373 18.6071 49.108 18.4957 49.4143 19.2613L51.8084 24.8291C51.8084 24.9265 51.9198 25.2049 52.1286 25.2049C52.3374 25.2049 52.3513 25.024 52.6714 24.3558L55.0934 19.2056C55.3161 18.6767 55.9147 18.7741 55.9147 18.5653H55.8729ZM58.7821 24.4672C57.8077 24.4672 56.1791 23.6738 56.1791 21.0152H60.5081C60.8979 21.0152 61.051 21.0152 61.051 20.7368C60.9587 20.0495 60.6307 19.4156 60.1229 18.9434C59.6152 18.4712 58.9592 18.19 58.2671 18.1477C56.2487 18.1477 55.0934 19.8877 55.0934 21.9478C55.0933 22.8131 55.4332 23.6439 56.0399 24.261C56.6466 24.8781 57.4714 25.2321 58.3367 25.2467C58.8896 25.2342 59.4314 25.0885 59.9161 24.822C60.4007 24.5554 60.8139 24.1759 61.1206 23.7155C61.1206 23.7155 61.1206 23.6181 61.1206 23.6181C60.7308 23.6738 60.2158 24.4672 58.8238 24.4672H58.7821ZM57.933 18.5932C58.3874 18.6056 58.8211 18.7862 59.1502 19.0998C59.4793 19.4135 59.6804 19.838 59.7147 20.2913C59.7147 20.528 59.6173 20.6254 59.3806 20.6254H56.2766C56.2766 19.7485 57.07 18.5932 57.9748 18.5932H57.933ZM15.1027 12.1206C15.148 12.192 15.2093 12.2518 15.2818 12.2953C15.3543 12.3388 15.4359 12.3648 15.5203 12.3711C15.6047 12.3735 15.6879 12.351 15.7597 12.3064C15.8314 12.2619 15.8885 12.1973 15.9239 12.1206L20.6983 4.53446L20.8793 4.32567C20.9948 4.15592 21.1591 4.02516 21.3504 3.95062C21.5417 3.87607 21.7511 3.86124 21.9511 3.90809H24.3452V0.0106235H20.0302C19.7812 -0.0171698 19.5295 0.0270788 19.305 0.138113C19.0805 0.249147 18.8925 0.4223 18.7635 0.637001L15.562 5.38355L12.5276 0.734438L12.3884 0.581323C12.3636 0.541274 12.3287 0.50855 12.2871 0.486528C12.2455 0.464506 12.1988 0.453984 12.1517 0.456048C12.1068 0.455026 12.0624 0.466118 12.0232 0.48816C11.984 0.510202 11.9515 0.542381 11.929 0.581323L11.8177 0.734438L8.85281 5.38355L5.5678 0.637001C5.43909 0.418711 5.24914 0.243 5.0215 0.131655C4.79386 0.020309 4.53854 -0.021774 4.28721 0.0106235H0V3.88025H2.39416C2.59872 3.84439 2.80926 3.86719 3.0014 3.94602C3.19355 4.02485 3.35944 4.15648 3.47988 4.32567L3.63299 4.53446L8.46306 12.1206C8.56382 12.2559 8.71388 12.3459 8.88065 12.3711C8.96791 12.3694 9.05329 12.3454 9.12877 12.3016C9.20425 12.2578 9.26735 12.1955 9.31215 12.1206L12.0961 7.94474L15.1027 12.1206ZM18.1928 10.8818L15.5898 15.0576L12.2352 10.1579L9.66014 13.9301L15.1305 22.5045C15.3115 22.8386 15.4646 22.8665 15.5342 22.8943C15.6038 22.9221 15.7986 22.8108 15.9796 22.5045L20.2668 14.6818C20.3656 14.4905 20.5126 14.3283 20.6932 14.2111C20.8739 14.094 21.0819 14.0259 21.2968 14.0136H24.3731V10.1858H19.4873C19.2312 10.1876 18.9794 10.252 18.7538 10.3733C18.5282 10.4946 18.3356 10.6691 18.1928 10.8818V10.8818Z" fill="#212E44"/>
</svg>
